<?xml version="1.0" standalone="no"?>
<!DOCTYPE svg PUBLIC "-//W3C//DTD SVG 1.1//EN" "http://www.w3.org/Graphics/SVG/1.1/DTD/svg11.dtd" >
<svg xmlns="http://www.w3.org/2000/svg">
<metadata>Generated by IcoMoon</metadata>
<defs>
<font id="icomoon" horiz-adv-x="1024">
<font-face units-per-em="1024" ascent="960" descent="-64" />
<missing-glyph horiz-adv-x="1024" />
<glyph unicode="&#x20;" horiz-adv-x="512" d="" />
<glyph unicode="&#xe900;" glyph-name="number" horiz-adv-x="1294" d="M665.681-50.522l-2.172 0.472c-56.92 14.589-107.595 44.766-147.288 85.798l0.129-0.136c-39.249 41.23-67.944 92.599-82.213 152.029-9.391 37.365-14.086 78.34-14.086 123.183l0.001-0.257c-0.010 1.668-0.015 3.338-0.015 5.008 0 76.026 10.094 149.693 27.662 213.852l1.217 5.195c10.193 37.101 23.201 73.037 36.898 102.898l1.577 3.982c23.174 52.238 53.307 100.703 88.37 143.159l0.699 0.863c26.861 32.257 57.449 61.301 92.501 87.472 78.256 57.985 167.287 86.977 267.296 86.977l-0.205-0.001c1.337 0.012 2.676 0.018 4.017 0.018 38.488 0 75.828-4.912 108.354-13.466l2.171-0.472c56.925-14.582 107.605-44.755 147.303-85.784l-0.129 0.137c39.246-41.235 67.937-92.609 82.199-152.044 9.4-37.365 14.1-78.336 14.1-123.169l-0.001 0.254c0.010-1.654 0.014-3.31 0.014-4.966 0-76.045-10.099-149.73-27.676-213.905l-1.217-5.195c-10.189-37.096-23.193-73.028-36.884-102.883l-1.577-3.982c-23.173-52.243-53.306-100.713-88.371-143.172l-0.698-0.863c-26.862-32.252-57.45-61.292-92.502-87.458-78.256-57.985-167.286-86.977-267.296-86.977l0.208 0.001c-1.361-0.012-2.723-0.018-4.087-0.018-38.469 0-75.791 4.907-108.3 13.453zM799.075 129.797c0.117 0 0.256 0 0.395 0 46.78 0 89.242 18.485 120.482 48.549l-0.056-0.053c7.549 6.963 14.513 14.214 21.021 21.866l0.292 0.352c24.519 29.017 45.642 62.096 62.040 97.796l1.107 2.688c9.747 20.658 19.294 45.734 27.042 71.588l1.031 4.005q31.114 105.363 31.114 202.947c0.002 0.504 0.004 1.101 0.004 1.698 0 16.829-1.122 33.396-3.295 49.63l0.208-1.899q-3.437 25.485-10.72 46.148c-5.938 17.345-14.468 32.342-25.279 45.379l0.19-0.236q-38.892 45.964-109.606 45.964c-0.121 0-0.265 0-0.409 0-46.78 0-89.242-18.485-120.482-48.549l0.056 0.053c-7.543-6.962-14.503-14.214-21.006-21.865l-0.293-0.353c-24.525-29.020-45.652-62.104-62.054-97.809l-1.107-2.688c-9.741-20.652-19.284-45.724-27.028-71.573l-1.031-4.006q-31.114-105.363-31.114-202.947c-0.003-0.539-0.004-1.178-0.004-1.816 0-16.792 1.117-33.322 3.28-49.522l-0.207 1.895q3.437-25.485 10.72-46.148c5.944-17.34 14.479-32.332 25.293-45.364l-0.189 0.235q38.892-45.964 109.606-45.964zM84.418-51.399c13.23-4.381 28.46-6.909 44.28-6.909 0.502 0 1.004 0.003 1.506 0.008l-0.077-0.001q59.399 0 102.534 41.721c14.518 13.836 25.982 30.738 33.367 49.68l0.321 0.936c5.989 15.778 9.456 34.022 9.456 53.075 0 0.588-0.003 1.174-0.010 1.76l0.001-0.089c0 0.065 0 0.141 0 0.218 0 6.041-0.329 12.005-0.97 17.875l0.064-0.726c-2.609 29.384-15.56 55.329-35.14 74.542l-0.019 0.018c-13.251 13.102-29.582 23.118-47.808 28.862l-0.843 0.229c-12.745 3.979-27.399 6.272-42.589 6.272-0.491 0-0.981-0.002-1.47-0.007l0.075 0.001c-0.777 0-1.546-0.006-2.315-0.015l0.123 0.001c-0.498 0.006-1.087 0.010-1.677 0.010-39.226 0-74.798-15.646-100.816-41.038l0.029 0.028c-15.643-14.953-27.638-33.589-34.603-54.523l-0.272-0.945c-4.795-14.642-7.56-31.492-7.56-48.989 0-0.567 0.003-1.134 0.009-1.7l-0.001 0.086c0-0.029 0-0.064 0-0.099 0-2.368 0.051-4.724 0.153-7.066l-0.012 0.334c0.672-33.143 14.565-62.916 36.602-84.363l0.027-0.026c13.030-12.923 28.982-22.92 46.775-28.912l0.857-0.25z" />
<glyph unicode="&#xe901;" glyph-name="administrator" horiz-adv-x="1463" d="M1395.736 253.104c5.94 32.229 5.94 65.149 0 97.4l58.993 34.065c6.848 3.888 9.829 11.902 7.539 19.441-15.315 49.38-41.604 94.203-75.906 131.227-5.271 5.724-13.717 7.085-20.586 3.197l-58.993-34.065c-24.928 21.256-53.506 37.716-84.374 48.689v68.13c0 7.776-5.487 14.624-13.025 16.222-50.979 11.427-102.886 10.973-151.338 0-7.539-1.598-13.025-8.468-13.025-16.222v-68.13c-30.868-10.973-59.446-27.433-84.374-48.689l-58.993 34.065c-6.632 3.888-15.315 2.506-20.586-3.197-34.281-37.024-60.591-81.847-75.906-131.227-2.29-7.539 0.907-15.553 7.539-19.441l58.993-34.065c-5.94-32.229-5.94-65.171 0-97.4l-58.993-34.065c-6.848-3.888-9.829-11.881-7.539-19.441 15.315-49.38 41.604-93.965 75.906-131.227 5.271-5.724 13.717-7.085 20.586-3.197l58.993 34.065c24.928-21.256 53.506-37.716 84.374-48.689v-68.13c0-7.776 5.487-14.624 13.025-16.222 50.979-11.427 102.886-10.973 151.338 0 7.539 1.598 13.025 8.468 13.025 16.222v68.13c30.868 10.973 59.446 27.433 84.374 48.689l58.993-34.065c6.632-3.888 15.315-2.506 20.586 3.197 34.281 37.046 60.591 81.847 75.906 131.227 2.29 7.56-0.907 15.553-7.539 19.441l-58.993 34.065zM1133.973 190.914c-61.282 0-110.879 49.834-110.879 110.879s49.834 110.879 110.879 110.879c61.045 0 110.879-49.834 110.879-110.879s-49.618-110.879-110.879-110.879zM219.489 521.282c80.702 0 146.326 65.603 146.326 146.326 0 80.702-65.603 146.326-146.326 146.326-80.702 0-146.326-65.603-146.326-146.326 0-80.702 65.603-146.326 146.326-146.326zM731.609 448.119c4.342 0 8.468 1.145 12.809 1.361 18.966 49.618 46.874 96.255 82.992 135.331 16.914 18.296 40.934 28.816 66.078 28.816 15.769 0 31.322-4.104 44.801-12.118l18.059-10.52c1.836 1.145 3.651 2.052 5.487 3.219 16.006 33.374 25.619 70.42 25.619 109.734 0 141.509-114.551 256.060-256.060 256.060s-255.822-114.313-255.822-255.822c0-141.509 114.551-256.060 256.060-256.060zM972.116 3.438c-5.249 2.743-10.52 5.94-15.553 8.921-18.75-10.973-34.972-22.4-62.859-22.4-24.928 0-48.927 10.52-66.078 28.816-41.841 45.276-73.833 100.359-91.891 159.114-24.474 78.887 56.919 113.622 58.993 115.004-0.238 5.94-0.238 11.881 0 17.821l-18.059 10.52c-8.684 5.033-16.006 11.427-22.4 18.512-7.539-0.454-14.862-1.361-22.4-1.361-56.249 0-108.827 13.717-156.608 36.592h-18.966c-145.635 0-263.599-117.964-263.599-263.361v-65.84c0-60.591 49.164-109.734 109.734-109.734h583.9c-8.468 13.717-14.17 29.27-14.17 46.421v21.040zM395.754 405.586c-26.526 26.289-62.881 42.533-103.102 42.533h-146.326c-80.702 0-146.326-65.624-146.326-146.326v-73.163c0-40.459 32.683-73.163 73.163-73.163h150.668c14.408 108.373 79.795 199.595 171.923 250.12z" />
<glyph unicode="&#xe902;" glyph-name="Baseline" horiz-adv-x="1369" d="M778.568 207.405c-43.031 1.604-76.207 11.23-98.668 29.394-51.339 41.197-59.877 131.786-68.701 227.818-6.933 75.404-14.439 153.445-45.208 217.39h384.987c27.274-86.864 108.294-149.72 203.982-149.72 118.149 0 213.894 95.745 213.894 213.894s-95.688 213.894-213.894 213.894c-95.688 0-176.708-62.856-203.982-149.72h-532.874c-27.56 86.921-108.58 149.72-204.268 149.72-118.149 0-213.894-95.745-213.894-213.894s95.688-213.894 213.894-213.894c90.875 0 168.686 56.668 199.455 136.885 13.923-8.308 26.185-20.857 35.811-39.822 21.945-43.317 27.79-108.007 34.207-176.708 10.428-112.82 22.461-240.653 116.029-316 46.24-37.187 105.658-56.152 180.146-57.699v-142.845h418.564v427.445h-418.564v-156.424l-1.031 0.344zM931.497 208.379h114.768v-117.232h-114.768v117.232zM1197.82 746.18c0-23.55-19.252-42.802-42.802-42.802s-42.802 19.252-42.802 42.802c0 23.55 19.252 42.802 42.802 42.802s42.802-19.252 42.802-42.802zM171.15 746.18c0 23.55 19.252 42.802 42.802 42.802s42.802-19.252 42.802-42.802c0-23.55-19.252-42.802-42.802-42.802s-42.802 19.252-42.802 42.802z" />
<glyph unicode="&#xe903;" glyph-name="canceled" d="M512 960c-282.753 0-512-229.247-512-512s229.247-512 512-512c282.753 0 512 229.247 512 512s-229.247 512-512 512zM715.273 630.961c-16.727 16.416-43.844 16.208-60.26-0.519l-184.519-187.636-104.052 103.065c-16.675 16.468-43.792 16.364-60.26-0.312l-65.714-66.338c-16.519-16.675-16.364-43.792 0.26-60.26l130.597-129.351c1.195-1.558 2.494-3.013 3.896-4.416l66.545-65.455c16.727-16.416 43.844-16.208 60.26 0.519l280.26 284.935c16.416 16.727 16.208 43.844-0.519 60.26l-66.545 65.455zM512 816.104c203.273 0 368.052-164.779 368.052-368.052s-164.779-368.052-368.052-368.052c-203.273 0-368.052 164.779-368.052 368.052s164.779 368.052 368.052 368.052z" />
<glyph unicode="&#xe904;" glyph-name="folder-open2" horiz-adv-x="1533" d="M326.781 365.749c59.326 99.34 112.053 81.14 244.183 81.14 255.784 0 511.568 0 767.352 0 31.608 0 76.416 6.669 96.145-12.296 27.996-26.884 5.696-54.95-8.336-78.361l-123.099-204.933c-27.788-46.058-51.198-99.688-99.618-119.973-40.57-17.020-155.054-10.559-207.086-10.559-25.495 0-847.449-2.64-874.959 0.903l205.35 344.079zM86.141 120.177c-1.806 230.219 0.834 460.786-0.139 690.867-0.278 59.257 21.257 61.202 76.207 61.202 91.768 0 183.467 0 275.235 0 22.647 0 47.378 0.973 69.747 0.208 15.63-0.556 15.7-4.446 23.55-12.574l84.682-84.891c94.339-94.2 45.572-73.012 202.849-73.012 91.768 0 183.536 0 275.235 0 42.306 0 91.421 7.503 98.090-37.027 2.57-17.159 2.431-115.388-0.069-132.685-33.276-3.821-491.839-0.625-567.907-0.625-122.96 0-234.943 21.119-317.333-62.175-29.455-29.802-52.935-74.262-76.068-112.887-23.342-38.972-47.378-78.986-70.858-118.166l-69.747-114.832c-0.347-0.417-1.459-2.223-1.737-1.667-0.278 0.486-1.181-1.181-1.806-1.667zM1278.781 531.849c-13.199 66.829 34.109 193.054-75.721 244.044-37.374 17.367-105.662 11.532-151.164 11.532-58.979 0-281.418-3.265-319.626-0.139-14.588 1.181-68.844 61.619-82.32 75.026-27.51 27.579-53.352 52.866-80.653 80.653-8.406 8.545-9.934 14.45-26.051 14.936-76.902 2.292-199.236-0.208-278.222-0.208-106.287 0-201.876 21.535-249.879-69.26-20.98-39.597-14.172-95.867-14.172-144.148 0-212.227 0-424.454 0-636.681 0-61.549 0.695-89.754 32.025-129.212 27.996-35.221 71.275-42.515 115.249-42.445h959.225c93.991 0 164.294 9.865 222.786 96.284 30.844 45.572 88.086 146.093 120.25 199.375 20.424 33.831 40.778 66.898 60.507 100.73 22.925 39.319 29.594 77.18 9.934 124.905-40.778 98.924-159.848 71.275-242.307 74.609z" />
<glyph unicode="&#xe905;" glyph-name="check-circle" d="M512.006 960c-282.771 0-512.006-229.235-512.006-512.006s229.235-512.006 512.006-512.006c282.771 0 512.006 229.235 512.006 512.006s-229.235 512.006-512.006 512.006zM715.251 630.908c-16.707 16.427-43.82 16.204-60.246-0.503l-184.539-187.625-104.066 103.072c-16.637 16.485-43.75 16.356-60.246-0.292l-65.706-66.338c-16.497-16.649-16.368-43.761 0.281-60.258l130.617-129.366c1.181-1.532 2.479-3.005 3.893-4.396l66.56-65.472c16.707-16.427 43.82-16.204 60.258 0.503l280.257 284.945c16.438 16.707 16.204 43.82-0.503 60.246l-66.56 65.472zM512.006 816.078c203.28 0 368.072-164.792 368.072-368.072s-164.792-368.072-368.072-368.072c-203.28 0-368.072 164.792-368.072 368.072s164.792 368.072 368.072 368.072z" />
<glyph unicode="&#xe906;" d="M1023.988 448.006c0-282.766-229.228-511.994-511.994-511.994s-511.994 229.228-511.994 511.994c0 282.766 229.228 511.994 511.994 511.994s511.994-229.228 511.994-511.994z" />
<glyph unicode="&#xe907;" d="M578.659 448.006l205.213 205.213c5.779 5.779 5.779 15.153 0 20.92-40.443 40.455-106.034 40.455-146.477 0l-142.429-142.441-30.652 30.652c5.314 13.457 8.239 28.12 8.239 43.476 0 65.387-52.993 118.38-118.368 118.38s-118.38-52.993-118.38-118.38c0-65.375 52.993-118.368 118.38-118.368 5.6 0 11.081 0.394 16.478 1.146l40.598-40.598-40.598-40.598c-5.385 0.752-10.89 1.146-16.478 1.146-65.387 0-118.38-52.993-118.38-118.368 0-65.387 52.993-118.38 118.38-118.38 65.375 0 118.368 52.993 118.368 118.38 0 15.344-2.925 30.007-8.239 43.476l30.652 30.652 142.429-142.441c40.455-40.455 106.034-40.455 146.477 0 5.779 5.767 5.779 15.141 0 20.92l-205.213 205.213zM354.162 566.386c-21.756 0-39.464 17.696-39.464 39.452s17.708 39.464 39.464 39.464c21.756 0 39.464-17.708 39.464-39.464s-17.708-39.452-39.464-39.452zM354.162 250.721c-21.756 0-39.464 17.708-39.464 39.464s17.708 39.452 39.464 39.452c21.756 0 39.464-17.696 39.464-39.452s-17.708-39.464-39.464-39.464z" />
<glyph unicode="&#xe908;" glyph-name="edit" d="M995.813 675.915l-92.182-92.182c-9.423-9.423-24.582-9.423-34.005 0l-221.975 221.975c-9.423 9.423-9.423 24.582 0 34.005l92.182 92.182c37.364 37.364 98.246 37.364 135.774 0l120.205-120.205c37.61-37.364 37.61-98.246 0-135.774zM568.415 760.477l-525.233-525.233-42.363-243.033c-5.818-32.776 22.779-61.209 55.637-55.637l243.033 42.609 525.233 525.233c9.423 9.423 9.423 24.582 0 34.005l-221.975 221.975c-9.587 9.423-24.828 9.423-34.169 0zM248.195 280.229c-10.98 10.98-10.98 28.597 0 39.577l308.011 308.011c10.98 10.98 28.597 10.98 39.577 0s10.98-28.597 0-39.577l-308.011-308.011c-10.98-10.98-28.597-10.98-39.577 0zM176.006 112.006h96.033v-72.599l-128.973-22.615-62.192 62.192 22.615 128.973h72.599v-96.033z" />
<glyph unicode="&#xe909;" glyph-name="excel" horiz-adv-x="768" d="M739.688 764.041l-167.77 167.77c-18.018 18.018-42.363 28.189-67.829 28.189h-408.175c-53.014-0.24-96.018-43.164-96.018-96.178v-831.885c0-53.014 43.004-96.018 96.018-96.018h575.945c53.014 0 96.018 43.004 96.018 96.018v664.114c0 25.386-10.17 49.971-28.189 67.989v0zM664.091 703.82h-152.155v152.155l152.155-152.155zM95.995 31.937v831.885h319.925v-207.971c0-26.587 21.382-47.969 47.969-47.969h207.971v-575.945h-575.945zM519.945 511.865h-57.578c-8.809 0-16.817-4.805-20.981-12.573-36.037-66.227-44.365-84.806-57.178-115.397-27.788 58.219-13.774 34.595-57.178 115.397-4.164 7.768-12.413 12.573-21.222 12.573h-57.819c-18.579 0-30.030-20.020-20.821-35.957l92.574-155.998-92.574-155.998c-9.37-16.016 2.162-36.037 20.821-36.037h57.819c8.809 0 16.817 4.805 20.981 12.573 43.404 80.001 45.967 90.011 57.178 115.397 29.79-60.381 11.772-31.792 57.178-115.397 4.164-7.768 12.413-12.573 21.222-12.573h57.578c18.579 0 30.030 20.020 20.821 36.037l-92.814 155.998c1.441 2.162 60.622 100.983 92.574 155.998 9.37 16.016-2.162 35.957-20.581 35.957v0z" />
<glyph unicode="&#xe90a;" glyph-name="expand-arrows" d="M1024 246.823v-256.021c0 0 0-0.084 0-0.167 0-30.204-24.514-54.718-54.718-54.718-0.084 0-0.084 0-0.167 0h-256.021c-48.862 0-73.376 59.236-38.821 93.707l82.747 82.747-245.061 245.061-245.061-245.228 82.83-82.496c34.471-34.471 10.040-93.707-38.821-93.707h-256.021c0 0-0.084 0-0.167 0-30.204 0-54.718 24.514-54.718 54.718 0 0.084 0 0.084 0 0.167v256.021c0 48.945 59.153 73.376 93.707 38.821l82.747-82.747 245.144 245.061-245.228 245.228-82.663-82.998c-34.471-34.471-93.707-10.040-93.707 38.821v256.021c0 0 0 0.084 0 0.167 0 30.204 24.514 54.718 54.718 54.718 0.084 0 0.084 0 0.167 0h256.021c48.862 0 73.376-59.236 38.821-93.707l-82.747-82.747 245.061-245.061 245.061 245.228-82.83 82.496c-34.471 34.471-10.040 93.707 38.821 93.707h256.021c0 0 0.084 0 0.167 0 30.204 0 54.718-24.514 54.718-54.718 0-0.084 0-0.084 0-0.167v-256.021c0-48.945-59.153-73.376-93.707-38.821l-82.747 82.747-245.144-245.061 245.228-245.228 82.663 82.747c34.471 34.722 93.707 10.291 93.707-38.654v0z" />
<glyph unicode="&#xe90b;" glyph-name="fail" d="M1023.904 382.231c-0.933-34.828-30.475-62.193-65.303-62.193h-110.704v-32.029c0-43.742-9.744-85.204-27.158-122.313l120.447-120.447c24.981-24.981 24.981-65.51 0-90.491s-65.51-24.981-90.491 0l-109.46 109.46c-49.547-40.114-112.569-64.162-181.293-64.162v488.008c0 13.268-10.78 24.048-24.048 24.048h-47.992c-13.268 0-24.048-10.78-24.048-24.048v-488.008c-68.723 0-131.745 24.048-181.293 64.162l-109.46-109.46c-24.981-24.981-65.51-24.981-90.491 0s-24.981 65.51 0 90.491l120.447 120.447c-17.414 37.108-27.158 78.57-27.158 122.313v32.029h-110.704c-34.828 0-64.37 27.365-65.303 62.193-1.037 36.176 27.987 65.821 63.955 65.821h111.947v117.441l-93.289 93.289c-24.981 24.981-24.981 65.51 0 90.491s65.51 24.981 90.491 0l109.252-109.252h458.984l109.252 109.252c24.981 24.981 65.51 24.981 90.491 0s24.981-65.51 0-90.491l-93.289-93.289v-117.441h112.051c35.968 0 64.992-29.645 63.955-65.821zM513.921 960.004c-123.66 0-223.998-100.234-223.998-223.998h447.997c0 123.66-100.234 223.998-223.998 223.998z" />
<glyph unicode="&#xe90c;" glyph-name="filter" horiz-adv-x="1022" d="M575.159 1.147c-9.838 5.399-15.597 13.077-24.355 20.276l-93.942 81.584c-12.837 11.878-9.598 12.598-9.598 33.473v350.692c0.12 23.635 3.239 22.076-9.838 34.673-64.067 61.908-133.054 133.414-197.121 197.361-58.549 58.549-117.817 115.657-175.046 174.806l891.786-0.24c-51.83-53.75-106.059-105.699-159.329-158.969l-200.241-200.481c-27.955-27.955-22.436-15.957-22.436-57.709v-475.347zM529.568 958.56l-30.114-0.12c-116.977 3.239-258.909 0.12-380.566 0.12-44.391 0-78.465 6.479-104.38-22.916-9.238-10.558-15.957-29.034-14.277-47.991 1.92-20.876 11.398-30.474 21.596-40.792 21.596-21.836 41.992-41.872 63.588-63.708 42.472-43.312 84.464-84.344 127.295-127.295l157.529-157.529c17.877-17.757 13.077-12.238 13.077-51.11v-252.551c0-33.114-6.359-93.222 10.318-117.457 9.598-13.917 119.257-109.059 134.014-120.696 11.158-8.758 21.356-19.556 41.992-20.516 18.716-0.84 36.113 5.519 46.791 15.717 29.754 28.314 22.556 56.149 22.556 105.219v411.28c-0.24 24.955 2.16 19.196 39.232 56.269l253.63 253.51c21.716 21.716 41.872 41.872 63.588 63.708 10.078 10.198 20.516 17.996 25.195 37.313 4.559 18.836-0.24 38.273-9.238 51.71-21.716 32.274-50.99 27.955-99.341 27.955-125.136 0-259.389 2.16-382.365-0.12z" />
<glyph unicode="&#xe90d;" glyph-name="fire-extinguisher" horiz-adv-x="896" d="M868.072 907.366l-336.009-55.988c-22.683-3.754-20.047-26.916-20.047-35.382h-116.689c21.405 71.802-32.427 144.004-107.344 144.004-78.911 0-132.742-79.39-104.469-152.39-104.069-26.117-150.793-108.462-180.105-181.782-9.824-24.6 2.156-52.554 26.756-62.378s52.554 2.156 62.378 26.756c57.506 143.844 121.321 129.867 243.441 129.867v-54.151c-83.064-21.724-144.004-98.478-144.004-188.251v-493.59c0-26.516 21.485-48.001 48.001-48.001h288.007c26.516 0 48.001 21.485 48.001 48.001v495.986c0 89.453-61.18 164.61-144.004 185.935v54.071h80.029c0-5.91-3.434-31.468 20.047-35.302l336.009-55.988c14.616-2.476 27.954 8.865 27.954 23.641v231.38c0 14.856-13.338 26.117-27.954 23.641zM287.983 815.996c-17.651 0-32.027 14.376-32.027 32.027s14.376 32.027 32.027 32.027c17.651 0 32.027-14.376 32.027-32.027s-14.376-32.027-32.027-32.027z" />
<glyph unicode="&#xe90e;" glyph-name="info" horiz-adv-x="384" d="M40.039 111.625h40.061v288.877h-40.061c-22.143 0-40.061 17.917-40.061 40.061v95.503c0 22.143 17.917 40.061 40.061 40.061h223.968c22.143 0 40.061-17.917 40.061-40.061v-424.441h40.061c22.143 0 40.061-17.917 40.061-40.061v-95.503c0-22.143-17.917-40.061-40.061-40.061h-303.921c-22.143 0-40.061 17.917-40.061 40.061v95.503c0 22.143 17.917 40.061 40.061 40.061zM192 960c-79.614 0-144.016-64.401-144.016-144.016s64.401-144.016 144.016-144.016c79.614 0 144.016 64.401 144.016 144.016 0 79.445-64.401 144.016-144.016 144.016z" />
<glyph unicode="&#xe90f;" glyph-name="Issue" horiz-adv-x="896" d="M647.124 857.614c-41.611-38.618-79.167-79.167-112.426-119.957-54.499 75.112-122.129 151.285-198.689 222.342-196.516-182.324-336.023-419.921-336.023-563.193 0-254.491 200.571-460.807 448.015-460.807s448.015 206.316 448.015 460.807c0 106.537-103.979 326.272-248.892 460.807v0zM608.168 176.299c-43.3-30.315-96.738-48.321-154.471-48.321-144.286 0-261.732 95.483-261.732 250.485 0 77.236 48.61 145.251 145.589 261.491 13.854-15.978 197.675-250.678 197.675-250.678l117.253 133.763c8.303-13.709 15.833-27.081 22.543-39.921 54.692-104.365 31.618-237.934-66.857-306.867v0z" />
<glyph unicode="&#xe910;" glyph-name="jump" horiz-adv-x="1170" d="M1151.237 599.236l-402.29 347.359c-35.192 30.416-90.686 5.69-90.686-41.514v-182.987c-367.168-4.215-658.261-77.761-658.261-425.752 0-140.419 90.475-279.573 190.503-352.276 31.189-22.689 75.653 5.76 64.203 42.568-103.611 331.484 49.171 419.43 403.625 424.558v-200.97c0-47.345 55.563-71.86 90.686-41.514l402.29 347.429c25.288 21.846 25.358 61.183 0 83.029z" />
<glyph unicode="&#xe911;" glyph-name="not_gonna_happen" horiz-adv-x="768" d="M372.19 959.83c-210.18-6.309-372.191-189.657-372.191-399.939 2.68-132.601 136.603-165.403 164.080-226.971l1.493 0.204c6.072 0.882 18.182 2.646 30.394 4.478s24.458 3.697 34.6 5.156c10.143 1.459 18.148 2.51 26.595 3.494 8.48 0.984 17.402 1.9 25.034 2.544s13.976 0.984 17.131 1.153c3.155 0.17 3.155 0.17 3.155 0.17s0 0 0.746 1.628c0.712 1.628 2.205 4.851 4.308 8.311 2.137 3.46 4.919 7.124 8.006 10.278s6.513 5.801 10.414 8.073c3.935 2.239 8.379 4.138 12.415 5.394s7.734 1.9 12.381 2.103c4.647 0.204 10.278-0.068 14.519-0.611s7.056-1.323 10.855-2.917c3.799-1.594 8.582-4.003 11.941-5.97s5.36-3.494 7.531-5.699c2.171-2.239 4.579-5.156 7.463-9.396s6.242-9.77 7.904-12.551c1.662-2.782 1.662-2.782 1.662-2.782s0 0 33.413-2.951c33.447-2.951 100.273-8.82 133.72-11.737 15.706-1.357 24.051-2.069 28.494-2.408 23.508 66.555 164.25 89.656 159.67 247.155 0 216.015-178.361 390.339-395.801 383.826zM447.802 663.353v0c7.599 7.7 20.15 7.802 27.85 0.17l24.763-24.458 24.458 24.763c7.599 7.7 20.15 7.802 27.85 0.17 7.7-7.599 7.802-20.15 0.17-27.85l-24.458-24.763 24.763-24.458c7.7-7.599 7.802-20.15 0.17-27.85-7.599-7.7-20.15-7.802-27.85-0.17l-24.763 24.458-24.458-24.763c-7.599-7.7-20.15-7.768-27.85-0.17s-7.768 20.15-0.17 27.85l24.458 24.763-24.763 24.458c-7.7 7.599-7.768 20.15-0.17 27.85zM552.722 664.032v0zM553.401 559.111v0zM448.48 558.433v0zM212.452 663.353v0c7.599 7.7 20.15 7.802 27.85 0.17l24.763-24.458 24.458 24.763c7.599 7.7 20.15 7.802 27.85 0.17 7.7-7.599 7.802-20.15 0.17-27.85l-24.458-24.763 24.763-24.458c7.7-7.599 7.768-20.15 0.17-27.85s-20.15-7.802-27.85-0.17l-24.763 24.458-24.458-24.763c-7.599-7.7-20.15-7.768-27.85-0.17s-7.802 20.15-0.17 27.85l24.458 24.763-24.763 24.458c-7.7 7.599-7.802 20.15-0.17 27.85zM317.372 664.032v0zM318.051 559.111v0zM213.13 558.433v0zM164.554 282.309c-26.764-86.060-164.521-161.638-164.521-250.242 0-28.528 34.465-42.775 54.614-22.626l49.831 37.077c13.331 9.905 31.988 7.972 43.013-4.41l85.89-96.711c12.517-12.483 32.769-12.483 45.252 0 113.265 111.162 83.855 108.414 210.723 0 12.517-12.483 32.769-12.483 45.252 0l85.89 96.711c11.025 12.381 29.682 14.349 43.013 4.41l49.831-37.077c20.15-20.15 54.614-5.868 54.614 22.626 0 89.248-133.822 163.673-158.958 250.106-4.647 0.441-11.466 1.086-21.54 1.9-31.48 2.612-94.506 7.361-130.328 10.278-35.855 2.917-44.506 3.969-48.848 4.478s-4.342 0.509-4.342 0.509 0 0 7.191-13.094 21.574-39.282 30.631-55.835c9.057-16.554 12.789-23.474 16.35-30.394s6.954-13.874 9.871-20.15c2.917-6.276 5.326-11.839 7.191-16.486 1.9-4.647 3.223-8.345 4.376-11.974s2.103-7.225 2.748-10.55c0.645-3.324 1.018-6.411 1.086-9.125 0.102-2.748-0.102-5.122-0.678-7.599s-1.526-5.020-2.578-7.090c-1.086-2.069-2.307-3.63-4.071-5.122-1.798-1.493-4.138-2.917-6.309-3.765-2.171-0.882-4.105-1.221-6.615-1.153-2.51 0.034-5.529 0.475-8.107 1.357s-4.681 2.205-6.547 3.867c-1.866 1.662-3.46 3.697-4.885 5.835s-2.612 4.444-4.172 7.802c-1.56 3.358-3.46 7.836-5.292 12.178-1.832 4.376-3.596 8.65-6.513 15.536-2.951 6.886-7.090 16.35-11.432 25.611s-8.921 18.352-13.263 26.527c-4.342 8.175-8.514 15.502-12.958 22.999-4.444 7.531-9.193 15.265-13.026 20.998s-6.717 9.464-9.43 12.212c-2.714 2.748-5.224 4.512-7.632 5.767-2.408 1.221-4.647 1.934-7.565 2.544-2.883 0.611-6.411 1.119-9.227 1.391-2.849 0.237-4.987 0.237-6.377-0.102s-2.035-0.95-2.849-2.103c-0.78-1.153-1.73-2.917-4.613-8.616s-7.7-15.367-12.687-26.459c-4.987-11.092-10.21-23.61-14.281-34.465s-7.056-20.014-9.498-28.935c-2.408-8.955-4.308-17.673-6.208-27.85-1.934-10.177-3.901-21.88-5.801-32.26s-3.731-19.437-5.36-25.374c-1.628-5.936-3.053-8.684-4.546-10.753s-3.053-3.426-4.987-4.478c-1.9-1.086-4.138-1.866-6.479-2.341s-4.783-0.611-7.395-0.271c-2.612 0.339-5.36 1.119-7.632 2.137-2.273 1.052-4.037 2.341-5.563 3.935s-2.782 3.46-3.799 5.699c-1.018 2.239-1.73 4.817-2.171 7.734s-0.577 6.208-0.271 11.432c0.339 5.224 1.119 12.415 2.917 22.694s4.647 23.644 8.854 39.926c4.206 16.283 9.77 35.448 15.468 52.341s11.533 31.547 16.35 42.911c4.851 11.364 8.718 19.471 12.415 27.104 3.731 7.632 7.327 14.756 9.091 18.352 1.798 3.562 1.798 3.562 1.798 3.562s0 0-4.851-0.611-14.552-1.866-25.17-3.324c-10.651-1.459-22.219-3.155-35.041-5.326-12.789-2.171-26.798-4.749-39.756-7.361-12.517-2.51-24.051-5.054-30.19-6.411z" />
<glyph unicode="&#xe912;" glyph-name="cog" horiz-adv-x="987" d="M403.697 885.787c69.496 11.215 110.105 11.356 180.471-0.014l0.295-111.312c70.703-17.616 103.114-52.736 147.050-84.123l94.805 53.972c24.845-16.606 82.298-116.365 90.622-155.823-11.215-10.949-79.21-43.163-94.341-56.189 2.499-28.551 9.306-53.27 9.461-84.277 0.154-30.993-7.271-55.867-9.854-84.923l94.734-55.516c-4.843-23.638-26.782-66.17-37.984-85.077-11.552-19.539-39.345-60.822-52.863-71.125l-94.875 53.887c-20.059-14.907-41.521-35.892-66.633-49.325-22.515-12.044-53.943-27.779-80.319-34.306l-0.028-107.929c-4.969-8.717-31.106-8.717-41.886-9.84-20.648-2.162-135.624-4.969-139.54 9.84l-0.197 107.901c-65.819 16.114-97.977 47.29-147.064 84.165l-94.805-54.028c-25.996 18.22-82.536 116.786-91.085 156.595l94.749 55.417c-1.376 27.077-9.349 53.073-9.475 84.291-0.14 31.26 8.212 57.102 9.896 84.909l-94.734 55.53c5.081 26.066 26.459 64.289 37.913 85.133 10.107 18.402 40.538 62.59 52.947 71.040l94.875-53.845c45.353 35.204 85.372 68.71 146.895 83.617l0.955 111.34zM249.377 771.247c-32.439 10.935-82.775 66.787-122.401 34.727-23.147-18.739-60.92-74.058-76.122-98.974-12.479-20.466-49.971-97.037-50.813-124.956-1.502-49.438 58.070-54.772 91.787-84.319-1.839-37.843-2.077-61.439-0.014-99.395-28.705-25.35-93.429-36.018-91.773-84.291 1.684-49.227 81.694-189.329 127.272-223.663 42.11-31.723 87.562 22.81 122.078 34.432 14.57-9.25 26.572-18.571 42.377-27.624 6.232-3.579 43.388-18.922 44.89-25.14 0-48.216-9.84-100.686 27.049-119.046 45.325-22.557 214.637-22.824 259.597 0.112 37.113 18.936 27.161 70.324 27.161 118.934 1.488 6.26 38.601 21.547 44.876 25.154 15.763 9.054 27.835 18.388 42.405 27.61 34.643-11.679 79.701-66.127 122.036-34.39 12.717 9.531 31.063 33.716 41.619 47.023 29.66 37.38 84.74 136.073 85.639 176.597 0.66 29.59-17.518 40.594-36.187 51.038-14.668 8.198-41.816 26.375-55.417 31.232-0.098 16.69 2.625 34.124 2.583 51.74-0.042 17.56-2.653 35.050-2.583 51.754 12.703 4.45 43.009 23.82 56.793 31.976 18.304 10.822 36.847 22.319 34.713 52.456-3.439 48.385-81.568 187.869-128.142 222.582-40.131 29.884-88.067-24.27-121.039-35.527-22.838 13.7-38.84 26.389-65.047 39.486-10.598 5.306-20.62 6.288-22.234 13.293 0 48.202 9.756 100.293-27.091 118.976-44.834 22.74-214.356 22.571-259.625 0.042-37.057-18.444-27.077-70.521-27.077-119.018-3.088-6.303-2.485-4.744-10.149-8.043-34.236-14.753-46.378-25.701-77.132-44.735zM472.155 578.507c38.349 6.682 80.417-6.962 102.132-25.982 97.795-85.597 45.521-215.83-58.449-234.85-79.013-14.444-141.688 43.43-152.749 107.985-13.686 79.912 43.781 141.463 109.066 152.847zM476.548 645.477c-113.881-12.395-190.381-106.455-180.598-215.914 9.18-102.778 101.458-190.831 216.364-179.194 102.244 10.359 189.188 100.237 178.843 215.676-8.984 100.279-101.949 191.715-214.595 179.433z" />
<glyph unicode="&#xe913;" glyph-name="other_files" horiz-adv-x="768" d="M739.714 764.029l-167.813 167.813c-17.97 17.97-42.449 28.158-67.776 28.158h-408.072c-52.919-0.141-95.934-43.156-95.934-96.217v-831.85c0-52.919 43.015-95.934 95.934-95.934h575.885c52.919 0 95.934 43.015 95.934 95.934v664.036c0 25.328-10.188 49.948-28.158 68.059v0zM664.156 703.894h-152.107v152.107l152.107-152.107zM96.053 32.075v831.85h319.92v-207.998c0-26.601 21.366-47.967 47.967-47.967h207.998v-575.885h-575.885z" />
<glyph unicode="&#xe914;" glyph-name="pdf" horiz-adv-x="768" d="M739.644 764.051l-167.771 167.771c-17.995 17.995-42.401 28.199-67.797 28.199h-408.12c-52.976-0.206-95.975-43.185-95.975-96.181v-831.823c0-52.996 42.999-95.975 95.975-95.975h575.89c52.976 0 95.975 42.999 95.975 95.975v664.053c0 25.395-10.204 49.987-28.199 68.003v0zM664.056 703.861h-152.187v152.166l152.187-152.166zM95.957 31.995v831.823h319.937v-207.966c0-26.591 21.396-47.987 47.987-47.987h207.966v-575.89h-575.89zM596.259 319.343c-24.385 23.994-93.975 17.398-128.77 12.986-34.383 21.005-57.387 49.987-73.589 92.574 7.792 32.198 20.201 81.195 10.801 111.971-8.39 52.399-75.588 47.184-85.194 11.811-8.802-32.198-0.804-76.99 13.996-134.171-19.995-47.802-49.801-111.971-70.786-148.765-39.99-20.593-93.975-52.378-101.973-92.388-6.596-31.6 51.986-110.383 152.166 62.396 44.792 14.8 93.584 33.002 136.768 40.196 37.784-20.386 81.979-33.991 111.579-33.991 50.976 0 55.985 56.398 34.981 77.382v0zM200.136 163.775c10.204 27.395 48.997 58.974 60.788 69.982-37.99-60.603-60.788-71.383-60.788-69.982zM363.31 544.892c14.8 0 13.399-64.189 3.607-81.587-8.802 27.787-8.596 81.587-3.607 81.587zM314.518 271.747c19.397 33.785 35.991 74.001 49.389 109.373 16.594-30.198 37.784-54.378 60.19-70.992-41.597-8.596-77.794-26.199-109.58-38.402v0zM577.666 281.745c0 0-9.997-11.997-74.578 15.604 70.188 5.195 81.793-10.801 74.578-15.604z" />
<glyph unicode="&#xe915;" glyph-name="people_solid" horiz-adv-x="1463" d="M219.436 521.149c80.678 0 146.299 65.596 146.299 146.299 0 80.678-65.596 146.274-146.299 146.274-80.678 0-146.274-65.596-146.274-146.274s65.596-146.299 146.274-146.299zM1243.429 521.149c80.678 0 146.299 65.596 146.299 146.299 0 80.678-65.596 146.274-146.299 146.274-80.678 0-146.274-65.596-146.274-146.274s65.596-146.299 146.274-146.299zM1316.566 448.012h-146.299c-40.227 0-76.583-16.23-103.076-42.524 92.114-50.514 157.485-141.729 171.643-250.049h150.868c40.451 0 73.137 32.686 73.137 73.137v73.137c0 80.678-65.596 146.274-146.274 146.274zM731.42 448.012c141.48 0 255.992 114.512 255.992 255.992s-114.512 255.992-255.992 255.992c-141.48 0-255.992-114.512-255.992-255.992s114.512-255.992 255.992-255.992zM906.959 374.875h-18.977c-47.543-22.848-100.354-36.581-156.587-36.581s-108.794 13.709-156.587 36.581h-18.977c-145.375 0-263.308-117.933-263.308-263.308v-65.846c0-60.577 49.141-109.718 109.718-109.718h658.283c60.577 0 109.718 49.141 109.718 109.718v65.846c0 145.375-117.933 263.308-263.308 263.308zM395.649 405.514c-26.518 26.293-62.849 42.524-103.076 42.524h-146.299c-80.678 0-146.274-65.596-146.274-146.274v-73.137c0-40.451 32.686-73.137 73.137-73.137h150.619c14.408 108.345 79.779 199.535 171.893 250.049z" />
<glyph unicode="&#xe916;" glyph-name="permission" horiz-adv-x="897" d="M65.867 24.426c-4.028 16.974-1.028 322.174-1.278 377.958-0.111 25.614 5.556 43.449 30.059 45.783l682.796 0.194c73.814 0.056 55.062-22.419 55.062-173.352l0.028-227.608c0.222-60.034-34.92-47.005-105.206-47.005h-607.649c-26.197-0.028-48.339 1.056-53.811 24.030zM192.603 511.979c0 113.457-11.974 191.299 46.338 274.335 37.615 53.617 108.845 110.29 210.69 109.29 102.622-1.028 169.713-54.978 209.384-110.512 55.728-77.981 45.533-166.657 47.45-273.113h-513.861zM128.679 511.979c-54.339 0-79.953-3.417-106.123-35.476-28.559-34.976-21.836-70.869-21.836-122.152 0-96.066 0-192.104 0-288.17 0-55.423 2.445-78.953 35.698-108.29 29.92-26.392 76.953-21.141 122.958-21.141 191.41 0 382.819 0 574.229 0 50.617 0 87.287-6.584 124.597 19.419 12.779 8.918 23.725 23.697 30.837 40.227 9.195 21.308 7.417 41.477 7.417 65.59 0 96.038 0 192.104 0 288.17 0 48.7 6.167 90.621-19.891 124.152-25.697 33.031-51.811 37.671-106.706 37.671-12.612 43.032 29.753 196.577-65.729 318.173-30.114 38.337-57.256 64.951-102.317 89.815-148.099 81.759-319.729 31.17-408.822-87.621-74.703-99.594-64.285-178.269-64.285-320.396zM435.434 325.459c-19.669-7.167-26.947-19.585-26.864-44.116 0.056-24.169-3.556-123.069 4.473-138.932 16.835-33.198 74.869-30.087 75.536 23.891 0.278 23.475 2.945 123.347-4.25 139.126-7.029 15.363-25.781 28.448-48.866 20.030z" />
<glyph unicode="&#xe917;" glyph-name="permission_solid" horiz-adv-x="896" d="M527.342 166.069c-7.517-55.391-72.008-92.384-125.288-55.391-19.123 13.254-33.762 34.158-34.092 69.964-0.198 27.761-2.77 78.074 0.659 103.462 12.265 91.197 157.467 93.109 159.314-15.628 0.462-26.574 2.638-78.272-0.659-102.407zM591.964 511.6h-286.976c-1.912 106.891-19.585 203.626 59.017 261.457 20.244 14.903 50.907 25.915 82.954 26.574 63.106 1.253 113.946-42.334 131.948-83.943 20.31-46.95 13.056-146.192 13.056-204.088zM143.103 511.666c-54.27-0.659-85.855 1.253-116.716-29.476-30.135-30.003-26.245-68.974-26.245-119.881 0-97.461 0-194.856 0-292.317 0-33.3-3.363-75.634 26.047-103.462 38.576-36.531 69.7-30.135 132.608-30.135 194.197 0 388.327 0 582.524 0 47.544 0 93.768-3.495 122.057 24.069 32.971 32.113 32.377 55.522 32.377 111.572 0 97.461 0 194.856 0 292.317 0 55.588 4.616 84.141-27.629 118.43-28.684 30.531-63.699 28.157-115.265 28.816-13.518 62.248 30.597 199.802-57.764 320.144-89.812 122.255-257.236 168.414-396.702 88.295-43.983-25.255-71.216-52.028-98.582-89.284-87.504-119.222-43.257-256.445-56.709-319.155z" />
<glyph unicode="&#xe918;" glyph-name="cogs2" horiz-adv-x="1279" d="M719.172 515.25c13.827-93.576 10.869-62.384 0-150.407 13.249-7.46 26.883-15.907 40.882-23.732l40.839-24.718c-10.312-36.894-65.149-117.393-84.357-128.991l-81.206 46.777c-24.096-17.879-31.085-27.655-59.661-44.398-33.164-19.423-55.031-22.574-70.937-31.449l-0.279-95.055c-92.611-10.697-56.896-9.24-150.514-0.622l0.043 95.677c-33.443 16.657-69.415 20.73-114.949 62.855-5.081 4.695-8.789 7.825-15.585 12.241-13.291-5.981-27.719-15.178-40.56-22.788-14.085-8.339-27.247-15.521-40.925-23.431-19.101 13.613-68.065 93.168-75.375 129.162l81.742 47.57c-13.356 97.049-11.105 58.761-0.129 151.929l-81.571 46.691c4.009 27.076 34.172 77.069 50.314 100.607 7.61 11.083 17.793 20.387 22.66 29.713 16.078-4.137 70.059-42.811 86.566-46.606 16.914 20.516 56.403 46.113 88.002 59.918 43.733 19.101 40.239 6.045 39.896 32.157-0.343 25.039-0.043 50.25-0.043 75.311 5.209 13.377 145.219 13.506 150.471 0v-91.26c15.071-10.612 44.569-9.668 101.786-52.458 8.575-6.41 21.245-19.508 28.791-23.41 10.805 4.137 30.463 17.064 41.461 23.324 11.448 6.496 31.449 20.537 42.897 23.174 13.441-23.989 50.936-48.942 82.021-129.462-25.232-17.15-57.067-31.642-82.278-48.321zM289.817 765.707c-42.532-20.752-48.149-28.619-72.631-41.654-28.426 11.083-69.973 56.038-106.203 28.619-41.353-31.278-107.939-147.749-110.855-194.076-3.044-48.299 55.738-55.138 77.669-77.176-0.386-14.363-2.144-27.076-2.101-41.782 0.043-14.17 2.765-28.191 1.608-41.804-45.126-29.434-92.611-36.358-71.645-98.742 20.151-60.004 43.519-101.229 80.091-145.562 41.075-49.8 56.467-42.683 117.586-5.059 16.764 10.312 15.349 7.375 29.391-2.53 8.446-5.96 19.423-12.391 28.727-17.257 7.353-3.859 25.125-9.776 28.898-17.086 0-43.026-8.039-85.601 26.154-103.287 40.024-20.73 187.666-20.859 226.876 0.707 33.443 18.372 25.297 60.883 25.297 104.959 8.875 5.788 25.918 13.013 36.659 18.972 13.206 7.332 25.232 17.901 35.973 22.896 47.377-21.459 80.134-66.757 125.925-9.261 18.972 23.839 30.935 33.743 52.522 66.607 15.371 23.367 47.227 72.395 48.256 107.596 0.75 24.996-14.792 36.787-29.606 46.413-12.327 8.039-37.58 24.996-49.157 29.734 2.401 32.049 0.793 53.659 0.45 84.508 23.624 23.024 77.497 31.235 71.602 79.448-3.259 26.626-33.679 85.815-46.37 106.674-13.806 22.724-47.613 69.951-67.25 85.301-33.722 26.368-76.468-15.907-106.374-28.662-9.047 4.18-23.582 15.735-34.086 21.909-13.056 7.653-25.447 13.227-38.566 19.616 0 45.512 8.125 85.944-25.297 104.723-38.588 21.695-183.228 22.552-226.961 0.75-35.029-17.45-26.626-59.747-26.626-105.474zM959.403 272.661c9.111 7.353 23.431 16.807 37.902 21.030l19.744-35.801c64.528 9.261 27.805 6.839 84.165-0.236l19.894 35.887c14.535-4.245 27.226-13.227 36.744-21.009l-19.315-35.522c3.666-7.825 13.977-17.215 23.71-32.757 6.86-10.976 12.648-26.711 16.443-39.981l42.597-0.643c0.772-7.61 2.744-35.458-0.493-40.282-4.030-5.981-30.163-2.358-38.331-2.358-6.431-1.544-5.209-5.102-9.969-18.201-2.508-6.924-5.895-14.513-9.090-20.151-6.324-11.19-17.129-24.718-25.039-31.106 2.658-11.341 14.085-26.39 19.701-38.095-1.715-2.079-0.9-1.308-3.387-3.451-0.172-0.15-3.173-2.508-3.623-2.83l-29.177-15.156-20.816 34.193c-13.592 1.608-27.633-4.009-41.868-4.030-15.392-0.021-27.162 3.216-41.654 5.359-7.053-11.126-13.913-25.382-21.909-36.058-13.206 7.632-23.732 11.726-36.101 20.494l20.023 36.873c-7.16 12.884-20.044 19.658-31.17 46.005-14.964 35.437 1.501 23.925-52.179 26.454l0.15 42.468 42.554 0.15c10.762 33.7 19.98 50.336 40.753 70.359-3.859 12.027-14.771 26.497-20.259 38.374zM911.768 241.19l-11.298-20.645c-55.138-0.279-69.308-21.288-69.565-77.562-0.279-63.048 18.501-77.798 69.115-77.798 24.010-39.81-0.45-20.473 1.008-55.824 1.672-39.81 65.642-68.536 91.839-72.567 32.478-4.995 42.811 15.242 53.766 28.791l25.618 0.515c17.75-41.739 61.441-30.87 97.949-11.512 72.481 38.416 40.089 71.752 35.351 91.11 5.895 6.003 7.868 12.948 12.284 19.487 48.664 0 60.24 27.869 60.755 75.697 0.515 48.385-9.926 78.784-58.525 79.384-7.203 3.752-14.899 18.822-12.563 25.018 4.073 10.826 10.119 14.428 9.39 30.978-1.779 40.003-68.901 71.473-93.704 74.56-29.22 3.623-41.332-14.792-52.094-31.706l-24.482-0.064c-10.29 15.349-16.1 29.777-42.49 32.157-17.343 1.565-42.725-10.89-55.631-18.158-13.913-7.825-33.379-21.888-40.946-34.258-14.642-23.946-3.602-38.245 4.223-57.603zM959.467 880.356c5.424 7.61 26.347 18.801 37.988 21.974l19.916-35.951c65.642 9.068 25.532 5.724 82.985 0.172l20.687 35.78c14.813-4.116 29.477-13.677 36.873-21.802l-19.68-35.394c12.241-23.41 12.412 0.322 41.010-72.331l42.211-0.686 0.665-41.525-42.875-1.243c-26.497-63.070-7.803-25.575-37.495-67.143-3.537-4.952-0.943-0.15-3.216-5.231l20.023-35.222c-8.532-8.125-23.024-17.6-36.637-21.202l-21.352 35.115c-54.13-4.523-16.7-9.497-83.757 0.386-4.33-11.726-15.285-24.16-19.337-36.037-11.040 2.723-31.278 14.47-37.645 21.438 4.245 12.455 15.757 24.675 19.851 38.095-31.278 29.284-28.898 46.113-41.396 69.994l-41.911 0.064-0.707 43.047c52.372 2.251 38.352-8.918 52.094 24.996 4.073 10.033 8.789 18.008 14.406 25.297 5.016 6.517 14.428 16.443 17.193 22.038l-19.873 35.351zM900.063 828.777c-28.233 0-41.053-1.715-55.181-18.093-18.758-21.759-19.122-96.899 0.172-119.28 14.513-16.829 27.29-17.708 55.652-17.708l11.062-20.88c-6.453-20.43-18.887-29.713-4.781-56.124 12.348-23.11 69.908-52.78 95.741-51.965 24.653 0.793 34.065 16.164 44.076 30.249l24.332-0.3c10.976-15.285 21.309-32.285 50.164-29.52 24.353 2.337 90.038 30.763 94.755 67.936 2.208 17.407-2.079 21.716-7.975 34.15-4.438 9.368 4.866 15.542 8.875 26.454 55.331 0 64.613 36.273 61.333 89.76-4.931 80.156-53.123 57.903-62.855 68.494-0.064 0.086-7.396 13.313-7.546 13.613-6.581 14.964 42.275 47.077-35.372 93.876-33.85 20.409-82.835 36.101-100.221-11.705l-25.618 0.236c-12.863 17.236-21.609 34.708-51.987 31.621-23.367-2.358-90.724-33.186-93.64-73.403-2.637-36.187 23.496-18.544-0.986-57.453zM430.298 338.303c-56.017 0-101.915 46.691-101.036 103.48 0.858 55.952 46.67 100.65 103.073 99.857 55.717-0.772 100.114-45.77 100.136-102.001 0.021-56.317-45.491-101.358-102.172-101.358zM403.694 603.145c-81.463-13.249-152.872-91.389-136.194-190.431 13.634-80.906 91.496-152.401 190.174-136.172 81.356 13.377 153.751 92.289 136.387 191.117-14.406 81.999-91.282 151.629-190.367 135.486zM1040.974 206.139c-83.564-20.151-53.573-142.046 27.333-124.575 82.471 17.815 54.752 144.383-27.333 124.575zM1039.13 814.028c-30.592-8.446-56.274-37.173-46.263-77.133 7.439-29.691 38.481-55.502 76.811-46.456 81.378 19.251 52.372 146.484-30.549 123.589z" />
<glyph unicode="&#xe919;" glyph-name="ccb-view" d="M308.801 350.291c18.698 5.957 41.739-24.696 50.84-33.714 15.182-15.099 28.874-28.585 44.015-43.725 25.027-25.027 5.543-37.603-10.424-53.694-15.058-15.223-28.75-28.75-43.89-43.89-19.898-19.898-166.751-170.887-177.051-174.197-16.050-5.13-24.241 5.295-30.736 11.79-7.818 7.86-14.065 14.189-21.883 22.007-15.14 15.14-28.543 28.998-43.684 44.097-7.074 7.032-17.126 14.478-10.259 30.818 2.772 6.577 15.637 18.077 20.766 23.207 30.612 30.57 209.607 213.289 222.265 217.342zM453.048 639.405c-33.797-24.779-32.184-51.543-59.651-23.662-9.142 9.266-16.919 17.002-26.185 26.061-15.513 15.223-9.142 20.766 3.103 32.804l209.855 210.186c20.518 21.056 23.703 8.232 58.493-25.854 28.998-28.378-7.901-28.461-24.448-58.741 29.122-33.218 91.338-90.015 125.632-124.308 33.383-33.383 96.633-94.069 124.928-125.301 13.113 7.198 27.716 33.756 43.89 34.997 6.95-2.73 46.786-41.988 49.103-47.407 5.378-12.576-10.342-23.248-16.34-29.247l-214.033-212.585c-13.155-6.288-23.372 9.349-29.619 15.637-8.108 8.108-16.547 15.595-24.117 23.993-17.498 19.484 20.353 38.554 29.991 53.694l-250.643 249.733zM703.485 802.971c6.908 22.669 15.802 31.315 7.156 61.058-6.040 20.725-18.946 32.39-29.826 43.311-28.295 28.254-66.353 73.178-121.371 42.236-11.376-6.412-11.128-7.736-19.277-16.257-12.245-12.824-24.158-23.869-36.693-36.486l-147.474-147.184c-26.475-26.061-58.079-50.178-61.43-84.637-4.592-47.034 33.259-74.047 52.578-93.407 11.376-11.417 22.255-23.041 44.263-28.916 28.998-7.736 37.354 1.034 59.982 8.067l58.245-59.444-117.11-116.2c-16.671 16.547-36.031 39.63-75.205 40.54-40.292 0.951-59.486-20.766-76.57-37.727l-171.384-171.342c-17.746-17.746-39.547-36.858-54.894-57.914-17.622-24.2-19.236-62.34-4.385-89.684 10.466-19.277 96.633-105.031 114.297-113.511 28.957-13.982 63.416-12.576 87.946 5.336 22.131 16.133 40.705 37.148 59.238 55.763 19.277 19.36 37.148 37.065 56.466 56.383 22.876 22.917 98.412 95.806 113.511 114.297 12.286 15.099 40.209 32.101 37.851 78.266-2.11 41.367-24.324 54.439-40.54 73.344l117.358 117.4 58.038-59.155c-7.694-22.338-15.389-32.845-7.239-61.43 6.701-23.496 17.457-29.702 30.405-42.732l36.362-36.734c33.756-25.73 73.013-20.146 104.328 10.259l183.918 183.918c26.64 26.64 58.245 50.84 61.265 85.133 4.178 47.117-33.59 72.971-52.784 92.621-10.59 10.838-23.372 23.414-44.18 28.874-27.22 7.115-37.851 0.455-59.982-7.984l-162.821 163.938z" />
<glyph unicode="&#xe91a;" glyph-name="priority" horiz-adv-x="1167" d="M1138.694 763.992l-167.741 167.741c-17.984 17.984-42.397 28.173-67.766 28.173h-408.103c-52.996-0.205-96.008-43.217-96.008-96.213v-141.072h96.008v141.072h319.959v-207.949c0-26.601 21.404-48.004 48.004-48.004h207.949v-575.912h-575.912v106.129c-32.003 0-64.005 0-96.008 0v-106.129c0-52.996 43.012-96.008 96.008-96.008h575.912c52.996 0 96.008 43.012 96.008 96.008v664.056c0 25.37-10.189 49.987-28.173 67.972v0zM341.088 308.159h390.323c25.506 0 46.363-20.856 46.363-46.363v0c0-25.506-20.856-46.363-46.363-46.363h-390.323c-25.506 0-46.363 20.856-46.363 46.363v0c0 25.506 20.856 46.363 46.363 46.363zM194.273 477.267h390.323c25.506 0 46.363-20.856 46.363-46.363v0c0-25.506-20.856-46.363-46.363-46.363h-390.323c-25.506 0-46.363 20.856-46.363 46.363v0c0 25.506 20.856 46.363 46.363 46.363zM46.294 646.376h390.323c25.506 0 46.363-20.856 46.363-46.363v0c0-25.506-20.856-46.363-46.363-46.363h-390.323c-25.506 0-46.363 20.856-46.363 46.363v0c0 25.506 20.856 46.363 46.363 46.363zM1063.064 703.748h-152.15v152.15l152.15-152.15z" />
<glyph unicode="&#xe91b;" glyph-name="process" d="M32.005 383.991c-17.601 0-32.005-14.403-32.005-32.005v-63.997c0-17.601 14.403-32.005 32.005-32.005h224.008v128.006h-224.008zM1010.012 749.993l-195.805 195.994c-9.002 9.002-21.202 14-33.994 14h-12.2v-256h256v12.2c0 12.603-5.011 24.803-14 33.793zM704.016 687.985v272.002h-400.009c-26.603 0-47.994-21.404-47.994-47.994v-528.002h256v130.398c0 28.605 34.598 42.795 54.806 22.6l191.197-192.998c13.195-13.409 13.195-34.8 0-48.007l-191.399-192.796c-20.208-20.195-54.806-5.993-54.806 22.6v130.197h-255.799v-271.99c0-26.603 21.404-48.007 47.994-48.007h671.998c26.603 0 48.007 21.404 48.007 48.007v655.996h-272.002c-26.402 0-47.994 21.605-47.994 47.994z" />
<glyph unicode="&#xe91c;" glyph-name="response_risk" horiz-adv-x="1064" d="M401.683 223.875c62.843 31.067 144.368 86.479 204.663 116.485 70.981 35.314 112.452 35.314 153.922 30.431s82.941-14.649 144.51-32.907c27.388-8.209 58.809-17.975 86.409-19.957 11.96-6.015 26.609-6.157 39.135 0.92 5.52 3.185 10.12 7.36 13.517 12.243 8.563 7.572 14.791 18.824 17.692 34.818 13.375 73.175-41.47 246.346-160.999 364.034-53.855 53.006-120.802 94.759-192.208 127.313l-1.769 3.114-2.265-1.274c-85.984 38.711-178.266 64.187-261.703 79.969-154.276 29.157-278.687 25.406-337.567 4.246-20.664-7.431-33.261-16.985-40.763-27.104-71.689-66.947-86.479-233.183-29.086-406.708 53.572-161.919 153.78-281.306 246.134-305.438-0.92 0.212-1.911 0.495-2.831 0.778l59.517-225.682c20.028-76.006 146.491-44.372 118.184 38.286l-54.421 206.432zM783.976 716.497l-1.84 4.246-0.849 1.911c22.363-15.64 43.24-32.695 62.135-51.237 40.197-39.56 71.972-87.116 95.113-134.036l-3.609 3.68-3.892 3.892-3.963 3.751-3.963 3.68-4.034 3.538-4.034 3.468-4.034 3.397-4.105 3.255-4.105 3.185-4.105 3.114-4.175 3.043-4.175 2.902-4.175 2.831-4.175 2.76-4.175 2.689-4.246 2.618-4.246 2.548-4.246 2.477-4.246 2.406-4.246 2.335-8.492 4.529-4.246 2.194-8.492 4.246-4.246 2.052-8.492 3.963-4.246 1.911-3.68 1.628-0.566 2.689-0.778 3.751-1.698 7.501-0.92 3.751-0.92 3.822-1.982 7.643-2.123 7.643-1.132 3.822-1.132 3.892-1.203 3.892-2.548 7.785-1.345 3.963-2.831 7.926-1.486 4.034-1.557 4.034-3.255 8.209-1.698 4.175-1.769 4.175-1.84 4.175-76.006-33.261 1.557-3.609 1.486-3.538 2.831-6.935 1.345-3.397 1.274-3.326 1.203-3.326 0.708-2.052-0.566 0.212-4.458 1.486-13.588 4.458-18.117 5.662-13.588 4.034-23.354-79.615 16.985-5.095 12.738-4.034 4.175-1.345 20.877-7.077 12.526-4.458 8.209-2.972 12.314-4.671 7.501-2.902 0.212-1.84 1.274-10.403 1.415-13.871 1.415-17.338 0.212-3.468 0.637-10.191 0.283-6.652 0.283-6.511 0.142-6.369 0.142-6.228v-6.015l82.941-0.212v7.077l-0.212 10.828-0.425 11.040-0.142 3.751-0.425 7.501-0.425 7.643-0.071 0.92 2.76-1.698 6.511-4.105 3.185-2.123 3.185-2.194 3.114-2.194 3.114-2.265 3.114-2.335 3.043-2.335 3.043-2.406 2.972-2.477 2.972-2.548 2.972-2.618 2.972-2.689 2.902-2.76 2.902-2.831 2.902-2.972 2.831-3.043 2.831-3.114 2.831-3.255 2.902-3.397 2.902-3.468 2.902-3.609 2.902-3.68 2.902-3.751 2.902-3.892 2.902-3.963 2.902-4.034 2.902-4.175 2.902-4.246 2.902-4.317 2.902-4.388 2.831-4.388c-30.855 9.129-56.969 16.206-80.818 21.655-5.449 1.274-10.828 2.477-16.065 3.538l0.071 0.849 0.142 3.185 0.283 6.511 0.142 6.652 0.142 6.794v3.468l-82.941 0.212v-2.972l-0.142-5.803-0.142-5.662-0.071-1.486c-18.966 1.132-39.277 0.637-63.126-3.043-12.172-1.911-24.911-4.671-38.286-8.492l0.142 2.194 0.142 2.618 0.283 5.378 0.283 5.52 0.142 2.831 0.142 5.662 0.212 8.705v17.904l-0.142 6.086-0.142 6.228-0.425 9.341-82.87-3.963 0.283-5.378 0.354-13.446v-15.64l-0.212-7.643-0.142-4.954-0.142-4.812-0.142-2.406-0.425-7.006-0.142-2.265-0.283-4.388-0.283-4.246-0.142-2.052-0.212-2.052-0.212-1.982-0.425-3.822-0.425-3.68-0.425-3.538-0.425-3.397-0.637-4.883-0.425-3.114-0.283-1.557-0.212-1.486-0.142-1.062c-28.591-15.074-59.941-33.898-91.575-52.935-5.449-3.255-10.898-6.581-16.348-9.837 16.065 79.332 8.492 182.937-26.326 289.515l3.397-0.283 25.76-2.477 3.68-0.425 18.612-2.123 15.003-1.982 15.286-2.265 15.57-2.548 7.926-1.415 4.034-0.708 12.101-2.335 3.751-0.778 0.495-2.335 1.698-7.643 2.972-15.71 0.991-5.378 2.972-18.824 2.123-16.56 1.415-13.8 0.849-11.040 0.425-5.378 0.425-8.068 82.87 3.963-0.283 6.228-0.849 12.455-1.415 15.569-1.769 15.569-1.698 12.455-0.849 6.086-1.486 9.129-0.283 1.486 4.105-1.203 4.246-1.203 23.354 79.615-4.529 1.345-18.117 5.095-18.117 4.812-9.058 2.265-3.043 0.778-0.354 1.062-1.698 5.378-5.945 18.329-2.76 7.855-4.6 12.738-6.935 17.834-6.369 15.286-6.794 15.286-2.406 5.095-75.156-35.172 2.123-4.529 6.935-15.852 6.44-15.852 3.185-8.492-12.455 1.911-16.489 2.265-16.064 1.981-23.566 2.548-3.892 0.354-34.111 3.185-14.861 1.132c-3.68 0.283-7.218 0.142-10.686-0.495-30.147 63.975-67.443 117.83-107.285 157.107 43.381-2.406 92.778-8.28 146.633-18.471 4.317-0.849 8.634-1.698 13.021-2.548l1.062-1.557 2.548-3.538 4.812-7.077 7.218-11.040 6.015-9.554 3.609-5.945 4.812-8.209 6.015-10.615 7.218-13.163 6.015-11.323 7.926-15.852 3.185-6.794 75.156 35.172-4.812 10.191-8.917 17.834-1.345 2.548-5.378 9.908-0.071 0.071c31.421-9.554 62.843-20.664 93.486-33.474l0.637-1.062 10.191-18.117 7.431-13.375 4.812-8.775 4.671-8.634 2.265-4.317 2.265-4.246 2.194-4.246 2.194-4.175 2.123-4.175 2.123-4.105 2.052-4.034 1.982-4.034 1.982-3.963 1.911-3.892 1.84-3.892 1.769-3.822 1.698-3.751 1.698-3.68 1.628-3.609 76.006 33.261zM131.913 838.573c66.664 29.864 162.768-64.683 214.712-211.245s39.984-289.586-26.68-319.45c-66.664-29.864-162.768 64.683-214.712 211.245s-39.984 289.586 26.68 319.45zM281.518 203.989c1.486-0.354 2.972-0.708 4.458-1.062-1.486 0.283-2.972 0.637-4.458 1.062zM286.189 202.857c1.486-0.354 2.902-0.637 4.388-0.92-1.486 0.283-2.902 0.566-4.388 0.92zM290.789 201.866c1.486-0.283 2.902-0.566 4.388-0.778-1.486 0.212-2.902 0.495-4.388 0.778zM295.389 201.088c1.486-0.212 2.972-0.425 4.458-0.637-1.486 0.212-2.972 0.425-4.458 0.637zM370.333 209.934c0.991 0.354 1.982 0.708 2.972 1.132-0.991-0.354-1.982-0.778-2.972-1.132zM373.447 211.137c0.991 0.425 1.911 0.778 2.902 1.203-0.991-0.425-1.911-0.849-2.902-1.203zM376.561 212.411c0.991 0.354 1.982 0.778 2.972 1.203-0.991-0.425-1.982-0.778-2.972-1.203zM379.745 213.755c0.92 0.425 1.911 0.849 2.902 1.274-0.92-0.425-1.911-0.849-2.902-1.274zM383.071 215.171c0.92 0.425 1.769 0.778 2.689 1.203-0.92-0.425-1.769-0.778-2.689-1.203zM386.468 216.657c0.778 0.425 1.628 0.778 2.406 1.132-0.778-0.425-1.628-0.778-2.406-1.132z" />
<glyph unicode="&#xe91d;" glyph-name="offices" horiz-adv-x="933" d="M115.25 802.455h71.147c-1.279-3.105-2.557-6.302-3.745-9.498-1.644-4.475-3.288-8.95-4.749-13.426-1.461-4.384-2.831-8.859-4.019-13.243-1.096-4.11-2.192-8.311-3.197-12.512-0.457-1.918-0.913-3.745-1.279-5.663h-44.478v-758.228h239.926v129.050c0 11.873 9.772 21.645 21.645 21.645h160.285c11.873 0 21.645-9.772 21.645-21.645v-129.050h239.926v758.228h-38.724l-1.461 6.667c-0.274 1.096-0.457 2.283-0.731 3.379l-11.051 44.295h61.648c26.577 0 48.405-21.737 48.405-48.405v-764.164h43.656c12.786 0 23.198-10.412 23.198-23.198v-30.687h-933.217v30.687c0 12.786 10.412 23.198 23.198 23.198h43.656v764.164c0 26.577 21.737 48.405 48.405 48.405zM487.788 930.318l178.095 29.591-53.154-74.252-178.186-29.682 53.246 74.343zM538.751 445.26c3.197 0.913 7.58 2.283 10.777 3.379 3.197 1.005 5.297 1.827 7.489 2.557 2.192 0.822 4.384 1.644 6.484 2.557 2.101 0.822 3.927 1.644 5.845 2.466s3.836 1.735 5.845 2.649c2.009 0.913 4.201 2.009 6.302 3.014s4.019 2.009 5.936 3.105c1.918 1.005 3.745 2.009 5.754 3.197s4.201 2.466 6.484 3.836c2.283 1.37 4.749 2.923 7.124 4.567 2.375 1.553 4.841 3.197 7.124 4.932 2.283 1.644 4.567 3.379 6.941 5.206s4.932 3.836 7.215 5.754c2.283 1.918 4.293 3.653 6.576 5.663 2.192 2.009 4.658 4.201 6.758 6.302s4.019 3.927 5.754 5.754c1.735 1.827 3.471 3.562 5.389 5.754 2.009 2.192 4.293 4.841 6.667 7.58 2.283 2.74 4.658 5.663 6.85 8.494s4.293 5.663 6.119 8.22c1.827 2.557 3.379 4.841 4.932 7.215s3.105 4.841 4.567 7.124c1.37 2.283 2.649 4.475 3.927 6.667s2.466 4.384 3.562 6.484c1.096 2.101 2.101 4.019 3.105 6.028s1.918 3.927 2.831 5.936c0.913 1.918 1.735 3.927 2.649 6.028 0.913 2.192 1.918 4.475 2.74 6.667 0.913 2.192 1.644 4.201 2.466 6.393s1.644 4.567 2.466 7.124c0.822 2.649 1.735 5.571 2.74 8.859 0.913 3.288 1.918 7.032 2.74 10.503s1.553 6.85 2.192 9.955c0.639 3.197 1.187 6.119 1.735 9.59s1.096 7.58 1.461 10.777c0.365 3.288 0.639 5.845 0.822 8.494 0.183 2.74 0.365 5.663 0.548 8.585 0.091 2.923 0.183 5.936 0.183 9.042s-0.091 6.484-0.183 10.046c-0.183 3.653-0.365 7.58-0.639 11.051s-0.548 6.393-0.913 9.224c-0.365 2.831-0.731 5.663-1.187 8.676s-1.096 6.302-1.827 10.046c-0.731 3.653-1.644 7.763-2.101 9.772s-0.457 2.009-0.457 2.009 0 0-8.676-12.147-26.121-36.441-34.797-48.588c-8.676-12.147-8.676-12.147-8.676-12.147s0 0-0.091-1.187-0.365-3.562-0.639-6.119c-0.274-2.649-0.639-5.48-1.005-7.672-0.274-2.192-0.548-3.653-0.822-5.297s-0.639-3.379-1.005-5.115c-0.365-1.827-0.822-3.653-1.279-5.663-0.457-1.918-1.005-3.927-1.644-6.119s-1.37-4.567-2.101-6.85c-0.731-2.375-1.553-4.658-2.375-6.941-0.822-2.192-1.644-4.384-2.557-6.667s-2.009-4.749-3.014-7.032c-1.005-2.283-2.009-4.293-3.288-6.85-1.279-2.466-2.831-5.389-4.201-7.946-1.37-2.466-2.557-4.475-3.836-6.576s-2.649-4.293-3.927-6.119c-1.279-1.827-2.283-3.379-3.745-5.389s-3.288-4.384-5.115-6.667c-1.827-2.283-3.562-4.384-5.389-6.484s-3.745-4.201-5.389-5.936c-1.644-1.827-3.105-3.288-5.023-5.023-1.827-1.827-4.11-3.927-5.845-5.48s-2.923-2.649-4.293-3.745c-1.37-1.187-2.923-2.375-4.475-3.653s-3.288-2.557-5.571-4.201c-2.283-1.644-5.297-3.745-9.133-6.21s-8.494-5.206-12.238-7.306c-3.745-2.101-6.576-3.562-9.498-4.932s-6.028-2.74-9.042-4.019c-3.014-1.279-6.119-2.375-8.768-3.379-2.74-1.005-5.206-1.827-7.489-2.466-2.283-0.731-4.293-1.279-6.85-1.918s-5.48-1.37-7.032-1.735c-1.461-0.365-1.461-0.365-1.461-0.365s0 0 1.644-9.681c1.735-9.681 5.115-29.134 6.758-38.816 1.735-9.681 1.735-9.681 1.735-9.681s0 0 1.827 0.457 5.571 1.279 8.494 2.009c2.831 0.731 4.932 1.279 8.128 2.192zM352.071 465.444c2.192-1.187 4.932-2.649 7.489-3.836 2.466-1.279 4.658-2.283 7.032-3.379s4.932-2.192 7.763-3.379c2.831-1.187 5.845-2.375 8.768-3.471s5.571-2.101 8.037-2.923c2.466-0.822 4.658-1.553 6.85-2.192s4.293-1.279 6.576-1.918c2.283-0.639 4.841-1.279 8.22-2.101 3.288-0.731 7.398-1.644 10.32-2.283 2.923-0.548 4.841-0.913 6.941-1.279s4.384-0.639 6.484-1.005c2.009-0.274 3.836-0.548 5.48-0.731s3.197-0.365 4.658-0.457c1.553-0.183 3.014-0.274 4.475-0.365s2.923-0.183 4.475-0.274c1.553-0.091 3.288-0.183 5.115-0.274 1.918-0.091 3.927-0.091 5.845-0.091 1.827 0 3.562 0 5.297 0s3.562 0.091 6.21 0.183c2.557 0.091 5.936 0.274 7.58 0.365s1.644 0.091 1.644 0.091 0 0-1.735 9.772-5.115 29.317-6.85 39.090c-1.735 9.772-1.735 9.772-1.735 9.772s0 0-1.005 0-3.105-0.091-5.206-0.091c-2.101 0-4.11 0-6.119 0.091s-3.836 0.091-5.663 0.274c-1.827 0.091-3.562 0.183-5.571 0.365s-4.201 0.365-6.21 0.639c-2.009 0.274-3.745 0.457-5.754 0.822-2.009 0.274-4.293 0.731-6.758 1.187s-5.115 1.005-7.306 1.553c-2.192 0.457-3.927 0.913-6.119 1.553s-4.749 1.37-7.124 2.101c-2.375 0.731-4.384 1.37-6.576 2.192-2.192 0.731-4.384 1.553-6.576 2.466-2.101 0.822-4.11 1.644-6.302 2.649-2.192 0.913-4.475 2.009-6.576 3.014s-3.927 1.918-5.663 2.831c-1.735 0.913-3.288 1.735-4.658 2.557-1.37 0.731-2.557 1.461-3.105 1.735-0.548 0.365-0.548 0.365-0.548 0.365s0 0-5.754-8.037-17.262-24.111-23.015-32.057c-5.754-8.037-5.754-8.037-5.754-8.037s0 0 1.187-0.639c1.187-0.731 3.471-2.101 5.389-3.197s3.471-2.009 5.663-3.197zM237.907 596.778c0.731-2.009 1.918-4.932 2.831-7.215 0.913-2.375 1.735-4.201 2.557-6.028 0.822-1.918 1.735-3.836 2.649-5.754s1.735-3.653 2.74-5.663c1.005-2.009 2.101-4.11 3.379-6.484s2.649-4.841 4.201-7.489c1.553-2.649 3.288-5.389 4.567-7.58 1.37-2.192 2.375-3.745 3.379-5.206s1.918-2.831 3.014-4.384c1.096-1.553 2.283-3.197 3.471-4.749s2.283-3.105 3.653-4.841c1.37-1.735 2.831-3.562 4.293-5.297 1.37-1.735 2.74-3.288 3.927-4.749 1.279-1.461 2.375-2.74 3.927-4.384 1.461-1.644 3.288-3.562 5.115-5.48s3.653-3.745 5.663-5.663c1.918-1.918 4.019-3.836 6.21-5.754s4.475-4.019 6.028-5.297c1.553-1.279 2.192-1.918 2.557-2.192s0.365-0.274 0.365-0.274 0 0 5.754 8.037 17.262 24.111 23.015 32.148c5.754 8.037 5.754 8.037 5.754 8.037s0 0-1.37 1.187-4.019 3.653-6.302 5.845c-2.283 2.192-4.11 4.019-6.028 6.119-1.918 2.009-3.927 4.201-5.754 6.393-1.827 2.101-3.562 4.201-5.297 6.393s-3.471 4.475-5.206 6.85c-1.735 2.375-3.379 4.841-4.932 7.306-1.644 2.466-3.105 4.932-4.475 7.215s-2.557 4.475-3.653 6.484c-1.096 2.009-1.918 3.745-3.014 5.936s-2.375 4.932-3.562 7.763c-1.187 2.831-2.466 5.845-3.379 8.22-0.913 2.466-1.644 4.293-2.283 6.393-0.731 2.101-1.461 4.475-1.918 6.119-0.548 1.644-0.822 2.557-0.913 3.014s-0.091 0.457-0.091 0.457 0 0-9.772-1.644-29.226-4.932-38.998-6.576c-9.772-1.644-9.772-1.644-9.772-1.644s0 0 0.365-1.461 1.187-4.475 1.918-7.032c0.731-2.557 1.461-4.749 2.101-6.85 0.639-2.009 1.279-3.927 1.827-5.389 0.548-1.553 0.913-2.649 1.735-4.749zM323.85 883.191c-1.461-1.096-3.471-2.557-5.389-4.11-1.918-1.461-3.745-2.923-5.754-4.567s-4.11-3.471-6.302-5.389c-2.192-1.918-4.384-3.927-6.576-6.028s-4.475-4.293-6.667-6.576c-2.192-2.283-4.475-4.658-6.393-6.758s-3.562-3.927-5.206-5.845c-1.644-1.918-3.288-3.927-4.841-5.845-1.553-2.009-3.105-3.927-4.658-6.028-1.644-2.101-3.288-4.475-4.932-6.758s-3.197-4.658-4.749-7.032c-1.553-2.375-3.014-4.749-4.567-7.306s-3.105-5.297-4.567-7.854c-1.461-2.557-2.74-5.023-3.927-7.398-1.279-2.466-2.466-4.932-3.653-7.398s-2.283-5.023-3.471-7.763c-1.187-2.831-2.466-5.845-3.745-9.407-1.37-3.471-2.74-7.398-3.927-11.051s-2.192-6.941-3.197-10.503c-1.005-3.562-2.009-7.58-2.74-10.503s-1.096-4.841-1.644-7.672c-0.548-2.831-1.187-6.667-1.735-9.864s-0.822-5.663-1.187-8.402c-0.365-2.649-0.639-5.571-0.913-8.494s-0.457-5.936-0.548-8.494c-0.183-2.557-0.183-4.658-0.274-7.489 0-2.831-0.091-6.484 0.091-10.777 0.091-4.293 0.365-9.316 0.639-13.243 0.274-4.019 0.548-6.941 0.731-8.402s0.183-1.461 0.183-1.461 0 0 9.681 1.644 29.134 4.932 38.907 6.576c9.681 1.644 9.681 1.644 9.681 1.644s0 0-0.091 0.913-0.274 2.74-0.365 4.932c-0.183 2.192-0.274 4.749-0.365 7.124s-0.091 4.475-0.091 6.302c0 1.827 0 3.197 0.091 5.389s0.183 5.115 0.457 7.854c0.183 2.74 0.457 5.297 0.731 7.946s0.639 5.389 1.096 8.128c0.457 2.74 0.913 5.48 1.644 8.859s1.644 7.215 2.466 10.229c0.822 3.014 1.37 5.115 2.101 7.398s1.553 4.841 2.375 7.215c0.822 2.375 1.735 4.567 2.649 6.941s2.009 4.841 3.288 7.489c1.279 2.74 2.649 5.663 4.019 8.22 1.37 2.649 2.557 4.932 4.019 7.398s3.014 5.115 4.567 7.58c1.553 2.466 3.105 4.749 4.567 6.85s2.923 4.11 4.475 6.119c1.553 2.009 3.105 4.019 4.749 6.028s3.471 4.019 5.115 5.936c1.644 1.918 3.288 3.562 5.023 5.389s3.653 3.653 5.48 5.389c1.735 1.735 3.379 3.197 5.023 4.658s3.288 2.831 5.023 4.293c1.735 1.461 3.653 2.923 6.028 4.658 2.283 1.735 5.023 3.745 8.22 5.754 3.105 2.101 6.667 4.293 10.229 6.393 3.653 2.101 7.306 4.11 10.32 5.663 2.923 1.553 5.115 2.557 6.21 3.014 1.096 0.548 1.096 0.548 1.096 0.548s0 0 8.859 12.421 26.669 37.263 35.528 49.684c8.859 12.421 8.859 12.421 8.859 12.421s0 0-0.639-0.091-1.918-0.183-3.471-0.365c-1.553-0.183-3.471-0.457-5.389-0.731s-3.927-0.548-5.571-0.822c-1.735-0.274-3.197-0.548-4.658-0.822s-2.923-0.548-4.384-0.822c-1.461-0.274-3.014-0.639-4.384-0.913s-2.74-0.639-4.019-0.913c-1.279-0.274-2.466-0.639-4.841-1.187-2.375-0.639-6.028-1.644-9.042-2.557-3.105-0.913-5.663-1.735-8.037-2.557s-4.658-1.553-7.215-2.557c-2.557-0.913-5.389-2.101-8.128-3.197s-5.389-2.283-7.763-3.379c-2.466-1.096-4.658-2.192-7.398-3.471-2.649-1.37-5.754-2.923-8.585-4.475s-5.571-3.014-8.037-4.567c-2.466-1.461-4.841-2.923-7.672-4.749s-6.119-4.019-8.128-5.48c-2.101-1.37-2.923-2.009-4.384-3.105zM618.756 673.496l-29.591 178.095-53.063-74.343 29.682-178.186 53.063 74.435zM695.657 781.905l-29.591 178.095-53.063-74.343 29.682-178.186 53.063 74.435zM410.979 821.908l178.095 29.591-53.154-74.343-178.186-29.682 53.246 74.343z" />
<glyph unicode="&#xe91e;" glyph-name="risk" horiz-adv-x="768" d="M372.228 959.826c-210.187-6.256-372.237-189.681-372.237-399.955v-527.857c0-28.5 34.495-42.75 54.654-22.591l49.875 37.102c13.294 9.905 31.976 7.994 43.011-4.431l85.934-96.709c12.512-12.512 32.758-12.512 45.27 0l81.416 91.669c12.773 14.337 35.104 14.337 47.876 0l81.416-91.669c12.512-12.512 32.758-12.512 45.27 0l85.934 96.709c11.035 12.425 29.716 14.337 43.011 4.431l49.875-37.102c20.159-20.159 54.654-5.909 54.654 22.591v543.932c0 216.009-178.385 390.31-395.784 383.794zM256.056 511.995c-35.364 0-64.038 28.674-64.038 64.038s28.674 64.038 64.038 64.038c35.364 0 64.038-28.674 64.038-64.038s-28.674-64.038-64.038-64.038zM512.034 511.995c-35.364 0-64.038 28.674-64.038 64.038s28.674 64.038 64.038 64.038c35.364 0 64.038-28.674 64.038-64.038s-28.674-64.038-64.038-64.038z" />
<glyph unicode="&#xe91f;" glyph-name="permission2" horiz-adv-x="1279" d="M766.759 29.254c-1.944 17.098-0.349 159.712-0.349 189.87 0 107.173-9.471 101.739 89.327 101.739 19.69 0 322.565 1.745 334.379-1.097 35.342-8.474 23.229-72.529 23.229-119.385 0-32.002 0-64.005 0-95.957 0-109.815 9.272-103.285-90.573-103.285h-287.921c-30.108 0-64.453-3.689-68.092 28.164zM1085.037 384.469l-190.618 0.050c-2.243 33.149-3.29 108.469 7.677 134.639 31.803 75.669 142.415 75.42 175.215 0.997 10.468-23.827 11.216-105.428 7.726-135.636zM829.866 384.768c-42.769-2.791-56.029 4.137-89.228-19.241-17.347-12.213-35.841-37.884-37.785-71.183-2.592-43.467-0.249-162.903-0.249-214.994 0-36.14-2.293-67.295 13.708-95.608 33.498-59.219 107.173-46.259 168.635-46.259 47.605 0 292.108-3.29 318.478 2.841 28.912 6.779 50.097 25.073 61.811 46.707 15.752 29.111 11.963 58.97 11.963 94.362 0 36.189 0 72.329 0 108.519 0 81.701 13.858 131.897-38.831 176.013-22.83 19.092-53.287 18.543-88.231 18.543-8.574 72.329 14.805 119.834-26.070 182.244-66.447 101.44-209.062 94.611-268.829-0.698-38.433-61.263-19.241-108.269-25.373-181.247zM640.793 319.916c2.991 4.785 7.976 24.376 11.166 32.052 4.885 11.764 11.116 18.693 14.855 28.912-42.371 5.134-63.506 5.982-103.185-7.377-157.12-52.988-222.969 10.418-294.252 11.415-132.645 1.844-233.936-94.312-260.704-201.335-9.521-38.084-8.474-68.192-8.474-108.369 0-41.922-3.589-65.799 17.447-97.303 35.94-53.786 115.846-40.427 191.166-40.427 153.93 0 307.81 0 461.74 0-5.683 10.318-11.664 17.746-17.247 29.311-5.633 11.714-7.029 21.933-12.013 33.847-27.815 2.841-423.955 0.449-480.483 0.449-24.874 0-73.376-5.683-87.632 9.371-18.194 19.191-10.069 138.826 2.343 172.922 35.292 96.954 136.982 159.563 236.528 128.607 188.076-58.471 238.422 8.275 328.646 7.876zM636.756 678.172c-13.309-96.206-101.989-179.303-215.392-163.401-105.827 14.855-178.904 110.313-163.7 216.539 13.708 96.007 103.035 178.405 216.389 162.255 95.807-13.658 178.405-102.038 162.753-215.392zM193.060 678.172c12.362-130.801 132.097-242.51 279.696-228.303 131.698 12.711 242.111 131.349 228.353 280.194-12.113 130.651-132.595 244.105-280.294 228.452-131.598-14.007-241.762-131.449-227.705-280.344zM978.213 223.311c-87.084-18.743-54.982-144.060 26.569-123.971 81.202 19.989 51.493 140.77-26.569 123.971z" />
<glyph unicode="&#xe920;" glyph-name="risk_happened" horiz-adv-x="1001" d="M372.197 959.824c-210.185-6.291-372.2-189.659-372.2-399.925v-527.842c0-28.525 34.464-42.775 54.624-22.614l49.838 37.067c13.314 9.897 31.996 7.972 43.019-4.42l85.902-96.707c12.5-12.5 32.755-12.5 45.256 0l81.441 91.704c12.744 14.344 35.114 14.344 47.845 0l81.441-91.704c12.5-12.5 32.755-12.5 45.269 0l85.888 96.707c11.022 12.392 29.705 14.344 43.032 4.42l49.838-37.067c20.16-20.16 54.624-5.884 54.624 22.614v34.016c-92.030 8.745-176.548 67.002-213.697 158.096-53.187 130.425 10.033 280.739 140.458 333.94 23.468 9.572 48.13 15.605 73.239 17.923l0.014 0.014c-0.027 215.974-178.352 390.299-395.804 383.778zM926.314 610.211l-28.702-68.249 34.789-14.629c12.324-5.193 18.113-19.36 12.88-31.603l-9.599-22.831c20.92-19.848 38.111-44.374 49.703-72.818 43.683-107.119-7.714-229.315-114.834-272.998-107.133-43.696-229.288 7.606-272.971 114.725-43.683 107.133 7.714 229.329 114.847 273.012 28.431 11.592 57.973 16.459 86.796 15.388l9.612 22.831c5.193 12.338 19.36 18.113 31.617 12.893l34.776-14.629 28.715 68.249 22.397-9.355zM970.959 659.412l-22.37-9.138c-6.155-2.508-9.138-9.599-6.616-15.74 2.508-6.155 9.599-9.138 15.74-6.63l22.37 9.124c6.155 2.508 9.138 9.599 6.63 15.754-2.522 6.155-9.599 9.138-15.754 6.63v0zM892.203 692.534c-6.155-2.508-9.138-9.599-6.616-15.754l9.124-22.37c2.508-6.155 9.599-9.138 15.74-6.616 6.155 2.508 9.138 9.599 6.63 15.74l-9.124 22.384c-2.522 6.142-9.599 9.124-15.754 6.616v0zM944.712 654.138l9.382 22.316c2.59 6.169-0.298 13.259-6.467 15.849-6.182 2.59-13.259-0.298-15.849-6.467l-9.382-22.316c-2.59-6.169 0.298-13.246 6.467-15.849 6.264-2.549 13.354 0.339 15.849 6.467zM881.506 628.365c6.169-2.59 13.246 0.298 15.849 6.467 2.59 6.169-0.298 13.246-6.467 15.849l-22.316 9.382c-6.169 2.603-13.246-0.298-15.849-6.467-2.59-6.169 0.298-13.246 6.467-15.849l22.316-9.382zM957.646 622.44c-6.182 2.59-13.259-0.298-15.863-6.467-2.59-6.169 0.298-13.246 6.467-15.849l22.316-9.382c6.169-2.603 13.246 0.285 15.849 6.467 2.59 6.169-0.298 13.246-6.467 15.849l-22.302 9.382zM689.813 314.219c-13.422 32.918 2.413 70.581 35.331 83.99 8.202 3.349 12.188 12.798 8.84 21.001s-12.798 12.175-21.001 8.84c-49.309-20.12-73.117-76.682-52.997-126.005 3.349-8.202 12.798-12.188 21.001-8.84s12.175 12.798 8.84 21.001zM255.98 511.986c-35.345 0-63.992 28.661-63.992 64.006s28.661 64.006 63.992 64.006c35.345 0 64.006-28.661 64.006-64.006s-28.661-64.006-64.006-64.006zM511.99 511.986c-35.345 0-64.006 28.661-64.006 64.006s28.661 64.006 64.006 64.006c35.345 0 64.006-28.661 64.006-64.006s-28.661-64.006-64.006-64.006z" />
<glyph unicode="&#xe921;" glyph-name="permission1" horiz-adv-x="1278" d="M972.007 222.334c79.862 23.175 116.424-97.487 35.677-121.821-81.051-24.425-116.759 98.28-35.677 121.821zM926.389 384.68c-2.043 15.674-0.64 118.223-0.701 143.41-0.061 28.694 1.403 39.824 15.613 58.029 20.949 26.804 68.519 33.268 98.677-2.775 12.075-14.423 13.448-33.756 13.387-57.328-0.091-43.301 3.141-99.5-0.457-141.306h-126.548zM829.603 384.985c-72.971-4.696-127.279 18.479-127.249-90.504 0.030-71.598 0-143.227 0-214.826 0-64.585-15.43-141.703 73.824-141.825h429.713c18.266 0.122 30.28 2.531 42.935 11.283 9.239 6.404 18.753 16.375 23.754 30.463 8.325 23.449 4.178 280.753 4.178 316.979 0.061 99.591-50.771 88.095-127.005 88.095-8.447 70.074 13.082 162.987-14.515 225.102-57.511 129.353-240.623 121.333-291.669-0.884-25.797-61.749-8.081-153.29-13.935-223.882zM655.669-62.139c-20.675 51.351-17.198 41.745-17.198 104.257 0 39.641 0 79.252 0 118.894 0 52.479-8.813 185.217 15.643 220.010-14.423 4.391-39.611 4.513-55.346 3.69-11.008-0.579-30.615-10.215-42.599-14.149-31.713-10.429-61.292-16.283-96.938-17.381-36.531-1.159-68.946 2.714-102.824 11.709-54.614 14.484-35.433 21.345-93.31 19.577-130.329-3.964-227.023-92.639-254.010-200.921-9.239-37.171-8.752-66.445-8.752-105.995 0-40.77-3.751-65.866 15.796-96.786 36.927-58.425 116.485-42.935 184.394-42.935 151.735 0 303.44 0 455.175 0zM193.328 676.197c15.857-130.207 131.061-242.148 281.21-225.865 130.237 14.088 241.965 132.067 226.108 281.667-3.812 36.135-15.155 71.69-31.591 97.853-14.21 22.657-23.754 36.775-41.258 54.675-46.015 47.082-125.084 83.918-208.941 73.794-138.074-16.71-242.758-141.154-225.56-282.125z" />
<glyph unicode="&#xe922;" glyph-name="share" horiz-adv-x="896" d="M703.98 320.012c-45.211 0-86.764-15.664-119.593-41.74l-204.95 128.129c3.002 13.695 4.596 27.671 4.596 41.647s-1.501 28.046-4.502 41.647l204.95 128.129c32.83-26.17 74.382-41.74 119.593-41.74 106.086 0 192.006 85.92 192.006 192.006 0 105.992-85.92 192.006-192.006 192.006s-192.006-85.92-192.006-192.006c0-14.351 1.595-28.233 4.596-41.647l-204.95-128.129c-32.83 26.17-74.382 41.834-119.593 41.834-106.086 0-192.006-85.92-192.006-192.006s85.92-192.006 192.006-192.006c45.211 0 86.764 15.664 119.593 41.74l204.95-128.129c-3.002-13.601-4.596-27.671-4.596-41.647 0 0 0 0 0 0 0-106.086 85.92-192.006 192.006-192.006s192.006 85.92 192.006 192.006c0 105.992-85.92 192.006-192.006 192.006v0z" />
<glyph unicode="&#xe923;" glyph-name="open-pmo" horiz-adv-x="967" d="M518.196 902.11l347.67 57.853-103.702-145.046-347.927-57.89 103.977 145.083zM617.669-44.881c6.25 1.875 14.762 4.522 21.049 6.581s10.332 3.511 14.56 5.092c4.21 1.581 8.603 3.291 12.629 4.927 4.044 1.636 7.739 3.199 11.453 4.816s7.445 3.309 11.435 5.184c3.989 1.875 8.217 3.934 12.262 5.956 4.026 2.022 7.831 4.008 11.545 5.993 3.713 2.004 7.298 3.989 11.214 6.232s8.144 4.743 12.629 7.519c4.467 2.758 9.21 5.791 13.916 8.898s9.376 6.342 13.916 9.578c4.541 3.236 8.953 6.508 13.604 10.093s9.559 7.5 14.008 11.177c4.449 3.677 8.438 7.114 12.813 11.012 4.357 3.897 9.081 8.254 13.273 12.262s7.868 7.648 11.324 11.196c3.456 3.53 6.71 6.949 10.589 11.251 3.897 4.302 8.456 9.449 12.979 14.836s9.045 10.993 13.328 16.527c4.283 5.533 8.309 10.993 11.857 15.975s6.618 9.504 9.688 14.155c3.052 4.669 6.103 9.486 8.861 13.99s5.203 8.695 7.629 12.96c2.427 4.265 4.798 8.622 6.967 12.703s4.118 7.905 6.011 11.747c1.894 3.842 3.75 7.703 5.533 11.545 1.765 3.842 3.474 7.648 5.258 11.839s3.677 8.769 5.386 13.034c1.691 4.283 3.199 8.236 4.743 12.501s3.144 8.842 4.816 13.971c1.673 5.129 3.456 10.828 5.276 17.281 1.838 6.453 3.75 13.641 5.405 20.479s3.088 13.346 4.32 19.487c1.232 6.158 2.261 11.968 3.309 18.806s2.096 14.725 2.849 21.123c0.754 6.397 1.213 11.324 1.618 16.655s0.735 11.067 0.974 16.839c0.239 5.772 0.368 11.563 0.386 17.685s-0.074 12.574-0.349 19.689c-0.276 7.114-0.735 14.872-1.25 21.601-0.533 6.728-1.103 12.446-1.765 18.034s-1.397 11.049-2.335 17.005c-0.938 5.938-2.059 12.372-3.493 19.56s-3.199 15.13-4.063 19.1c-0.882 3.971-0.882 3.971-0.882 3.971s0 0-16.986-23.715-50.959-71.181-67.946-94.896c-16.986-23.733-16.986-23.733-16.986-23.733s0 0-0.202-2.298-0.607-6.875-1.195-11.968c-0.57-5.092-1.305-10.681-1.912-14.964s-1.103-7.225-1.691-10.387c-0.57-3.162-1.232-6.563-1.985-10.074-0.735-3.511-1.563-7.17-2.5-10.975s-1.949-7.758-3.162-12.041c-1.195-4.265-2.574-8.861-4.044-13.42-1.452-4.578-3.015-9.1-4.596-13.475-1.599-4.375-3.217-8.585-5.037-13.071-1.838-4.486-3.897-9.247-5.883-13.641s-3.916-8.438-6.416-13.328c-2.5-4.872-5.552-10.607-8.254-15.424-2.702-4.835-5.019-8.751-7.556-12.813s-5.258-8.291-7.684-11.913c-2.427-3.622-4.522-6.618-7.372-10.497-2.831-3.861-6.416-8.585-9.927-13.016s-6.967-8.585-10.552-12.685c-3.585-4.1-7.28-8.181-10.552-11.655s-6.103-6.361-9.725-9.854c-3.622-3.511-8.034-7.629-11.416-10.718s-5.736-5.129-8.383-7.353c-2.666-2.243-5.625-4.669-8.714-7.133-3.107-2.445-6.324-4.927-10.846-8.199s-10.368-7.353-17.85-12.096c-7.482-4.743-16.6-10.166-23.88-14.266-7.298-4.081-12.777-6.857-18.494-9.559-5.736-2.702-11.71-5.35-17.667-7.795-5.938-2.427-11.857-4.688-17.189-6.581-5.35-1.894-10.148-3.474-14.56-4.835-4.394-1.36-8.401-2.519-13.346-3.787-4.927-1.287-10.791-2.702-13.714-3.401-2.923-0.717-2.923-0.717-2.923-0.717s0 0 3.309-18.935 9.909-56.805 13.218-75.759c3.309-18.935 3.309-18.935 3.309-18.935s0 0 3.64 0.827c3.64 0.846 10.92 2.519 16.527 3.897 5.625 1.36 9.596 2.427 15.847 4.302zM253.142-5.485c4.247-2.28 9.707-5.129 14.56-7.574s9.118-4.486 13.769-6.618c4.651-2.151 9.707-4.375 15.222-6.673s11.49-4.688 17.152-6.82c5.644-2.132 10.957-4.026 15.773-5.662 4.816-1.618 9.118-2.997 13.328-4.302 4.191-1.268 8.309-2.463 12.832-3.713 4.541-1.232 9.523-2.519 15.994-4.026 6.471-1.489 14.413-3.199 20.204-4.375s9.394-1.802 13.475-2.463c4.081-0.662 8.64-1.342 12.648-1.894 3.989-0.552 7.427-0.974 10.644-1.342 3.199-0.368 6.158-0.68 9.137-0.956 2.96-0.276 5.901-0.533 8.769-0.754s5.662-0.404 8.714-0.57c3.052-0.165 6.342-0.331 10.001-0.46s7.703-0.239 11.343-0.276c3.64-0.055 6.912-0.055 10.35-0.018s7.041 0.11 12.115 0.294c5.074 0.202 11.6 0.533 14.872 0.699s3.272 0.165 3.272 0.165 0 0-3.327 19.045c-3.327 19.064-9.982 57.173-13.31 76.237s-3.327 19.064-3.327 19.064 0 0-2.041-0.055c-2.022-0.037-6.103-0.129-10.148-0.147-4.063-0.018-8.107 0.018-11.968 0.129-3.861 0.092-7.519 0.257-11.067 0.46-3.53 0.202-6.967 0.441-10.846 0.79s-8.217 0.809-12.060 1.25c-3.861 0.46-7.243 0.919-11.159 1.526s-8.346 1.36-13.144 2.28c-4.816 0.919-10.001 2.022-14.284 2.978-4.283 0.974-7.666 1.82-11.894 2.96-4.247 1.158-9.339 2.629-13.916 4.026s-8.622 2.739-12.832 4.228c-4.21 1.489-8.603 3.107-12.777 4.743-4.155 1.618-8.089 3.254-12.335 5.111s-8.787 3.934-12.868 5.901c-4.081 1.949-7.703 3.769-11.067 5.533-3.364 1.746-6.471 3.438-9.155 4.927s-4.927 2.794-6.067 3.438c-1.121 0.662-1.121 0.662-1.121 0.662s0 0-11.214-15.663-33.642-47.007-44.874-62.669c-11.214-15.663-11.214-15.663-11.214-15.663s0 0 2.261-1.342 6.765-4.026 10.534-6.214c3.769-2.206 6.82-3.916 11.067-6.177zM30.297 250.91c1.489-3.952 3.677-9.559 5.515-14.137s3.346-8.126 4.982-11.821c1.618-3.695 3.364-7.556 5.092-11.232s3.419-7.17 5.368-11.012c1.93-3.842 4.118-8.052 6.6-12.611 2.482-4.578 5.258-9.523 8.291-14.688s6.306-10.515 8.953-14.744c2.647-4.228 4.669-7.317 6.6-10.203s3.769-5.57 5.864-8.548c2.096-2.96 4.43-6.195 6.728-9.302s4.541-6.085 7.151-9.431c2.61-3.327 5.533-7.004 8.291-10.368 2.739-3.364 5.294-6.379 7.721-9.192s4.725-5.386 7.629-8.585c2.905-3.18 6.434-6.967 10.019-10.681s7.225-7.39 11.030-11.085c3.805-3.695 7.795-7.445 12.041-11.306s8.787-7.831 11.729-10.387c2.941-2.555 4.302-3.677 4.982-4.247s0.68-0.57 0.68-0.57 0 0 11.214 15.663 33.66 47.007 44.874 62.669c11.214 15.663 11.214 15.663 11.214 15.663s0 0-2.61 2.39-7.85 7.17-12.299 11.416c-4.43 4.228-8.070 7.887-11.821 11.857-3.769 3.971-7.629 8.254-11.269 12.446-3.622 4.173-7.004 8.273-10.387 12.556-3.383 4.302-6.784 8.787-10.111 13.42s-6.581 9.394-9.707 14.192c-3.125 4.798-6.103 9.633-8.769 14.155-2.684 4.522-5.037 8.751-7.096 12.574-2.059 3.842-3.842 7.298-5.956 11.674s-4.559 9.651-6.967 15.185c-2.408 5.533-4.743 11.343-6.581 16.067s-3.144 8.401-4.522 12.538c-1.379 4.118-2.831 8.695-3.805 11.857-0.993 3.18-1.489 4.964-1.746 5.846-0.257 0.901-0.257 0.901-0.257 0.901s0 0-19.027-3.217-57.081-9.651-76.108-12.85c-19.009-3.217-19.009-3.217-19.009-3.217s0 0 0.79-2.905c0.79-2.886 2.371-8.677 3.824-13.714s2.776-9.339 4.044-13.31c1.268-3.971 2.482-7.611 3.511-10.571s1.857-5.258 3.346-9.192zM198.084 810.082c-2.813-2.077-6.747-5.037-10.497-7.942-3.769-2.905-7.335-5.772-11.232-9.008-3.897-3.217-8.089-6.784-12.317-10.515-4.21-3.732-8.475-7.611-12.795-11.729-4.32-4.1-8.732-8.438-13.089-12.905-4.357-4.449-8.677-9.045-12.427-13.163-3.769-4.1-6.949-7.739-10.148-11.508s-6.416-7.666-9.504-11.508c-3.088-3.842-6.030-7.648-9.155-11.821-3.107-4.155-6.397-8.677-9.559-13.199s-6.232-9.045-9.229-13.677c-2.997-4.614-5.938-9.302-8.953-14.302-2.978-4.982-6.030-10.24-8.806-15.24s-5.294-9.743-7.721-14.505c-2.427-4.78-4.78-9.578-7.059-14.431s-4.467-9.743-6.802-15.203c-2.316-5.46-4.743-11.453-7.317-18.292s-5.276-14.486-7.611-21.546c-2.335-7.059-4.283-13.512-6.232-20.571s-3.897-14.707-5.258-20.442c-1.379-5.699-2.188-9.468-3.236-15.075-1.066-5.589-2.39-12.997-3.383-19.174s-1.673-11.104-2.298-16.361c-0.625-5.258-1.213-10.81-1.691-16.564-0.496-5.736-0.901-11.655-1.177-16.637s-0.423-9.045-0.515-14.597c-0.074-5.552-0.092-12.629 0.147-21.049s0.735-18.181 1.268-25.939c0.533-7.758 1.103-13.512 1.379-16.398s0.276-2.886 0.276-2.886 0 0 18.972 3.217c18.972 3.199 56.934 9.615 75.906 12.813 18.99 3.199 18.99 3.199 18.99 3.199s0 0-0.165 1.802c-0.147 1.802-0.46 5.386-0.735 9.688-0.276 4.283-0.533 9.247-0.68 13.843-0.147 4.578-0.202 8.769-0.221 12.28 0 3.511 0.037 6.324 0.202 10.571s0.441 9.945 0.827 15.295c0.386 5.368 0.864 10.405 1.471 15.552 0.607 5.166 1.324 10.442 2.188 15.773 0.864 5.35 1.857 10.736 3.254 17.262 1.416 6.508 3.254 14.155 4.761 20.001 1.507 5.864 2.702 9.927 4.136 14.431 1.434 4.486 3.088 9.412 4.725 14.027 1.655 4.614 3.309 8.953 5.147 13.53 1.875 4.578 3.916 9.412 6.342 14.688 2.427 5.294 5.221 11.030 7.813 16.141 2.61 5.111 5.037 9.578 7.813 14.413 2.794 4.835 5.938 10.037 8.99 14.854 3.052 4.835 6.030 9.284 8.934 13.438 2.905 4.173 5.736 8.052 8.714 11.949 2.96 3.916 6.085 7.813 9.357 11.765s6.692 7.923 9.982 11.582c3.272 3.658 6.416 7.004 9.854 10.534 3.438 3.511 7.206 7.225 10.662 10.534 3.474 3.309 6.655 6.195 9.835 9.026 3.199 2.813 6.397 5.533 9.854 8.365s7.17 5.772 11.692 9.155c4.541 3.383 9.872 7.225 15.994 11.306 6.103 4.081 12.942 8.401 20.020 12.519 7.059 4.118 14.339 8.052 20.093 11.030 5.754 2.96 9.982 4.982 12.096 5.975s2.114 0.993 2.114 0.993 0 0 17.354 24.248 52.062 72.725 69.416 96.955c17.372 24.248 17.372 24.248 17.372 24.248s0 0-1.232-0.129c-1.213-0.129-3.677-0.404-6.765-0.772s-6.802-0.827-10.571-1.342c-3.769-0.533-7.592-1.085-10.957-1.636-3.346-0.533-6.232-1.029-9.118-1.544-2.886-0.533-5.754-1.066-8.64-1.636-2.905-0.57-5.809-1.177-8.567-1.783s-5.368-1.195-7.831-1.765c-2.482-0.588-4.853-1.158-9.541-2.408s-11.71-3.18-17.74-4.945c-6.030-1.765-11.049-3.364-15.736-4.927s-9.045-3.088-14.008-4.945c-4.964-1.857-10.534-4.008-15.865-6.195s-10.442-4.375-15.203-6.526c-4.761-2.151-9.21-4.228-14.431-6.82-5.239-2.592-11.251-5.699-16.858-8.732-5.607-3.015-10.791-5.956-15.644-8.824-4.872-2.868-9.431-5.662-14.927-9.229s-11.894-7.868-15.957-10.644c-4.063-2.776-5.754-3.989-8.585-6.085zM773.782 400.644l-57.853 347.651-103.646-145.083 57.89-347.945 103.61 145.359zM923.921 612.312l-57.835 347.67-103.646-145.083 57.89-347.927 103.61 145.359zM368.076 690.424l347.67 57.835-103.702-145.046-347.945-57.89 103.977 145.101z" />
<glyph unicode="&#xe924;" glyph-name="word" horiz-adv-x="768" d="M739.682 764.041l-167.76 167.76c-17.984 17.984-42.377 28.2-67.78 28.2h-408.116c-52.981-0.194-95.979-43.193-95.979-96.174v-831.847c0-52.981 42.998-95.979 95.979-95.979h575.876c52.981 0 95.979 42.998 95.979 95.979v664.087c0 25.403-10.216 49.99-28.2 67.974v0zM664.094 703.835h-152.184v152.184l152.184-152.184zM95.987 31.979v831.847h319.944v-207.962c0-26.607 21.402-48.009 48.009-48.009h207.962v-575.876h-575.876zM536.109 447.903c-11.381 0-21.208-8.002-23.383-18.994-41.173-195.377-40.784-190.755-41.989-206.952-0.388 2.408-0.816 5.205-1.398 8.584-1.593 10.216 0.583-0.388-47.193 198.95-2.602 10.798-12.196 18.411-23.383 18.411h-26.607c-10.992 0-20.586-7.613-23.383-18.178-48.786-197.979-48.009-192.347-49.602-207.379-0.194 2.214-0.388 5.011-1.010 8.39-1.398 10.41-28.2 146.591-38.182 197.979-2.214 11.187-12.002 19.382-23.577 19.382h-33.599c-15.615 0-26.995-14.605-23.383-29.598 16.003-65.177 53.408-218.954 66.382-271.935 2.602-10.798 12.196-18.178 23.383-18.178h50.378c10.992 0 20.586 7.38 23.189 18.178l35.774 142.784c2.991 12.391 5.011 24.005 6.021 34.609l5.788-34.609c0.194-0.816 25.209-100.99 35.774-142.784 2.602-10.604 12.196-18.178 23.189-18.178h49.407c10.992 0 20.586 7.38 23.189 18.178 41.6 163.759 60.4 237.948 68.984 271.935 3.807 15.187-7.613 29.792-23.189 29.792h-31.618v-0.388z" />
<glyph unicode="&#xe925;" glyph-name="boxes" horiz-adv-x="1152" d="M1120.005 384.008h-160.001v-191.99l-64.006 42.598-64.006-42.598v191.99h-160.001c-17.591 0-31.989-14.398-31.989-31.989v-384.007c0-17.591 14.398-31.989 31.989-31.989h448.013c17.591 0 31.989 14.398 31.989 31.989v384.007c0 17.591-14.398 31.989-31.989 31.989zM351.991 511.992h448.013c17.591 0 31.989 14.398 31.989 31.989v384.007c0 17.591-14.398 31.989-31.989 31.989h-160.001v-191.99l-64.006 42.598-64.006-42.598v191.99h-160.001c-17.591 0-31.989-14.398-31.989-31.989v-384.007c0-17.591 14.398-31.989 31.989-31.989zM480.002 384.008h-160.001v-191.99l-64.006 42.598-64.006-42.598v191.99h-160.001c-17.591 0-31.989-14.398-31.989-31.989v-384.007c0-17.591 14.398-31.989 31.989-31.989h448.013c17.591 0 31.989 14.398 31.989 31.989v384.007c0 17.591-14.398 31.989-31.989 31.989z" />
<glyph unicode="&#xe926;" glyph-name="flag-check" horiz-adv-x="935" d="M355.459 434.949c23.247 0 33.687 13.051 45.841 25.286l211.913 211.913c11.746 11.746 23.899 22.023 23.899 44.454 0 20.637-0.408 30.588-19.739 48.696-7.423 6.933-24.47 14.193-37.684 14.193-28.549 0-50.817-27.57-66.314-43.068-21.697-21.697-151.553-154.081-163.38-161.993-12.806 8.565-37.195 35.808-49.919 48.533-30.588 30.588-32.627 41.681-70.393 41.681-26.999 0-51.959-24.96-51.959-51.959 0-35.156 10.278-38.989 32.138-60.849l84.749-84.749c21.86-21.86 25.775-32.138 60.849-32.138zM236.288 257.213v-203.103c0-64.928-53.182-118.11-118.11-118.11v0c-64.928 0-118.11 53.182-118.11 118.11v204.653h-0.082v643.813c0 33.769 30.914 57.424 65.662 57.424h804.012c34.748 0 65.662-23.655 65.662-57.424 0-22.757-17.211-56.771-26.591-80.099l-57.424-144.946c-32.545-83.362-32.872-57.097-12.154-108.974 4.894-12.317 9.299-23.328 14.030-35.156 14.030-35.074 82.057-193.397 82.057-218.764 0-29.772-27.651-57.424-57.424-57.424h-641.529z" />
<glyph unicode="&#xe927;" glyph-name="map-marked" horiz-adv-x="1154" d="M801.868 7.396l-0.762 449.283 288.063 105.674 2.625-454.025-289.926-100.932zM416.938 501.387c0.423-0.423 0.931-0.508 1.101-1.27s0.847-0.931 1.101-1.27l63.929-84.929c11.6-15.072 22.947-28.027 34.801-42.591 53.43-65.707 59.611-71.381 114.311-4.572 12.871 15.749 71.889 85.775 77.054 98.138 5.25-1.609 9.399-3.048 14.649-4.742 9.907-3.133 13.040-2.879 13.040-12.024 0-61.643 2.202-408.64-0.677-440.308l-319.138 112.448-0.169 380.951zM64.776 14l-2.794 450.977c1.778 6.774 64.607 25.741 70.111 27.604 23.878 8.383 48.519 16.596 73.074 25.233s49.704 16.766 72.989 25.233c22.269 8.044 52.583 20.407 74.514 25.402v-448.521l-287.894-106.013zM576.549 400.879c-4.064 5.927-7.959 9.738-13.209 16.003-57.748 68.84-129.975 166.132-164.692 245.133-27.096 61.643-5.843 124.556 28.027 165.454 35.817 43.269 93.65 68.84 151.313 68.671 125.657-0.423 226.674-119.984 176.631-235.565-30.483-70.449-112.533-185.183-165.962-245.98l-12.108-13.802zM341.069 634.411c-6.605-5.673-215.497-76.292-254.278-90.178-32.261-11.516-58.341-15.495-75.106-39.797-16.512-24.048-10.754-72.058-10.754-104.15v-403.559c0-18.12-3.133-37.426 8.298-50.127 19.814-22.015 59.611 1.016 84.082 9.992l252.076 92.888c50.127 18.12 34.632 16.512 85.267-1.439 57.325-20.322 113.803-39.712 171.635-60.458 27.689-9.907 56.478-19.814 84.929-29.975 88.654-31.584 88.993-27.35 181.373 5.589 28.451 10.161 56.732 20.068 85.352 29.551 29.382 9.738 56.563 19.39 85.352 29.636 46.656 16.681 93.819 22.693 109.23 62.151 7.959 20.407 4.234 144.54 4.234 171.297l0.085 345.049c-0.254 55.547-45.386 35.987-64.861 29.213-56.478-19.729-111.262-41.575-167.825-62.151l-126.673-46.91c-28.535-10.584-16.596-9.23-44.708-2.625 11.431 25.656 38.442 57.155 61.728 111.093 29.975 69.348 30.398 136.326-9.907 204.404-114.395 193.566-411.518 155.463-471.045-56.055-17.274-61.304-7.028-89.501 11.431-143.608zM564.525 750.585c-59.526-15.241-37.85-108.637 25.233-92.465 21.677 5.589 40.982 30.398 33.446 59.018-5.673 21.592-29.805 40.728-58.595 33.362z" />
<glyph unicode="&#xe928;" glyph-name="arrow-left" horiz-adv-x="1051" d="M603.882 4.538l-52.005-52.005c-22.024-22.024-57.688-22.024-79.428 0l-455.824 455.54c-22.024 22.024-22.024 57.688 0 79.428l455.824 455.824c22.024 22.024 57.688 22.024 79.428 0l52.005-52.005c22.308-22.308 21.74-58.683-0.995-80.423l-282.475-269.118h673.932c31.118 0 56.268-25.15 56.268-56.268v-75.023c0-31.26-25.15-56.268-56.268-56.268h-673.932l282.475-269.118c23.019-21.74 23.445-58.115 0.995-80.423z" />
<glyph unicode="&#xe929;" glyph-name="angle-up" horiz-adv-x="1586" d="M877.154 925.121l673.755-673.755c46.589-46.589 46.589-121.849 0-167.927l-111.976-111.976c-46.589-46.589-121.849-46.589-167.927 0l-478.109 477.085-477.597-477.597c-46.589-46.589-121.849-46.589-167.927 0l-112.488 111.976c-46.589 46.589-46.589 121.849 0 167.927l673.755 673.755c46.589 47.101 121.849 47.101 168.439 0.512v0z" />
<glyph unicode="&#xe92a;" glyph-name="angle-right" horiz-adv-x="661" d="M638.365 393.621l-435.057-435.057c-30.069-30.069-78.689-30.069-108.434 0l-72.306 72.306c-30.069 30.069-30.069 78.689 0 108.434l308.372 308.372-308.372 308.372c-30.069 30.069-30.069 78.689 0 108.434l71.982 72.929c30.069 30.069 78.689 30.069 108.434 0l435.057-435.057c30.393-30.069 30.393-78.689 0.324-108.758v0z" />
<glyph unicode="&#xe92b;" glyph-name="angle-left" horiz-adv-x="661" d="M22.532 502.395l435.043 435.043c30.083 30.083 78.708 30.083 108.432 0l72.302-72.302c30.083-30.083 30.083-78.708 0-108.432l-308.067-308.704 308.386-308.386c30.083-30.083 30.083-78.708 0-108.432l-72.302-72.62c-30.083-30.083-78.708-30.083-108.432 0l-435.043 435.043c-30.401 30.083-30.401 78.708-0.318 108.751v0z" />
<glyph unicode="&#xe92c;" glyph-name="angle-down" horiz-adv-x="1586" d="M709.052-29.071l-674.024 674.024c-46.635 46.635-46.635 121.975 0 167.988l112.027 112.027c46.635 46.635 121.975 46.635 167.988 0l477.745-477.745 477.745 477.745c46.635 46.635 121.975 46.635 167.988 0l112.027-112.027c46.635-46.635 46.635-121.975 0-167.988l-674.024-674.024c-45.598-46.635-120.939-46.635-167.573 0v0z" />
<glyph unicode="&#xe92d;" glyph-name="ellipsis-v" horiz-adv-x="297" d="M148.868 596.817c-82.381 0-148.817-66.436-148.817-148.817s66.436-148.817 148.817-148.817c82.381 0 148.817 66.436 148.817 148.817s-66.436 148.817-148.817 148.817zM297.685 811.626c0-82.381-66.436-148.817-148.817-148.817s-148.817 66.436-148.817 148.817c0 82.381 66.436 148.817 148.817 148.817s148.817-66.436 148.817-148.817zM297.685 84.817c0-82.381-66.436-148.817-148.817-148.817s-148.817 66.436-148.817 148.817c0 82.381 66.436 148.817 148.817 148.817s148.817-66.436 148.817-148.817z" />
<glyph unicode="&#xe92e;" glyph-name="unit-selection-alt" horiz-adv-x="2195" d="M1875.545 872.866c44.157 0 88.315 0 132.472 0 21.851 0 40.515 1.821 58.543-7.102 53.99-26.859 40.789-88.588 40.789-154.687v-523.059c0-100.515 17.39-164.975-97.328-164.975h-1833.755c-22.306 0-38.877 0.182-55.538 11.29-11.199 7.466-23.126 19.939-28.771 35.326-9.378 25.857-4.643 215.415-4.643 258.661v394.775c0 54.628-13.111 126.736 50.622 146.584 19.484 6.1 167.98 4.188 189.831 3.005 2.822-34.871 0.364-261.575 0.364-315.838 0-53.626-5.827-62.275 42.427-62.275 50.713-0.091 40.606 19.12 40.606 66.281 0 34.78 0 69.468 0 104.248 0 44.248-2.185 173.989 0.364 207.949l282.333-0.91c3.642-87.677 0.182-219.512 0.182-315.292 0-49.984-9.105-62.184 43.247-62.275 17.481 0 33.596 0 38.512 15.751 4.825 15.842-2.913 321.938 1.821 362.727l281.787-0.091c2.185-24.947 0.455-57.814 0.455-83.58v-501.026c-0.091-37.511 4.916-40.88 42.245-40.88 40.606 0 40.88 5.372 40.88 44.886v414.805c0 52.442-3.005 113.989 0.273 165.886l282.333-0.728c3.369-66.464 0.182-141.758 0.182-209.223 0-35.417 0-70.834 0-106.251 0-49.256-8.922-62.184 43.065-62.275 17.754 0 33.414-0.364 38.603 15.569 4.916 15.114-2.458 320.299 1.457 362.909h282.242c2.276-21.396 0.546-272.045 0.546-316.111 0-51.805-6.191-62.275 41.881-62.275 50.986 0 41.153 16.57 41.153 64.278 0 42.792-2.003 294.533 0.728 314.108zM142.669 958.176c-61.729-7.193-98.33-41.426-121.546-79.938-27.86-46.524-20.212-119.452-20.212-179.178 0-134.293 0-268.494 0-402.787 0-66.646-0.819-133.837 0-200.483 0.819-64.096 33.687-106.251 68.649-130.742 51.35-35.963 102.973-28.315 172.896-28.315 569.856 0 1139.622 0 1709.478 0 85.31 0 168.344-12.564 221.97 81.395 27.769 48.71 19.939 118.542 19.939 179.907 0 134.293 0 268.494 0 402.787 0 66.646 0.91 133.929 0 200.483-0.91 62.549-34.415 106.706-69.377 130.378-52.442 35.508-103.61 27.496-172.532 27.496h-1709.478c-29.954 0-71.471 2.276-99.786-1.002z" />
<glyph unicode="&#xe92f;" glyph-name="plan-model" horiz-adv-x="1023" d="M761.027 280.293c17.363 8.977 38.474 21.21 53.765 31.371 6.314-5.426 37.783-62.348 41.532-68.859 13.417-23.874 27.129-46.267 40.546-70.24 13.614-24.17 26.636-47.254 40.447-70.437 26.833-44.985 21.013-28.214 14.304-86.024-7.004-0.592-33.344 11.838-41.138 15.291-13.614 6.018-17.363 20.224-24.466 31.963l-84.248 145.807c-13.614 22.986-29.595 48.339-40.743 71.128zM357.050 314.229c2.664 9.865 30.385 54.357 37.586 66.787l76.553 132.587c7.991 13.417 32.654 64.321 41.927 62.348 6.116-1.282 35.613-56.429 40.348-64.913l114.238-198.782c-18.941-16.277-123.314-27.622-156.165-27.030-37.389 0.691-126.57 11.937-154.488 29.102zM582.468 590.551c22.591 6.412 44.689 27.228 54.751 31.568l145.807-253.534c-5.919-7.103-42.42-26.932-54.751-31.963l-145.807 253.928zM71.553 16.006c-1.381 11.641-7.3 43.604-4.735 52.778l149.161 258.762c6.61 11.739 166.030 284.806 169.187 295.066 7.103-3.255 9.273-5.919 15.094-9.964 10.457-7.399 28.51-18.744 40.546-22.098-3.946-10.852-78.526-137.52-86.123-150.739-28.806-49.819-57.612-99.046-86.517-149.851-28.51-50.016-57.612-98.75-86.517-149.851-14.6-25.748-29.201-49.72-43.604-75.567-6.708-12.035-12.134-27.425-25.255-33.245-7.892-3.551-34.035-15.883-41.236-15.39zM488.157 893.41c74.482 17.264 137.816-41.729 148.865-100.526 23.084-123.117-116.014-192.37-201.446-128.148-82.768 62.15-67.576 200.953 52.68 228.674zM530.873 959.408l-32.062 0.592c-117.099-6.018-216.342-129.726-166.622-258.466 10.753-27.82 14.107-19.73 4.439-36.6l-145.017-249.982c-28.708 12.627-83.558 100.526-91.154 103.288-10.654 3.847-36.698-12.726-42.913-17.757-7.892-6.511-8.188-15.488-3.058-24.268 9.766-16.573 28.708-41.434 39.954-54.16 11.444-12.825 19.237-22.591 30.681-34.133l32.752-29.891c-2.368-9.766-47.254-83.854-55.738-98.947-18.448-32.95-37.389-63.827-55.837-96.876-8.977-16.080-19.336-32.851-28.313-49.030-19.829-35.416-20.026-25.353-16.277-55.442 2.861-23.479 5.524-46.169 8.385-69.648 8.583-69.746 30.878-56.429 82.176-35.021 18.744 7.793 35.712 15.192 54.258 23.084 11.542 4.933 17.067 4.439 23.578 16.080l152.811 264.977c24.761-6.018 43.703-16.573 87.504-25.452 33.048-6.708 65.702-10.062 100.92-10.654 52.384-0.987 99.046 6.116 148.174 20.125 13.811 3.946 29.694 9.964 42.913 12.923 3.255-10.26 45.577-80.302 55.146-97.467l83.459-144.425c14.403-25.649 9.076-24.959 37.882-37.389 17.363-7.497 35.317-14.995 52.877-22.394 52.187-21.999 72.805-32.16 80.993 37.981 2.565 22.295 5.327 44.689 8.089 67.182 3.354 27.326 4.538 20.519-15.488 54.258l-137.717 239.229c33.443 29.398 72.509 68.957 97.665 107.135 8.385 12.726 24.564 29.299 8.484 42.42-10.358 8.385-35.218 24.663-46.859 14.798-1.578-1.282-60.671-90.858-93.127-106.741-17.955 36.106-60.769 104.373-83.36 144.721l-61.953 107.431c-12.627 22.197-9.668 12.233 0.296 36.304 24.959 60.473 14.107 130.022-18.152 177.967-26.833 39.954-71.424 77.047-140.085 84.347z" />
<glyph unicode="&#xe930;" glyph-name="plan-model-solid" d="M913.997 271.216c-50.089-40.66-105.229-74.333-165.083-98.073l108.764-188.401 107.922-46.048c19.615-8.418 41.755 4.378 44.364 25.592l14.059 116.509-109.943 190.422zM998.937 460.291c9.681 15.321 3.788 35.946-12.122 44.785l-56.15 31.148c-14.985 8.334-33.252 2.946-42.512-11.449-82.247-127.032-223.758-204.733-376.213-204.733-47.816 0-94.453 8.502-138.817 23.066l134.693 233.355c1.431-0.084 2.694-0.421 4.041-0.421 1.431 0 2.694 0.337 4.041 0.421l102.198-177.037c62.464 17.931 119.119 51.52 165.251 97.82l-103.545 179.394c14.9 27.275 24.16 58.086 24.16 91.338 0 106.070-85.951 192.021-192.021 192.021s-192.021-85.951-192.021-192.021c0-33.252 9.26-64.063 24.076-91.338l-136.629-236.638c-25.086 23.234-47.9 49.163-67.346 78.037-9.597 14.227-27.949 19.194-42.765 10.691l-55.476-32.158c-15.658-9.092-21.298-29.801-11.28-44.954 31.148-47.311 69.367-88.392 111.963-124.001l-142.522-246.908 14.059-116.509c2.525-21.214 24.75-34.010 44.364-25.592l107.922 46.048 141.596 245.225c64.4-24.497 133.346-37.882 204.143-37.882 198.082 0 381.769 102.030 486.998 268.291zM511.94 831.958c35.357 0 63.979-28.622 63.979-63.979s-28.622-63.979-63.979-63.979c-35.357 0-63.979 28.622-63.979 63.979s28.622 63.979 63.979 63.979z" />
<glyph unicode="&#xe931;" glyph-name="action-required" d="M512.014 960c-282.778 0-512.014-229.235-512.014-512.014s229.235-512.014 512.014-512.014c282.778 0 512.014 229.235 512.014 512.014s-229.235 512.014-512.014 512.014zM814.073 532.724v0c10.681-10.681 10.681-27.99 0-38.671l-141.786-141.786c-10.681-10.681-27.99-10.681-38.671 0l-25.772 25.772c-10.681 10.681-10.681 27.99 0 38.671l6.436 6.436-45.108 45.108-92.324-92.324 6.436-6.436c14.242-14.242 14.242-37.329 0-51.571l-130.722-130.722c-14.269-14.242-37.329-14.242-51.571 0l-51.571 51.571c-14.242 14.242-14.242 37.329 0 51.571l130.749 130.722c14.242 14.242 37.329 14.242 51.571 0l6.436-6.436 92.324 92.324-45.108 45.108-6.436-6.436c-10.681-10.681-27.99-10.681-38.671 0l-25.772 25.772c-10.681 10.681-10.681 27.99 0 38.671l141.786 141.786c10.681 10.681 27.99 10.681 38.671 0l25.772-25.772c10.681-10.681 10.681-27.99 0-38.671l-6.436-6.436 128.887-128.914 6.436 6.436c10.681 10.681 27.99 10.681 38.671 0l25.772-25.772zM512.014 816.077c203.272 0 368.064-164.792 368.064-368.064 0-203.299-164.792-368.064-368.064-368.064-203.299 0-368.064 164.792-368.064 368.064s164.792 368.064 368.064 368.064z" />
<glyph unicode="&#xe932;" glyph-name="sort" horiz-adv-x="736" d="M61.846 365.704h612.117c55.065 0 82.497-66.678 43.651-105.524l-306.159-306.159c-24.228-24.228-63.274-24.228-87.102 0l-306.359 306.159c-38.846 38.846-11.413 105.524 43.651 105.524zM717.815 635.82l-306.159 306.159c-24.228 24.228-63.274 24.228-87.102 0l-306.359-306.159c-38.846-38.846-11.413-105.524 43.651-105.524h612.117c55.065 0 82.497 66.678 43.651 105.524z" />
<glyph unicode="&#xe933;" glyph-name="sort-down" horiz-adv-x="1754" d="M147.557 959.989h1458.846c131.115 0 196.742-158.703 104.223-251.362l-729.423-729.423c-57.685-57.685-150.761-57.685-207.75 0l-730.12 729.423c-92.519 92.519-27.031 251.362 104.223 251.362z" />
<glyph unicode="&#xe934;" glyph-name="sort-up" horiz-adv-x="1754" d="M1606.466-64.004h-1458.917c-131.162 0-196.774 158.767-104.215 251.326l729.474 729.474c57.622 57.622 150.808 57.622 207.803 0l729.474-729.474c93.154-92.559 27.605-251.326-103.588-251.326z" />
<glyph unicode="&#xe935;" glyph-name="plus" d="M950.851 557.709h-329.142v329.142c0 40.388-32.761 73.149-73.149 73.149h-73.149c-40.388 0-73.149-32.761-73.149-73.149v-329.142h-329.142c-40.388 0-73.149-32.761-73.149-73.149v-73.149c0-40.388 32.761-73.149 73.149-73.149h329.142v-329.142c0-40.388 32.761-73.149 73.149-73.149h73.149c40.388 0 73.149 32.761 73.149 73.149v329.142h329.142c40.388 0 73.149 32.761 73.149 73.149v73.149c0 40.388-32.761 73.149-73.149 73.149z" />
<glyph unicode="&#xe936;" glyph-name="unit-selection-solid" horiz-adv-x="2304" d="M2176.087 959.993h-192.003v-351.977c0-17.671-14.358-32.029-32.029-32.029h-63.973c-17.671 0-32.029 14.358-32.029 32.029v351.977h-255.975v-351.977c0-17.671-14.358-32.029-32.029-32.029h-63.973c-17.671 0-32.029 14.358-32.029 32.029v351.977h-255.975v-351.977c0-17.671-14.358-32.029-32.029-32.029h-63.973c-17.671 0-32.029 14.358-32.029 32.029v351.977h-255.975v-351.977c0-17.671-14.358-32.029-32.029-32.029h-63.973c-17.671 0-32.029 14.358-32.029 32.029v351.977h-255.975v-351.977c0-17.671-14.358-32.029-32.029-32.029h-63.973c-17.671 0-32.029 14.358-32.029 32.029v351.977h-192.003c-70.684 0-128.030-57.346-128.030-128.030v-768.011c0-70.684 57.346-128.030 128.030-128.030h2048.056c70.684 0 128.030 57.346 128.030 128.030v768.011c0 70.684-57.346 128.030-128.030 128.030z" />
<glyph unicode="&#xe937;" glyph-name="toggle-on" horiz-adv-x="1536" d="M1023.954 959.977h-511.918c-282.617 0-512.036-229.3-512.036-512.036 0-282.617 229.3-512.036 512.036-512.036h511.918c282.617 0 512.036 229.3 512.036 512.036 0 282.617-229.3 512.036-512.036 512.036zM1023.954 106.662c-188.807 0-341.278 152.827-341.278 341.278 0 188.807 152.827 341.278 341.278 341.278 188.807 0 341.278-152.827 341.278-341.278 0-188.807-152.827-341.278-341.278-341.278z" />
<glyph unicode="&#xe938;" glyph-name="toggle-off" horiz-adv-x="1536" d="M1023.959 960.031h-512.031c-282.827 0-512.031-229.203-512.031-512.031s229.203-512.031 512.031-512.031h512.031c282.827 0 512.031 229.203 512.031 512.031s-229.203 512.031-512.031 512.031zM170.575 448c0 188.654 152.7 341.354 341.354 341.354s341.354-152.7 341.354-341.354c0-188.654-152.7-341.354-341.354-341.354s-341.354 152.7-341.354 341.354zM1023.959 106.646h-130.434c173.945 194.271 173.945 488.334 0 682.708h130.434c188.654 0 341.354-152.7 341.354-341.354s-152.7-341.354-341.354-341.354z" />
<glyph unicode="&#xe939;" glyph-name="text-area" d="M987.425 960h-950.842c-20.165 0-36.579-16.36-36.579-36.579v-182.842c0-20.219 16.36-36.579 36.579-36.579h73.158c20.219 0 36.579 16.36 36.579 36.579v36.579h274.262v-256h-54.842c-20.165 0-36.579-16.36-36.579-36.579v-73.158c0-20.165 16.36-36.579 36.579-36.579h292.579c20.165 0 36.579 16.36 36.579 36.579v73.158c0 20.165-16.36 36.579-36.579 36.579h-54.842v256h274.262v-36.579c0-20.219 16.36-36.579 36.579-36.579h73.158c20.165 0 36.579 16.36 36.579 36.579v182.842c0 20.165-16.36 36.579-36.579 36.579zM866.98 327.609c-57.831 57.885-98.976 46.471-98.976 10.707v-109.738h-512v109.738c0 32.72-39.569 48.7-62.397 25.872l-182.842-182.842c-6.848-6.848-10.707-16.143-10.707-25.872 0-9.675 3.859-18.969 10.707-25.872l182.842-182.842c21.306-21.306 62.397-9.892 62.397 25.872v109.683h512v-109.683c0-32.72 39.569-48.754 62.397-25.872l182.842 182.842c6.848 6.848 10.707 16.143 10.707 25.872 0 9.675-3.859 19.023-10.707 25.872l-146.262 146.262z" />
<glyph unicode="&#xe93a;" glyph-name="text" d="M147.457 776.16h273.991l0.021-693.194c-97.438 0-128.344 13.872-128.073-54.137 0.437-110.166-15.806-91.656 217.92-91.656 40.494 0 80.987 0 121.481 0 103.033 0 98.624-3.473 98.811 86.894 0.146 71.191-21.255 58.9-128.053 58.9v693.194h274.532c-1.685-112.995-5.615-109.335 85.75-109.563 21.339-0.062 40.597-0.686 52.328 14.891 12.208 16.222 7.154 97.459 7.154 123.81 0 22.524 2.6 116.967-2.725 130.715-12.853 33.131-73.375 22.275-109.168 22.275l-859.827 0.042c-65.701 0.187-49.957-39.37-49.957-148.268 0-107.816-16.514-143.755 54.74-143.485 100.433 0.374 91.074-1.331 91.074 109.584z" />
<glyph unicode="&#xe93b;" glyph-name="selection" horiz-adv-x="1262" d="M1257.235 2.708c8.065 21.684 5.052 101.203-6.81 116.579-17.793 23.065-78.012 14.592-113.065 14.592h-636.431c-38.598 0-91.161 9.163-102.897-24.759-8.19-23.724-7.249-103.713 7.406-119.278 21.119-22.469 79.048-13.18 113.472-13.18h636.431c39.728 0 89.152-8.379 101.924 26.015zM1257.58 398.23c7.531 23.159 4.77 101.234-8.19 115.701-18.295 20.397-80.366 12.772-112.060 12.772h-640.040c-33.734 0-88.619 10.638-99.665-25.199-7.343-23.818-7.28-103.776 8.002-119.435 19.927-20.46 81.182-12.552 113.253-12.552h640.040c40.45 0 86.454-8.849 98.661 28.682zM394.863 869.285c0-61.318-10.324-106.035 48.483-106.035h765.908c60.659 0 50.272 42.678 50.272 106.035 0 36.151-12.929 51.182-50.272 51.182h-765.908c-34.425 0-48.483-16.098-48.483-51.182zM236.045-29.645c4.236 17.479 1.349 91.098 1.381 115.073 0.031 102.552-4.331 87.96-150.031 88.054-104.121 0.063-86.171-10.544-86.234-149.184 0-39.979-6.056-77.855 32.824-85.638 24.414-4.864 89.498-1.475 118.148-1.506 39.853-0.031 74.341-6.213 83.943 33.201zM1.161 908.825v-136.631c0-34.142 15.941-48.483 50.272-48.483h136.631c33.703 0 49.362 16.318 49.362 48.483v136.631c0 33.797-13.651 51.182-49.362 51.182h-136.631c-35.962 0-50.272-15.659-50.272-51.182zM235.763 362.268c4.425 16.538 1.663 91.757 1.663 115.073 0.031 103.65-2.824 88.87-146.454 88.901-105.69 0.031-89.78-5.115-89.811-146.422 0-37.531-5.68-79.236 31.13-87.583 19.487-4.425 90.91-1.349 116.234-1.349 41.454 0 76.914-7.374 87.238 31.381z" />
<glyph unicode="&#xe93c;" glyph-name="locality-selection" horiz-adv-x="768" d="M344.542-43.359c-290.635 421.255-344.53 464.516-344.53 619.32 0 212.035 171.9 384.039 384.039 384.039 212.035 0 384.039-171.9 384.039-384.039 0-154.804-53.895-198.066-344.53-619.32-19.077-27.521-59.837-27.521-78.914 0v0zM384.050 415.945c88.4 0 160.016 71.616 160.016 160.016s-71.616 160.016-160.016 160.016c-88.4 0-160.016-71.616-160.016-160.016s71.616-160.016 160.016-160.016z" />
<glyph unicode="&#xe93d;" glyph-name="integer" d="M1007.303 616.905l16.362 91.459c3.021 16.781-9.901 32.22-27.018 32.22h-171.002l33.395 187.196c3.021 16.781-9.901 32.22-27.018 32.22h-92.885c-13.257 0-24.669-9.565-27.018-22.571l-35.157-196.846h-225.458l33.395 187.196c3.021 16.781-9.901 32.22-27.018 32.22h-92.885c-13.257 0-24.669-9.565-27.018-22.571l-35.157-196.846h-180.819c-13.257 0-24.669-9.565-27.018-22.571l-16.362-91.459c-3.021-16.781 9.901-32.22 27.018-32.22h171.002l-52.274-292.583h-180.819c-13.257 0-24.669-9.565-27.018-22.571l-16.362-91.459c-3.021-16.781 9.901-32.22 27.018-32.22h171.002l-33.395-187.196c-3.021-16.781 9.901-32.22 27.018-32.22h92.885c13.257 0 24.669 9.565 27.018 22.655l35.157 196.846h225.458l-33.395-187.196c-3.021-16.781 9.901-32.22 27.018-32.22h92.885c13.257 0 24.669 9.565 27.018 22.655l35.157 196.846h180.819c13.257 0 24.669 9.565 27.018 22.655l16.362 91.459c3.021 16.781-9.901 32.22-27.018 32.22h-171.002l52.274 292.583h180.819c13.257 0 24.669 9.565 27.018 22.571v0zM598.676 301.75h-225.458l52.274 292.583h225.458l-52.274-292.583z" />
<glyph unicode="&#xe93e;" glyph-name="date" horiz-adv-x="896" d="M0.008 32.038c0-53 42.983-95.983 95.983-95.983h703.966c53 0 95.983 42.983 95.983 95.983v543.976h-895.986v-543.976zM128.022 416.024c0 17.612 14.419 31.976 31.976 31.976h191.966c17.612 0 31.976-14.419 31.976-31.976v-191.966c0-17.612-14.419-31.976-31.976-31.976h-191.966c-17.612 0-31.976 14.419-31.976 31.976v191.966zM800.011 832.041h-95.983v95.983c0 17.612-14.419 31.976-31.976 31.976h-64.007c-17.612 0-31.976-14.419-31.976-31.976v-95.983h-255.972v95.983c0 17.612-14.419 31.976-31.976 31.976h-64.007c-17.612 0-31.976-14.419-31.976-31.976v-95.983h-95.983c-53 0-95.983-42.983-95.983-95.983v-95.983h895.986v95.983c0 53-42.983 95.983-95.983 95.983z" />
<glyph unicode="&#xe93f;" glyph-name="currency" horiz-adv-x="576" d="M418.328 493.187l-216.005 63.208c-25.002 7.208-42.392 30.593-42.392 56.594 0 32.591 26.406 58.997 58.997 58.997h132.6c24.408 0 48.411-7.398 68.394-21.006 12.204-8.207 28.594-6.209 38.99 3.997l69.607 67.989c14.202 13.798 12.204 36.802-3.592 49.005-49.005 38.396-110.191 59.806-172.994 59.996v96.013c0 17.604-14.392 31.996-31.996 31.996h-63.993c-17.604 0-31.996-14.392-31.996-31.996v-96.013h-4.996c-127.39 0-229.802-109.406-218.003-239.199 8.398-92.206 78.789-167.213 167.594-193.215l204.99-59.996c25.002-7.398 42.392-30.593 42.392-56.594 0-32.591-26.406-58.997-58.997-58.997h-132.6c-24.408 0-48.387 7.398-68.394 21.006-12.204 8.207-28.594 6.209-38.99-3.997l-69.607-67.989c-14.202-13.798-12.204-36.802 3.592-49.005 49.005-38.396 110.191-59.806 172.994-59.996v-96.013c0-17.604 14.416-31.996 31.996-31.996h63.993c17.604 0 31.996 14.392 31.996 31.996v96.393c93.206 1.808 180.607 57.213 211.39 145.399 43.011 123.204-29.189 249.619-144.994 283.399v0z" />
</font>
</defs>
</svg>
