<?xml version="1.0" encoding="UTF-8"?>
<!DOCTYPE svg PUBLIC "-//W3C//DTD SVG 1.1//EN" "http://www.w3.org/Graphics/SVG/1.1/DTD/svg11.dtd">
<!-- Creator: CorelDRAW 2020 (64 Bit) -->
<svg xmlns="http://www.w3.org/2000/svg" xml:space="preserve" width="38.0999mm" height="38.0999mm" version="1.1" style="shape-rendering:geometricPrecision; text-rendering:geometricPrecision; image-rendering:optimizeQuality; fill-rule:evenodd; clip-rule:evenodd"
viewBox="0 0 3810 3810"
 xmlns:xlink="http://www.w3.org/1999/xlink"
 xmlns:xodm="http://www.corel.com/coreldraw/odm/2003">
 <defs>
  <style type="text/css">
   <![CDATA[
    .fil0 {fill:none}
    .fil1 {fill:#00A1DD}
    .fil3 {fill:#197394}
    .fil4 {fill:#433F3E}
    .fil2 {fill:#787775}
   ]]>
  </style>
 </defs>
 <g id="Camada_x0020_1">
  <metadata id="CorelCorpID_0Corel-Layer"/>
  <rect class="fil0" x="-0.01" y="-0.01" width="3810" height="3810"/>
  <polygon class="fil1" points="2361.95,70.51 3722.65,70.51 3235.79,557.2 1874.01,557.2 "/>
  <polygon class="fil2" points="1656.04,781.53 3016.75,781.53 2529.89,1268.22 1168.11,1268.22 "/>
  <polygon class="fil3" points="3723.42,1431.22 3723.42,70.51 3236.73,557.37 3236.73,1919.16 "/>
  <polygon class="fil4" points="3017.52,2142.24 3017.52,781.53 2530.83,1268.38 2530.83,2630.17 "/>
  <path class="fil2" d="M1084.49 218.12c-12.04,6.17 -28.87,14.92 -45.02,23.62 -16.16,8.69 -31.65,17.34 -48.52,27.14 -16.87,9.8 -35.14,20.76 -53.59,32.29 -18.45,11.52 -37.09,23.61 -56.16,36.51 -19.08,12.9 -38.59,26.61 -58.02,40.83 -19.43,14.22 -38.78,28.96 -55.68,42.24 -16.89,13.27 -31.33,25.08 -45.91,37.38 -14.58,12.3 -29.29,25.1 -43.47,37.8 -14.18,12.71 -27.82,25.32 -42.31,39.19 -14.49,13.87 -29.84,29 -44.76,44.22 -14.93,15.22 -29.44,30.54 -43.8,46.22 -14.35,15.67 -28.55,31.71 -43.11,48.8 -14.56,17.09 -29.48,35.22 -43.24,52.51 -13.75,17.29 -26.34,33.73 -38.63,50.35 -12.29,16.63 -24.29,33.43 -36.04,50.47 -11.74,17.04 -23.23,34.3 -35.51,53.6 -12.29,19.3 -25.37,40.63 -39.5,65.01 -14.12,24.39 -29.29,51.83 -42.63,77.22 -13.35,25.38 -24.87,48.72 -36.75,74.36 -11.89,25.64 -24.13,53.58 -32.99,74.47 -8.86,20.89 -14.33,34.73 -21.92,55.34 -7.59,20.61 -17.3,48 -25.01,70.87 -7.71,22.87 -13.42,41.23 -19.15,60.83 -5.72,19.61 -11.46,40.46 -16.97,62.01 -5.5,21.56 -10.78,43.83 -14.98,62.63 -4.2,18.81 -7.34,34.15 -11.17,55.29 -3.83,21.13 -8.36,48.05 -12.78,80.25 -4.42,32.2 -8.73,69.68 -11.63,99.57 -2.9,29.89 -4.38,52.18 -5.12,63.33 -0.74,11.15 -0.74,11.15 -0.74,11.15 0,0 0,0 74.3,-0.18 74.3,-0.18 222.9,-0.55 297.2,-0.74 74.3,-0.18 74.3,-0.18 74.3,-0.18 0,0 0,0 0.55,-6.95 0.55,-6.95 1.66,-20.86 3.31,-37.35 1.64,-16.49 3.83,-35.55 6.15,-53.11 2.32,-17.55 4.77,-33.59 6.96,-46.94 2.2,-13.36 4.15,-24.04 7.47,-40.12 3.31,-16.08 8,-37.56 12.85,-57.75 4.86,-20.19 9.86,-39.08 15.42,-58.34 5.56,-19.26 11.68,-38.9 18.33,-58.68 6.65,-19.78 13.84,-39.72 23.35,-63.65 9.52,-23.93 21.36,-51.86 30.84,-73.2 9.48,-21.34 16.61,-36.08 24.88,-52.29 8.27,-16.21 17.67,-33.88 26.9,-50.45 9.22,-16.57 18.25,-32.03 28.23,-48.29 9.98,-16.26 20.9,-33.31 33.48,-51.89 12.58,-18.58 26.83,-38.68 39.99,-56.47 13.17,-17.78 25.25,-33.25 38.93,-49.9 13.67,-16.64 28.93,-34.46 43.64,-50.89 14.71,-16.44 28.87,-31.5 42.58,-45.52 13.71,-14.03 26.97,-27.02 40.77,-39.99 13.8,-12.98 28.12,-25.94 43.08,-38.9 14.95,-12.96 30.52,-25.91 45.33,-37.77 14.81,-11.86 28.86,-22.62 44.2,-33.87 15.34,-11.25 31.99,-22.98 47.28,-33.36 15.3,-10.39 29.25,-19.43 43.19,-28.13 13.94,-8.7 27.87,-17.05 42.82,-25.63 14.96,-8.59 30.94,-17.4 50.34,-27.43 19.41,-10.03 42.23,-21.27 68.05,-32.94 25.82,-11.67 54.64,-23.77 84.15,-35 29.51,-11.23 59.72,-21.59 83.51,-29.25 23.78,-7.65 41.15,-12.59 49.83,-15.06 8.68,-2.47 8.68,-2.47 8.68,-2.47 0,0 0,0 81.46,-81.32 81.45,-81.32 244.36,-243.95 325.81,-325.27 81.46,-81.32 81.46,-81.32 81.46,-81.32 0,0 0,0 -4.75,-0.28 -4.75,-0.28 -14.24,-0.83 -26.23,-1.39 -11.99,-0.56 -26.46,-1.14 -41.16,-1.54 -14.7,-0.4 -29.62,-0.64 -42.73,-0.73 -13.1,-0.1 -24.4,-0.05 -35.69,0.11 -11.29,0.15 -22.58,0.4 -33.97,0.76 -11.4,0.36 -22.91,0.83 -33.79,1.36 -10.89,0.53 -21.15,1.12 -30.95,1.76 -9.8,0.64 -19.14,1.33 -37.8,3.13 -18.66,1.79 -46.63,4.69 -70.68,7.58 -24.05,2.9 -44.18,5.78 -63.03,8.76 -18.85,2.97 -36.43,6.05 -56.49,9.94 -20.07,3.9 -42.63,8.61 -64.32,13.53 -21.68,4.93 -42.5,10.07 -62.01,15.2 -19.51,5.14 -37.72,10.27 -59.28,16.84 -21.56,6.57 -46.46,14.58 -69.71,22.54 -23.24,7.95 -44.83,15.86 -65.21,23.71 -20.37,7.85 -39.54,15.64 -62.69,25.72 -23.16,10.07 -50.31,22.43 -67.52,30.4 -17.2,7.96 -24.46,11.54 -36.5,17.7z"/>
  <path class="fil1" d="M91.16 2241.37c3.21,15.99 7.94,38.73 12.05,57.33 4.11,18.6 7.6,33.06 11.45,48.19 3.85,15.12 8.08,30.92 12.32,46 4.23,15.09 8.47,29.46 13.41,45.33 4.94,15.88 10.58,33.25 17.11,52.24 6.54,18.99 13.98,39.6 22.24,61.17 8.27,21.55 17.35,44.06 24.77,61.83 7.41,17.77 13.15,30.81 18.69,43.04 5.53,12.22 10.86,23.63 16.94,36.25 6.08,12.62 12.91,26.45 19.68,39.75 6.77,13.29 13.47,26.06 21.25,40.39 7.79,14.32 16.67,30.21 25.01,44.72 8.34,14.51 16.15,27.64 23.6,39.87 7.45,12.23 14.54,23.56 23.61,37.53 9.06,13.98 20.1,30.61 31.4,47.05 11.3,16.43 22.85,32.68 35.01,49.19 12.16,16.5 24.93,33.27 38.7,50.66 13.76,17.38 28.51,35.38 38.12,46.98 9.61,11.6 14.07,16.79 16.31,19.39 2.23,2.59 2.23,2.59 2.23,2.59 0,0 0,0 52.66,-52.56 52.65,-52.57 157.96,-157.7 210.61,-210.27 52.65,-52.56 52.65,-52.56 52.65,-52.56 0,0 0,0 -8.45,-10.77 -8.46,-10.78 -25.38,-32.32 -39.6,-51.23 -14.21,-18.9 -25.72,-35.16 -37.52,-52.68 -11.79,-17.51 -23.86,-36.28 -35.03,-54.51 -11.18,-18.23 -21.45,-35.93 -31.64,-54.42 -10.18,-18.49 -20.26,-37.77 -30,-57.52 -9.74,-19.75 -19.14,-39.96 -27.98,-60.22 -8.85,-20.27 -17.16,-40.57 -24.46,-59.5 -7.31,-18.93 -13.62,-36.48 -19.05,-52.41 -5.44,-15.93 -10.01,-30.23 -15.29,-48.21 -5.28,-17.99 -11.25,-39.65 -16.88,-62.26 -5.62,-22.62 -10.89,-46.19 -14.86,-65.38 -3.97,-19.19 -6.63,-33.99 -9.28,-50.56 -2.66,-16.56 -5.29,-34.89 -7.02,-47.62 -1.73,-12.73 -2.56,-19.85 -2.98,-23.42 -0.41,-3.56 -0.41,-3.56 -0.41,-3.56 0,0 0,0 -74.49,0.19 -74.49,0.18 -223.47,0.55 -297.96,0.73 -74.49,0.19 -74.49,0.19 -74.49,0.19 0,0 0,0 1.17,11.52 1.17,11.53 3.51,34.59 5.84,54.7 2.32,20.12 4.64,37.31 6.97,53.21 2.33,15.91 4.69,30.53 6.7,42.46 2.01,11.94 3.69,21.18 6.89,37.16z"/>
  <path class="fil3" d="M777.41 3359.08c14.74,11.36 33.72,25.67 50.68,38.07 16.96,12.39 31.89,22.88 48.26,33.97 16.38,11.09 34.21,22.78 53.75,35.05 19.55,12.27 40.82,25.12 60.98,36.82 20.16,11.71 39.22,22.26 56.51,31.53 17.28,9.26 32.8,17.23 47.99,24.78 15.2,7.55 30.08,14.68 46.59,22.27 16.5,7.59 34.65,15.64 58.32,25.43 23.66,9.79 52.86,21.33 74.13,29.45 21.28,8.12 34.63,12.83 49.77,17.93 15.14,5.1 32.07,10.59 46.94,15.23 14.86,4.65 27.66,8.44 39.63,11.87 11.96,3.42 23.08,6.48 34.17,9.42 11.1,2.93 22.17,5.75 32.97,8.41 10.79,2.65 21.32,5.13 32.8,7.71 11.48,2.58 23.92,5.26 37.8,8.08 13.88,2.81 29.19,5.75 43.06,8.26 13.87,2.52 26.28,4.61 39.38,6.67 13.09,2.05 26.88,4.07 46.33,6.52 19.45,2.45 44.57,5.32 57.13,6.76 12.55,1.44 12.55,1.44 12.55,1.44 0,0 0,0 -0.59,-74.68 -0.59,-74.68 -1.77,-224.05 -2.36,-298.73 -0.59,-74.69 -0.59,-74.69 -0.59,-74.69 0,0 0,0 -7.77,-1.11 -7.78,-1.12 -23.32,-3.35 -38.79,-5.84 -15.48,-2.48 -30.88,-5.22 -45.5,-8.04 -14.63,-2.82 -28.47,-5.74 -41.84,-8.75 -13.38,-3.01 -26.28,-6.12 -40.83,-9.9 -14.55,-3.78 -30.74,-8.23 -45.15,-12.41 -14.41,-4.19 -27.02,-8.09 -41.53,-12.88 -14.5,-4.79 -30.89,-10.45 -48.61,-17.01 -17.73,-6.56 -36.8,-14.02 -52.5,-20.43 -15.7,-6.4 -28.04,-11.75 -43.45,-18.84 -15.42,-7.08 -33.9,-15.89 -50.43,-24.13 -16.53,-8.24 -31.11,-15.9 -46.23,-24.23 -15.13,-8.33 -30.8,-17.31 -45.62,-26.16 -14.82,-8.84 -28.79,-17.54 -43.77,-27.3 -14.98,-9.75 -30.97,-20.57 -45.28,-30.6 -14.31,-10.02 -26.93,-19.25 -38.63,-28.07 -11.69,-8.81 -22.47,-17.21 -31.73,-24.6 -9.27,-7.38 -17.04,-13.75 -20.92,-16.94 -3.88,-3.18 -3.88,-3.18 -3.88,-3.18 0,0 0,0 -52.65,52.56 -52.65,52.56 -157.94,157.68 -210.59,210.24 -52.65,52.56 -52.65,52.56 -52.65,52.56 0,0 0,0 7.74,6.55 7.74,6.55 23.21,19.65 36.19,30.41 12.99,10.76 23.48,19.17 38.22,30.53z"/>
  <path class="fil4" d="M2140.73 3740.06c24.96,-3.14 59.09,-7.87 84.33,-11.71 25.24,-3.85 41.61,-6.81 58.66,-10.15 17.06,-3.34 34.81,-7.07 51.23,-10.73 16.42,-3.66 31.5,-7.26 46.69,-11.09 15.19,-3.82 30.48,-7.89 46.86,-12.49 16.37,-4.61 33.81,-9.76 50.43,-14.9 16.62,-5.15 32.4,-10.3 47.78,-15.54 15.38,-5.23 30.35,-10.55 46.68,-16.64 16.33,-6.09 34.03,-12.94 52.85,-20.62 18.82,-7.68 38.75,-16.17 58.64,-25.05 19.89,-8.89 39.74,-18.18 59.09,-27.65 19.36,-9.47 38.23,-19.12 58.23,-29.84 20,-10.72 41.13,-22.51 60.39,-33.68 19.26,-11.17 36.65,-21.71 55.72,-33.8 19.08,-12.09 39.84,-25.73 58.35,-38.32 18.51,-12.59 34.78,-24.13 50.18,-35.4 15.4,-11.27 29.93,-22.26 47.48,-36.14 17.56,-13.87 38.15,-30.64 58.83,-48.27 20.68,-17.62 41.46,-36.1 61.25,-54.45 19.79,-18.36 38.59,-36.6 55.28,-53.33 16.69,-16.74 31.26,-31.98 45.86,-47.81 14.61,-15.82 29.25,-32.23 42.59,-47.63 13.33,-15.4 25.35,-29.79 37.28,-44.51 11.92,-14.73 23.76,-29.8 34.6,-43.98 10.83,-14.18 20.67,-27.48 30.34,-40.91 9.67,-13.43 19.17,-27 28.35,-40.49 9.19,-13.5 18.07,-26.92 27.56,-41.75 9.48,-14.82 19.57,-31.05 28.73,-46.23 9.17,-15.19 17.41,-29.33 26,-44.6 8.6,-15.27 17.54,-31.67 27.2,-50.16 9.65,-18.5 20,-39.1 31.09,-62.49 11.09,-23.38 22.91,-49.56 33.58,-74.58 10.68,-25.01 20.2,-48.86 28.78,-71.51 8.56,-22.66 16.17,-44.11 24.48,-69.51 8.31,-25.4 17.31,-54.75 24.24,-78.66 6.93,-23.91 11.79,-42.38 16.68,-62.43 4.89,-20.05 9.82,-41.68 14.37,-63.48 4.55,-21.8 8.73,-43.79 12.68,-67.11 3.95,-23.32 7.67,-47.97 11.11,-75.23 3.44,-27.25 6.61,-57.09 8.9,-83.08 2.29,-25.98 3.71,-48.1 4.73,-69.81 1.02,-21.72 1.65,-43.02 1.87,-66.27 0.22,-23.25 0.04,-48.45 -0.87,-76.73 -0.91,-28.29 -2.54,-59.66 -3.36,-75.35 -0.82,-15.68 -0.82,-15.68 -0.82,-15.68 0,0 0,0 -79.72,79.59 -79.72,79.59 -239.17,238.77 -318.9,318.37 -79.72,79.59 -79.72,79.59 -79.72,79.59 0,0 0,0 -2.23,8.6 -2.23,8.6 -6.69,25.79 -12.09,44.81 -5.4,19.02 -11.74,39.85 -16.79,55.73 -5.05,15.88 -8.8,26.8 -13.01,38.51 -4.21,11.7 -8.87,24.18 -13.93,37.12 -5.06,12.94 -10.51,26.33 -16.45,40.23 -5.94,13.91 -12.37,28.33 -19.65,43.85 -7.28,15.51 -15.41,32.12 -23.87,48.58 -8.46,16.45 -17.25,32.75 -26.07,48.39 -8.81,15.65 -17.65,30.65 -27.48,46.56 -9.83,15.9 -20.65,32.71 -31.03,48.21 -10.38,15.49 -20.31,29.66 -32.92,46.68 -12.6,17.02 -27.89,36.88 -41.19,53.53 -13.31,16.65 -24.64,30.09 -36.85,43.99 -12.21,13.89 -25.3,28.25 -36.8,40.49 -11.5,12.24 -21.41,22.36 -34.67,35.28 -13.27,12.92 -29.9,28.64 -46.09,43.3 -16.2,14.65 -31.96,28.25 -48.2,41.63 -16.24,13.38 -32.96,26.56 -47.63,37.73 -14.67,11.17 -27.29,20.35 -43.3,31.4 -16.01,11.05 -35.42,23.98 -50.24,33.58 -14.83,9.61 -25.07,15.89 -36.6,22.73 -11.54,6.83 -24.38,14.22 -37.71,21.6 -13.33,7.37 -27.16,14.75 -46.49,24.34 -19.33,9.6 -44.16,21.42 -75.66,34.76 -31.5,13.35 -69.67,28.22 -100.04,39.18 -30.38,10.96 -52.96,18.02 -76.49,24.68 -23.53,6.66 -48.01,12.94 -72.2,18.47 -24.18,5.53 -48.08,10.33 -69.65,14.2 -21.58,3.87 -40.84,6.81 -58.47,9.2 -17.63,2.39 -33.62,4.22 -53.21,5.99 -19.59,1.76 -42.78,3.45 -54.37,4.3 -11.59,0.84 -11.59,0.84 -11.59,0.84 0,0 0,0 0.59,74.22 0.59,74.21 1.76,222.65 2.35,296.86 0.58,74.22 0.58,74.22 0.58,74.22 0,0 0,0 14.38,-0.89 14.39,-0.89 43.15,-2.67 65.44,-4.32 22.28,-1.66 38.08,-3.21 63.05,-6.34z"/>
 </g>
</svg>
