<svg xmlns="http://www.w3.org/2000/svg" xmlns:xlink="http://www.w3.org/1999/xlink">
  <symbol xmlns="http://www.w3.org/2000/svg" aria-hidden="true" data-prefix="fas" data-icon="angle-down" shape-rendering="geometricPrecision" text-rendering="geometricPrecision" image-rendering="optimizeQuality" fill-rule="evenodd" clip-rule="evenodd" viewBox="0 0 153 98.81" id="angle-down">
    <path d="M68.42 95.44L3.38 30.4c-4.5-4.5-4.5-11.77 0-16.21L14.19 3.38c4.5-4.5 11.77-4.5 16.21 0l46.1 46.1 46.1-46.1c4.5-4.5 11.77-4.5 16.21 0l10.81 10.81c4.5 4.5 4.5 11.77 0 16.21L84.58 95.44c-4.4 4.5-11.67 4.5-16.17 0z" fill-rule="nonzero"></path>
  </symbol>
  <symbol xmlns="http://www.w3.org/2000/svg" aria-hidden="true" data-prefix="fas" data-icon="angle-left" shape-rendering="geometricPrecision" text-rendering="geometricPrecision" image-rendering="optimizeQuality" fill-rule="evenodd" clip-rule="evenodd" viewBox="0 0 166.16 257.34" id="angle-left">
    <path d="M5.66 115L114.99 5.67c7.56-7.56 19.78-7.56 27.25 0l18.17 18.17c7.56 7.56 7.56 19.78 0 27.25l-77.42 77.58 77.5 77.5c7.56 7.56 7.56 19.78 0 27.25l-18.17 18.25c-7.56 7.56-19.78 7.56-27.25 0L5.74 142.34c-7.64-7.56-7.64-19.78-.08-27.33z" fill-rule="nonzero"></path>
  </symbol>
  <symbol xmlns="http://www.w3.org/2000/svg" aria-hidden="true" data-prefix="fas" data-icon="angle-right" shape-rendering="geometricPrecision" text-rendering="geometricPrecision" image-rendering="optimizeQuality" fill-rule="evenodd" clip-rule="evenodd" viewBox="0 0 265.06 410.7" id="angle-right">
    <path d="M256.03 227.16L81.54 401.65c-12.06 12.06-31.56 12.06-43.49 0l-29-29c-12.06-12.06-12.06-31.56 0-43.49l123.68-123.68L9.05 81.8c-12.06-12.06-12.06-31.56 0-43.49L37.92 9.06C49.98-3 69.48-3 81.41 9.06L255.9 183.55c12.19 12.06 12.19 31.56.13 43.62z" fill-rule="nonzero"></path>
  </symbol>
  <symbol xmlns="http://www.w3.org/2000/svg" aria-hidden="true" data-prefix="fas" data-icon="angle-up" shape-rendering="geometricPrecision" text-rendering="geometricPrecision" image-rendering="optimizeQuality" fill-rule="evenodd" clip-rule="evenodd" viewBox="0 0 216.83 140.01" id="angle-up">
    <path d="M119.93 4.77l92.12 92.12c6.37 6.37 6.37 16.66 0 22.96l-15.31 15.31c-6.37 6.37-16.66 6.37-22.96 0l-65.37-65.23-65.3 65.3c-6.37 6.37-16.66 6.37-22.96 0L4.77 119.92c-6.37-6.37-6.37-16.66 0-22.96L96.89 4.84a16.203 16.203 0 0123.03-.07z" fill-rule="nonzero"></path>
  </symbol>
  <symbol xmlns="http://www.w3.org/2000/svg" aria-hidden="true" data-prefix="fas" data-icon="arrow-left" shape-rendering="geometricPrecision" text-rendering="geometricPrecision" image-rendering="optimizeQuality" fill-rule="evenodd" clip-rule="evenodd" viewBox="0 0 73.94 72.06" id="arrow-left">
    <path d="M42.5 67.24l-3.66 3.66c-1.55 1.55-4.06 1.55-5.59 0L1.17 38.84c-1.55-1.55-1.55-4.06 0-5.59L33.25 1.17c1.55-1.55 4.06-1.55 5.59 0l3.66 3.66c1.57 1.57 1.53 4.13-.07 5.66L22.55 29.43h47.43c2.19 0 3.96 1.77 3.96 3.96v5.28c0 2.2-1.77 3.96-3.96 3.96H22.55l19.88 18.94a3.937 3.937 0 01.07 5.66z" fill-rule="nonzero"></path>
  </symbol>
  <symbol xmlns="http://www.w3.org/2000/svg" aria-hidden="true" data-prefix="fas" data-icon="boxes" shape-rendering="geometricPrecision" text-rendering="geometricPrecision" image-rendering="optimizeQuality" fill-rule="evenodd" clip-rule="evenodd" viewBox="0 0 425.66 378.37" id="boxes">
    <path d="M413.84 212.83h-59.12v70.94l-23.65-15.74-23.65 15.74v-70.94H248.3c-6.5 0-11.82 5.32-11.82 11.82v141.89c0 6.5 5.32 11.82 11.82 11.82h165.54c6.5 0 11.82-5.32 11.82-11.82V224.65c0-6.5-5.32-11.82-11.82-11.82zm-283.78-47.29H295.6c6.5 0 11.82-5.32 11.82-11.82V11.83c0-6.5-5.32-11.82-11.82-11.82h-59.12v70.94l-23.65-15.74-23.65 15.74V.01h-59.12c-6.5 0-11.82 5.32-11.82 11.82v141.89c0 6.5 5.32 11.82 11.82 11.82zm47.3 47.29h-59.12v70.94l-23.65-15.74-23.65 15.74v-70.94H11.82c-6.5 0-11.82 5.32-11.82 11.82v141.89c0 6.5 5.32 11.82 11.82 11.82h165.54c6.5 0 11.82-5.32 11.82-11.82V224.65c0-6.5-5.32-11.82-11.82-11.82z" fill-rule="nonzero"></path>
  </symbol>
  <symbol xmlns="http://www.w3.org/2000/svg" shape-rendering="geometricPrecision" text-rendering="geometricPrecision" image-rendering="optimizeQuality" fill-rule="evenodd" clip-rule="evenodd" viewBox="0 0 872.54 763.46" id="briefcase">
    <path d="M327.55 436.59c-1.1 16.69-.23 35.76-.28 52.75-.17 65.36 39.34 55.01 108.73 55.01 30.02 0 78.23 6.25 96.36-11.91 18.98-19 11.87-63.99 12.42-95.37 3.2-2.95 6.07-2.38 13.63-2.29l258.74.08c2.54 9.16 3.32 241.41-1.09 248.65-4.32 32.01-42.42 23.78-76.48 23.78H132.41c-28.67 0-73.72 8.43-76.54-24.89-4.2-9.7-1.69-240.02-1.69-248.21l266.49-.09c11.36 1.35 3.27-.8 6.87 2.49zm54.28-.93l108.79.38.01 53.42-6.69.35-95.89.17-6.21-1.07v-53.25zM55.6 381.06c0-43.17-2.58-94.72.09-136.85 1.56-24.77 19.79-26.13 42.99-26.09l679.99-.01c23.06-.05 36.77 4.77 38.09 28.35 2.35 41.86.07 91.04.07 134.59l-761.23.01zM328.15 54.79h216.62l-.47 108.78H327.29l.86-108.78zm-53.8-22.37l-.55 131.38c-8.75 2.3-183.44 2.88-199.27 1.31-33.41-1.8-70.78 33.15-73.25 75.68-2.75 47.31-.22 102.69-.22 150.89 0 25.85-1.83 281.96 1.02 300.71 5.88 38.74 38.36 68.11 80.61 69.39 49.4 1.49 101.25.04 150.92.04h450.94c75.23 0 148.98 15.19 178.89-47.39 9.82-20.55 7.5-44.99 7.5-68.87V345.53c0-69.85 15.48-148.32-49.82-175.63-20.45-8.56-47.48-6.33-70.88-6.33H600.21c-6.35-26.37 3.47-94.98-1.54-128.32C592.18-7.84 544.51.68 503.48.68L308.1.97c-17.51 1.92-30.25 14.89-33.74 31.45z"></path>
  </symbol>
  <symbol xmlns="http://www.w3.org/2000/svg" shape-rendering="geometricPrecision" text-rendering="geometricPrecision" image-rendering="optimizeQuality" fill-rule="evenodd" clip-rule="evenodd" viewBox="0 0 121.96 139.3" id="building">
    <path d="M17.62 8.73l86.93.07v121.83H69.79c-.46-4.17-.07-10.78-.07-15.21 0-6.56 1.28-11.23-4.01-11.23h-9.42c-2.79 0-3.96 1.11-4.05 3.82-.23 6.61.5 17.01.07 22.62h-34.9l.22-121.9zM0 139.3h121.96c0-9.68.09-8.66-8.67-8.66-.52-4.68-.07-12.21-.07-17.2V9.95c0-4.34.07-9.95-7.17-9.95H16.21C8.73 0 8.75 5.22 8.75 9.95v17.34c0 8.6.35 99.5-.07 103.35-4.74 0-8.67-1.22-8.67 4.12v4.54z"></path>
    <path d="M71.92 52.21c-2.66.99-2.19 3.45-2.19 6.35 0 1.78-.21 7.28.17 8.57.76 2.59 3.6 2.23 6.29 2.23 1.7 0 7.43.21 8.67-.14 2.49-.7 2.27-3.58 2.27-6.39-.01-10.32 1.04-10.88-6.68-10.87-1.93 0-7.09-.28-8.54.25zm-34.8-.05c-2.75.94-2.29 3.29-2.29 6.41.01 10.45-.93 10.8 6.68 10.8 10-.01 10.73 1.14 10.73-6.53 0-1.71.21-7.34-.16-8.61-.73-2.53-3.64-2.27-6.31-2.26-1.92 0-7.24-.28-8.65.2zM72.13 26c-2.82.76-2.4 3.33-2.4 6.12.01 9.86-1.31 11.17 6.18 11.16 9.78-.02 11.24 1.3 11.23-6.32-.02-10 1.2-11.09-6.39-11.08-1.75 0-7.38-.2-8.61.13zm-37.3 56.16v9.38c0 2.79 1.44 3.98 4.12 3.98h9.1c5.52 0 4.19-3.83 4.19-13.36 0-3.02-1.22-4.05-4.19-4.05h-9.1c-2.9 0-4.12 1.03-4.12 4.05zm34.9 0c0 15.24-1.92 13.36 13.29 13.36 2.68 0 4.12-1.19 4.12-3.98v-9.38c0-3.01-1.22-4.05-4.12-4.05h-9.1c-2.97 0-4.19 1.03-4.19 4.05zM37.2 26.03c-2.71.83-2.38 3.32-2.38 6.38.01 10.05-1.08 10.88 6.68 10.87 10.08-.01 10.73 1.04 10.73-6.61-.01-9.94 1.21-10.81-6.46-10.8-1.7 0-7.39-.21-8.57.15z"></path>
  </symbol>
  <symbol xmlns="http://www.w3.org/2000/svg" shape-rendering="geometricPrecision" text-rendering="geometricPrecision" image-rendering="optimizeQuality" fill-rule="evenodd" clip-rule="evenodd" viewBox="0 0 247.45 247.54" id="ccb-view">
    <path d="M74.65 147.39c4.52-1.44 10.09 5.97 12.29 8.15 3.67 3.65 6.98 6.91 10.64 10.57 6.05 6.05 1.34 9.09-2.52 12.98-3.64 3.68-6.95 6.95-10.61 10.61-4.81 4.81-40.31 41.31-42.8 42.11-3.88 1.24-5.86-1.28-7.43-2.85-1.89-1.9-3.4-3.43-5.29-5.32-3.66-3.66-6.9-7.01-10.56-10.66-1.71-1.7-4.14-3.5-2.48-7.45.67-1.59 3.78-4.37 5.02-5.61 7.4-7.39 50.67-51.56 53.73-52.54zm34.87-69.89c-8.17 5.99-7.78 12.46-14.42 5.72-2.21-2.24-4.09-4.11-6.33-6.3-3.75-3.68-2.21-5.02.75-7.93l50.73-50.81c4.96-5.09 5.73-1.99 14.14 6.25 7.01 6.86-1.91 6.88-5.91 14.2 7.04 8.03 22.08 21.76 30.37 30.05 8.07 8.07 23.36 22.74 30.2 30.29 3.17-1.74 6.7-8.16 10.61-8.46 1.68.66 11.31 10.15 11.87 11.46 1.3 3.04-2.5 5.62-3.95 7.07l-51.74 51.39c-3.18 1.52-5.65-2.26-7.16-3.78-1.96-1.96-4-3.77-5.83-5.8-4.23-4.71 4.92-9.32 7.25-12.98L109.51 77.5zm60.54-39.54c1.67-5.48 3.82-7.57 1.73-14.76-1.46-5.01-4.58-7.83-7.21-10.47-6.84-6.83-16.04-17.69-29.34-10.21-2.75 1.55-2.69 1.87-4.66 3.93-2.96 3.1-5.84 5.77-8.87 8.82L86.06 50.85c-6.4 6.3-14.04 12.13-14.85 20.46-1.11 11.37 8.04 17.9 12.71 22.58 2.75 2.76 5.38 5.57 10.7 6.99 7.01 1.87 9.03-.25 14.5-1.95l14.08 14.37-28.31 28.09c-4.03-4-8.71-9.58-18.18-9.8-9.74-.23-14.38 5.02-18.51 9.12l-41.43 41.42c-4.29 4.29-9.56 8.91-13.27 14-4.26 5.85-4.65 15.07-1.06 21.68 2.53 4.66 23.36 25.39 27.63 27.44 7 3.38 15.33 3.04 21.26-1.29 5.35-3.9 9.84-8.98 14.32-13.48 4.66-4.68 8.98-8.96 13.65-13.63 5.53-5.54 23.79-23.16 27.44-27.63 2.97-3.65 9.72-7.76 9.15-18.92-.51-10-5.88-13.16-9.8-17.73l28.37-28.38 14.03 14.3c-1.86 5.4-3.72 7.94-1.75 14.85 1.62 5.68 4.22 7.18 7.35 10.33l8.79 8.88c8.16 6.22 17.65 4.87 25.22-2.48l44.46-44.46c6.44-6.44 14.08-12.29 14.81-20.58 1.01-11.39-8.12-17.64-12.76-22.39-2.56-2.62-5.65-5.66-10.68-6.98-6.58-1.72-9.15-.11-14.5 1.93l-39.36-39.63z"></path>
  </symbol>
  <symbol xmlns="http://www.w3.org/2000/svg" xmlns:xlink="http://www.w3.org/1999/xlink" aria-hidden="true" data-prefix="fas" data-icon="chess-knight" shape-rendering="geometricPrecision" text-rendering="geometricPrecision" image-rendering="optimizeQuality" fill-rule="evenodd" clip-rule="evenodd" viewBox="0 0 203.74 265.28" id="chess-knight">
    <path d="M10.08 127.58l21.56 9.58c2.17.96 4.52 1.46 6.9 1.46 2.16 0 4.3-.42 6.3-1.21l6.78-2.72a16.97 16.97 0 009.95-10.87l4.89-16.26c.9-3.61 3.34-6.64 6.66-8.3l11.74-5.88v26.7c0 9.65-5.45 18.47-14.08 22.78l-30.36 15.2c-14.37 7.18-23.44 21.89-23.44 37.95v7.72h169.71V101.86C186.69 45.62 141.1-.01 84.87-.01H6.38C2.86-.01.01 2.84.01 6.36c0 1.39.33 2.77.95 4.02L8.5 25.46l-4.78 4.78a12.714 12.714 0 00-3.71 8.99v72.84c0 6.71 3.95 12.79 10.08 15.51zm17.51-76.65c5.86 0 10.61 4.75 10.61 10.61 0 5.86-4.75 10.61-10.61 10.61-5.86 0-10.61-4.75-10.61-10.61 0-5.86 4.75-10.61 10.61-10.61zm157.05 180.39H8.49c-4.69 0-8.49 3.8-8.49 8.49v16.98c0 4.69 3.8 8.49 8.49 8.49h186.76c4.69 0 8.49-3.8 8.49-8.49v-16.98c0-4.69-3.8-8.49-8.49-8.49h-10.61z"></path>
  </symbol>
  <symbol xmlns="http://www.w3.org/2000/svg" shape-rendering="geometricPrecision" text-rendering="geometricPrecision" image-rendering="optimizeQuality" fill-rule="evenodd" clip-rule="evenodd" viewBox="0 0 703.21 729.51" id="cog">
    <path d="M287.6 52.87c49.51-7.99 78.44-8.09 128.57.01l.21 79.3c50.37 12.55 73.46 37.57 104.76 59.93l67.54-38.45c17.7 11.83 58.63 82.9 64.56 111.01-7.99 7.8-56.43 30.75-67.21 40.03 1.78 20.34 6.63 37.95 6.74 60.04.11 22.08-5.18 39.8-7.02 60.5l67.49 39.55c-3.45 16.84-19.08 47.14-27.06 60.61-8.23 13.92-28.03 43.33-37.66 50.67l-67.59-38.39c-14.29 10.62-29.58 25.57-47.47 35.14-16.04 8.58-38.43 19.79-57.22 24.44l-.02 76.89c-3.54 6.21-22.16 6.21-29.84 7.01-14.71 1.54-96.62 3.54-99.41-7.01l-.14-76.87c-46.89-11.48-69.8-33.69-104.77-59.96l-67.54 38.49c-18.52-12.98-58.8-83.2-64.89-111.56l67.5-39.48c-.98-19.29-6.66-37.81-6.75-60.05-.1-22.27 5.85-40.68 7.05-60.49l-67.49-39.56c3.62-18.57 18.85-45.8 27.01-60.65 7.2-13.11 28.88-44.59 37.72-50.61l67.59 38.36c32.31-25.08 60.82-48.95 104.65-59.57l.68-79.32zm-109.94 81.6c-23.11-7.79-58.97-47.58-87.2-24.74-16.49 13.35-43.4 52.76-54.23 70.51-8.89 14.58-35.6 69.13-36.2 89.02-1.07 35.22 41.37 39.02 65.39 60.07-1.31 26.96-1.48 43.77-.01 70.81C44.96 418.2-1.15 425.8.03 460.19c1.2 35.07 58.2 134.88 90.67 159.34 30 22.6 62.38-16.25 86.97-24.53 10.38 6.59 18.93 13.23 30.19 19.68 4.44 2.55 30.91 13.48 31.98 17.91 0 34.35-7.01 71.73 19.27 84.81 32.29 16.07 152.91 16.26 184.94-.08 26.44-13.49 19.35-50.1 19.35-84.73 1.06-4.46 27.5-15.35 31.97-17.92 11.23-6.45 19.83-13.1 30.21-19.67 24.68 8.32 56.78 47.11 86.94 24.5 9.06-6.79 22.13-24.02 29.65-33.5 21.13-26.63 60.37-96.94 61.01-125.81.47-21.08-12.48-28.92-25.78-36.36-10.45-5.84-29.79-18.79-39.48-22.25-.07-11.89 1.87-24.31 1.84-36.86-.03-12.51-1.89-24.97-1.84-36.87 9.05-3.17 30.64-16.97 40.46-22.78 13.04-7.71 26.25-15.9 24.73-37.37-2.45-34.47-58.11-133.84-91.29-158.57-28.59-21.29-62.74 17.29-86.23 25.31-16.27-9.76-27.67-18.8-46.34-28.13-7.55-3.78-14.69-4.48-15.84-9.47 0-34.34 6.95-71.45-19.3-84.76C412.17-4.12 291.4-4 259.15 12.05c-26.4 13.14-19.29 50.24-19.29 84.79-2.2 4.49-1.77 3.38-7.23 5.73-24.39 10.51-33.04 18.31-54.95 31.87z"></path>
    <path d="M336.37 271.78c27.32-4.76 57.29 4.96 72.76 18.51 69.67 60.98 32.43 153.76-41.64 167.31-56.29 10.29-100.94-30.94-108.82-76.93-9.75-56.93 31.19-100.78 77.7-108.89zm3.13-47.71c-81.13 8.83-135.63 75.84-128.66 153.82 6.54 73.22 72.28 135.95 154.14 127.66 72.84-7.38 134.78-71.41 127.41-153.65-6.4-71.44-72.63-136.58-152.88-127.83z"></path>
  </symbol>
  <symbol xmlns="http://www.w3.org/2000/svg" shape-rendering="geometricPrecision" text-rendering="geometricPrecision" image-rendering="optimizeQuality" fill-rule="evenodd" clip-rule="evenodd" viewBox="0 0 498.61 397.58" id="cogs">
    <path d="M399 148.73l-6.39 11.14c-2.34 4.13-7.32 5.84-11.76 4.21a86.142 86.142 0 01-25.01-14.49c-3.58-2.96-4.52-8.18-2.18-12.23l6.39-11.14c-5.38-6.23-9.58-13.48-12.39-21.35h-12.85c-4.68 0-8.73-3.35-9.51-8.02a87.923 87.923 0 010-28.91c.78-4.67 4.83-8.1 9.51-8.1h12.85c2.8-7.87 7.01-15.11 12.39-21.35l-6.39-11.14c-2.34-4.05-1.48-9.27 2.18-12.23 7.4-6.15 15.89-11.06 25.01-14.49 4.44-1.64 9.43.08 11.76 4.21L399 15.98a69.259 69.259 0 0124.7 0l6.39-11.14C432.43.71 437.41-1 441.86.63a86.273 86.273 0 0125.01 14.49c3.58 2.96 4.52 8.18 2.18 12.23l-6.39 11.14c5.38 6.23 9.58 13.48 12.39 21.35h12.86c4.67 0 8.72 3.35 9.5 8.03 1.56 9.35 1.64 19.17 0 28.91-.78 4.67-4.83 8.1-9.5 8.1h-12.86a67.173 67.173 0 01-12.39 21.35l6.39 11.14c2.34 4.05 1.48 9.27-2.18 12.23-7.4 6.15-15.9 11.06-25.01 14.49-4.44 1.64-9.43-.07-11.77-4.21l-6.39-11.14c-8.1 1.48-16.52 1.48-24.7 0zm-8.18-45.81c30 23.06 64.2-11.14 41.14-41.14-30-23.14-64.2 11.14-41.14 41.14zm-89.83 119.91l26.26 13.09c7.87 4.52 11.3 14.1 8.18 22.67-6.93 18.85-20.57 36.15-33.19 51.27-5.77 6.93-15.74 8.65-23.61 4.13l-22.67-13.09c-12.47 10.68-26.96 19.17-42.77 24.7v26.18c0 9.04-6.47 16.83-15.35 18.39-19.17 3.27-39.27 3.43-59.14 0-8.96-1.56-15.58-9.27-15.58-18.39V325.6c-15.81-5.61-30.31-14.02-42.77-24.7l-22.67 13.01c-7.79 4.52-17.84 2.8-23.61-4.13-12.62-15.11-25.94-32.41-32.88-51.19-3.12-8.49.31-18.08 8.18-22.67l25.94-13.09a134.931 134.931 0 010-49.4L9.37 160.26c-7.87-4.52-11.38-14.1-8.18-22.6 6.93-18.85 20.26-36.15 32.88-51.27 5.77-6.93 15.74-8.65 23.61-4.13l22.67 13.09c12.47-10.68 26.96-19.17 42.78-24.7V44.39c0-8.96 6.39-16.75 15.27-18.31 19.17-3.27 39.34-3.43 59.21-.07 8.96 1.56 15.58 9.27 15.58 18.39v26.18c15.81 5.61 30.31 14.02 42.77 24.7l22.67-13.09c7.79-4.52 17.84-2.8 23.61 4.13 12.62 15.12 25.87 32.41 32.8 51.27 3.12 8.49.08 18.08-7.79 22.67l-26.26 13.09c3.04 16.36 3.04 33.11 0 49.47zm-91.63 16.44C255.49 179.28 187 110.79 127 156.92c-46.13 59.99 22.36 128.48 82.36 82.35zM399 381.62l-6.39 11.14c-2.34 4.13-7.32 5.84-11.76 4.21a86.142 86.142 0 01-25.01-14.49c-3.58-2.96-4.52-8.18-2.18-12.23l6.39-11.14c-5.38-6.23-9.58-13.48-12.39-21.35h-12.85c-4.68 0-8.73-3.35-9.51-8.02a87.923 87.923 0 010-28.91c.78-4.67 4.83-8.1 9.51-8.1h12.85c2.8-7.87 7.01-15.11 12.39-21.35l-6.39-11.14c-2.34-4.05-1.48-9.27 2.18-12.23 7.4-6.15 15.89-11.06 25.01-14.49 4.44-1.64 9.43.08 11.76 4.21l6.39 11.14a69.259 69.259 0 0124.7 0l6.39-11.14c2.34-4.13 7.32-5.84 11.77-4.21a86.273 86.273 0 0125.01 14.49c3.58 2.96 4.52 8.18 2.18 12.23l-6.39 11.14c5.38 6.23 9.58 13.48 12.39 21.35h12.86c4.67 0 8.72 3.35 9.5 8.02 1.56 9.35 1.64 19.17 0 28.91-.78 4.67-4.83 8.1-9.5 8.1h-12.86a67.173 67.173 0 01-12.39 21.35l6.39 11.14c2.34 4.05 1.48 9.27-2.18 12.23-7.4 6.15-15.9 11.06-25.01 14.49-4.44 1.64-9.43-.08-11.77-4.21l-6.39-11.14c-8.1 1.48-16.52 1.48-24.7 0zm-8.18-45.89c30 23.06 64.2-11.14 41.14-41.14-30-23.06-64.2 11.14-41.14 41.14z" fill-rule="nonzero"></path>
  </symbol>
  <symbol xmlns="http://www.w3.org/2000/svg" shape-rendering="geometricPrecision" text-rendering="geometricPrecision" image-rendering="optimizeQuality" fill-rule="evenodd" clip-rule="evenodd" viewBox="0 0 596.55 477.66" id="cogs2">
    <path d="M335.47 207.46c6.45 43.65 5.07 29.1 0 70.16 6.18 3.48 12.54 7.42 19.07 11.07l19.05 11.53c-4.81 17.21-30.39 54.76-39.35 60.17l-37.88-21.82c-11.24 8.34-14.5 12.9-27.83 20.71-15.47 9.06-25.67 10.53-33.09 14.67l-.13 44.34c-43.2 4.99-26.54 4.31-70.21.29l.02-44.63c-15.6-7.77-32.38-9.67-53.62-29.32-2.37-2.19-4.1-3.65-7.27-5.71-6.2 2.79-12.93 7.08-18.92 10.63-6.57 3.89-12.71 7.24-19.09 10.93-8.91-6.35-31.75-43.46-35.16-60.25l38.13-22.19c-6.23-45.27-5.18-27.41-.06-70.87l-38.05-21.78c1.87-12.63 15.94-35.95 23.47-46.93 3.55-5.17 8.3-9.51 10.57-13.86 7.5 1.93 32.68 19.97 40.38 21.74 7.89-9.57 26.31-21.51 41.05-27.95 20.4-8.91 18.77-2.82 18.61-15-.16-11.68-.02-23.44-.02-35.13 2.43-6.24 67.74-6.3 70.19 0v42.57c7.03 4.95 20.79 4.51 47.48 24.47 4 2.99 9.91 9.1 13.43 10.92 5.04-1.93 14.21-7.96 19.34-10.88 5.34-3.03 14.67-9.58 20.01-10.81 6.27 11.19 23.76 22.83 38.26 60.39-11.77 8-26.62 14.76-38.38 22.54zM135.19 90.63c-19.84 9.68-22.46 13.35-33.88 19.43-13.26-5.17-32.64-26.14-49.54-13.35C32.48 111.3 1.42 165.63.06 187.24c-1.42 22.53 26 25.72 36.23 36-.18 6.7-1 12.63-.98 19.49.02 6.61 1.29 13.15.75 19.5-21.05 13.73-43.2 16.96-33.42 46.06 9.4 27.99 20.3 47.22 37.36 67.9 19.16 23.23 26.34 19.91 54.85 2.36 7.82-4.81 7.16-3.44 13.71 1.18 3.94 2.78 9.06 5.78 13.4 8.05 3.43 1.8 11.72 4.56 13.48 7.97 0 20.07-3.75 39.93 12.2 48.18 18.67 9.67 87.54 9.73 105.83-.33 15.6-8.57 11.8-28.4 11.8-48.96 4.14-2.7 12.09-6.07 17.1-8.85 6.16-3.42 11.77-8.35 16.78-10.68 22.1 10.01 37.38 31.14 58.74 4.32 8.85-11.12 14.43-15.74 24.5-31.07 7.17-10.9 22.03-33.77 22.51-50.19.35-11.66-6.9-17.16-13.81-21.65-5.75-3.75-17.53-11.66-22.93-13.87 1.12-14.95.37-25.03.21-39.42 11.02-10.74 36.15-14.57 33.4-37.06-1.52-12.42-15.71-40.03-21.63-49.76-6.44-10.6-22.21-32.63-31.37-39.79-15.73-12.3-35.67 7.42-49.62 13.37-4.22-1.95-11-7.34-15.9-10.22-6.09-3.57-11.87-6.17-17.99-9.15 0-21.23 3.79-40.09-11.8-48.85-18-10.12-85.47-10.52-105.87-.35-16.34 8.14-12.42 27.87-12.42 49.2zm312.34 229.99c4.25-3.43 10.93-7.84 17.68-9.81l9.21 16.7c30.1-4.32 12.97-3.19 39.26.11l9.28-16.74c6.78 1.98 12.7 6.17 17.14 9.8l-9.01 16.57c1.71 3.65 6.52 8.03 11.06 15.28 3.2 5.12 5.9 12.46 7.67 18.65l19.87.3c.36 3.55 1.28 16.54-.23 18.79-1.88 2.79-14.07 1.1-17.88 1.1-3 .72-2.43 2.38-4.65 8.49-1.17 3.23-2.75 6.77-4.24 9.4-2.95 5.22-7.99 11.53-11.68 14.51 1.24 5.29 6.57 12.31 9.19 17.77-.8.97-.42.61-1.58 1.61-.08.07-1.48 1.17-1.69 1.32l-13.61 7.07-9.71-15.95c-6.34-.75-12.89 1.87-19.53 1.88-7.18.01-12.67-1.5-19.43-2.5-3.29 5.19-6.49 11.84-10.22 16.82-6.16-3.56-11.07-5.47-16.84-9.56l9.34-17.2c-3.34-6.01-9.35-9.17-14.54-21.46-6.98-16.53.7-11.16-24.34-12.34l.07-19.81 19.85-.07c5.02-15.72 9.32-23.48 19.01-32.82-1.8-5.61-6.89-12.36-9.45-17.9zm-22.22 14.68l-5.27 9.63c-25.72.13-32.33 9.93-32.45 36.18-.13 29.41 8.63 36.29 32.24 36.29 11.2 18.57-.21 9.55.47 26.04.78 18.57 30.62 31.97 42.84 33.85 15.15 2.33 19.97-7.11 25.08-13.43l11.95-.24c8.28 19.47 28.66 14.4 45.69 5.37 33.81-17.92 18.7-33.47 16.49-42.5 2.75-2.8 3.67-6.04 5.73-9.09 22.7 0 28.1-13 28.34-35.31.24-22.57-4.63-36.75-27.3-37.03-3.36-1.75-6.95-8.78-5.86-11.67 1.9-5.05 4.72-6.73 4.38-14.45-.83-18.66-32.14-33.34-43.71-34.78-13.63-1.69-19.28 6.9-24.3 14.79l-11.42.03c-4.8-7.16-7.51-13.89-19.82-15-8.09-.73-19.93 5.08-25.95 8.47-6.49 3.65-15.57 10.21-19.1 15.98-6.83 11.17-1.68 17.84 1.97 26.87zm22.25-298.15c2.53-3.55 12.29-8.77 17.72-10.25l9.29 16.77c30.62-4.23 11.91-2.67 38.71-.08l9.65-16.69c6.91 1.92 13.75 6.38 17.2 10.17l-9.18 16.51c5.71 10.92 5.79-.15 19.13 33.74l19.69.32.31 19.37-20 .58c-12.36 29.42-3.64 11.93-17.49 31.32-1.65 2.31-.44.07-1.5 2.44l9.34 16.43c-3.98 3.79-10.74 8.21-17.09 9.89l-9.96-16.38c-25.25 2.11-7.79 4.43-39.07-.18-2.02 5.47-7.13 11.27-9.02 16.81-5.15-1.27-14.59-6.75-17.56-10 1.98-5.81 7.35-11.51 9.26-17.77-14.59-13.66-13.48-21.51-19.31-32.65l-19.55-.03-.33-20.08c24.43-1.05 17.89 4.16 24.3-11.66 1.9-4.68 4.1-8.4 6.72-11.8 2.34-3.04 6.73-7.67 8.02-10.28l-9.27-16.49zm-27.71 24.06c-13.17 0-19.15.8-25.74 8.44-8.75 10.15-8.92 45.2.08 55.64 6.77 7.85 12.73 8.26 25.96 8.26l5.16 9.74c-3.01 9.53-8.81 13.86-2.23 26.18 5.76 10.78 32.61 24.62 44.66 24.24 11.5-.37 15.89-7.54 20.56-14.11l11.35.14c5.12 7.13 9.94 15.06 23.4 13.77 11.36-1.09 42-14.35 44.2-31.69 1.03-8.12-.97-10.13-3.72-15.93-2.07-4.37 2.27-7.25 4.14-12.34 25.81 0 30.14-16.92 28.61-41.87-2.3-37.39-24.78-27.01-29.32-31.95-.03-.04-3.45-6.21-3.52-6.35-3.07-6.98 19.72-21.96-16.5-43.79-15.79-9.52-38.64-16.84-46.75 5.46l-11.95-.11c-6-8.04-10.08-16.19-24.25-14.75-10.9 1.1-42.32 15.48-43.68 34.24-1.23 16.88 10.96 8.65-.46 26.8z"></path>
    <path d="M200.72 290c-26.13 0-47.54-21.78-47.13-48.27.4-26.1 21.77-46.95 48.08-46.58 25.99.36 46.7 21.35 46.71 47.58.01 26.27-21.22 47.28-47.66 47.28zm-12.41-123.54c-38 6.18-71.31 42.63-63.53 88.83 6.36 37.74 42.68 71.09 88.71 63.52 37.95-6.24 71.72-43.05 63.62-89.15-6.72-38.25-42.58-70.73-88.8-63.2zm297.27 185.19c-38.98 9.4-24.99 66.26 12.75 58.11 38.47-8.31 25.54-67.35-12.75-58.11zm-.86-283.56c-14.27 3.94-26.25 17.34-21.58 35.98 3.47 13.85 17.95 25.89 35.83 21.67 37.96-8.98 24.43-68.33-14.25-57.65z"></path>
  </symbol>
  <symbol xmlns="http://www.w3.org/2000/svg" aria-hidden="true" data-prefix="fas" data-icon="dollar-sign" shape-rendering="geometricPrecision" text-rendering="geometricPrecision" image-rendering="optimizeQuality" fill-rule="evenodd" clip-rule="evenodd" viewBox="0 0 242.08 430.45" id="currency">
    <path d="M175.85 196.23l-90.8-26.57c-10.51-3.03-17.82-12.86-17.82-23.79 0-13.7 11.1-24.8 24.8-24.8h55.74c10.26 0 20.35 3.11 28.75 8.83 5.13 3.45 12.02 2.61 16.39-1.68l29.26-28.58c5.97-5.8 5.13-15.47-1.51-20.6-20.6-16.14-46.32-25.14-72.72-25.22V13.46c0-7.4-6.05-13.45-13.45-13.45h-26.9c-7.4 0-13.45 6.05-13.45 13.45v40.36h-2.1C38.49 53.82-4.56 99.81.4 154.37c3.53 38.76 33.12 70.29 70.45 81.22l86.17 25.22c10.51 3.11 17.82 12.86 17.82 23.79 0 13.7-11.1 24.8-24.8 24.8H94.3c-10.26 0-20.34-3.11-28.75-8.83-5.13-3.45-12.02-2.61-16.39 1.68L19.9 330.83c-5.97 5.8-5.13 15.47 1.51 20.6 20.6 16.14 46.32 25.14 72.72 25.22v40.36c0 7.4 6.06 13.45 13.45 13.45h26.9c7.4 0 13.45-6.05 13.45-13.45v-40.52c39.18-.76 75.92-24.05 88.86-61.12 18.08-51.79-12.27-104.93-60.95-119.13z" fill-rule="nonzero"></path>
  </symbol>
  <symbol xmlns="http://www.w3.org/2000/svg" aria-hidden="true" data-prefix="fas" data-icon="calendar-day" shape-rendering="geometricPrecision" text-rendering="geometricPrecision" image-rendering="optimizeQuality" fill-rule="evenodd" clip-rule="evenodd" viewBox="0 0 162.8 186.06" id="date">
    <path d="M0 168.61c0 9.63 7.81 17.44 17.44 17.44h127.91c9.63 0 17.44-7.81 17.44-17.44V69.77H-.01v98.84zm23.26-69.77c0-3.2 2.62-5.81 5.81-5.81h34.88c3.2 0 5.81 2.62 5.81 5.81v34.88c0 3.2-2.62 5.81-5.81 5.81H29.07c-3.2 0-5.81-2.62-5.81-5.81V98.84zm122.1-75.59h-17.44V5.81c0-3.2-2.62-5.81-5.81-5.81h-11.63c-3.2 0-5.81 2.62-5.81 5.81v17.44H58.16V5.81c0-3.2-2.62-5.81-5.81-5.81H40.72c-3.2 0-5.81 2.62-5.81 5.81v17.44H17.47C7.84 23.25.03 31.06.03 40.69v17.44h162.8V40.69c0-9.63-7.81-17.44-17.44-17.44z" fill-rule="nonzero"></path>
  </symbol>
  <symbol xmlns="http://www.w3.org/2000/svg" aria-hidden="true" data-prefix="fas" data-icon="ellipsis-v" shape-rendering="geometricPrecision" text-rendering="geometricPrecision" image-rendering="optimizeQuality" fill-rule="evenodd" clip-rule="evenodd" viewBox="0 0 6.71 23.12" id="ellipsis-v">
    <path d="M3.36 8.2C1.5 8.2 0 9.7 0 11.56c0 1.86 1.5 3.36 3.36 3.36 1.86 0 3.36-1.5 3.36-3.36 0-1.86-1.5-3.36-3.36-3.36zm3.36-4.85c0 1.86-1.5 3.36-3.36 3.36C1.5 6.71 0 5.21 0 3.35 0 1.49 1.5-.01 3.36-.01c1.86 0 3.36 1.5 3.36 3.36zm0 16.41c0 1.86-1.5 3.36-3.36 3.36-1.86 0-3.36-1.5-3.36-3.36 0-1.86 1.5-3.36 3.36-3.36 1.86 0 3.36 1.5 3.36 3.36z" fill-rule="nonzero"></path>
  </symbol>
  <symbol xmlns="http://www.w3.org/2000/svg" aria-hidden="true" data-prefix="fas" data-icon="flag" shape-rendering="geometricPrecision" text-rendering="geometricPrecision" image-rendering="optimizeQuality" fill-rule="evenodd" clip-rule="evenodd" viewBox="0 0 106.31 107.99" id="flag">
    <path d="M72.05 20.84c-11.3 0-20.64-7.34-34.85-7.34-5.26 0-9.98.93-14.35 2.53.51-1.35.78-2.78.78-4.22 0-.25-.01-.5-.02-.75-.37-6-5.29-10.81-11.29-11.05C5.57-.26.02 5.12.02 11.81c0 4.01 2 7.56 5.06 9.69v81.43c0 2.8 2.27 5.06 5.06 5.06h3.37c2.8 0 5.06-2.27 5.06-5.06V83.02c5.97-2.54 13.41-4.67 24.14-4.67 11.3 0 20.64 7.34 34.85 7.34 10.16 0 18.28-3.44 25.84-8.62a6.736 6.736 0 002.92-5.56V20.23c0-4.93-5.12-8.2-9.59-6.12-7.24 3.36-16.13 6.72-24.67 6.72z" fill-rule="nonzero"></path>
  </symbol>
  <symbol xmlns="http://www.w3.org/2000/svg" shape-rendering="geometricPrecision" text-rendering="geometricPrecision" image-rendering="optimizeQuality" fill-rule="evenodd" clip-rule="evenodd" viewBox="0 0 114.66 125.54" id="flag-check">
    <path d="M43.58 64.37c-4.3 0-4.78-1.26-7.46-3.94L25.73 50.04c-2.68-2.68-3.94-3.15-3.94-7.46 0-3.31 3.06-6.37 6.37-6.37 4.63 0 4.88 1.36 8.63 5.11 1.56 1.56 4.55 4.9 6.12 5.95 1.45-.97 17.37-17.2 20.03-19.86 1.9-1.9 4.63-5.28 8.13-5.28 1.62 0 3.71.89 4.62 1.74 2.37 2.22 2.42 3.44 2.42 5.97 0 2.75-1.49 4.01-2.93 5.45L49.2 61.27c-1.49 1.5-2.77 3.1-5.62 3.1zM28.97 86.16v24.9c0 7.96-6.52 14.48-14.48 14.48-7.96 0-14.48-6.52-14.48-14.48V85.97H0V7.04C0 2.9 3.79 0 8.05 0h98.57c4.26 0 8.05 2.9 8.05 7.04 0 2.79-2.11 6.96-3.26 9.82l-7.04 17.77c-3.99 10.22-4.03 7-1.49 13.36.6 1.51 1.14 2.86 1.72 4.31 1.72 4.3 10.06 23.71 10.06 26.82 0 3.65-3.39 7.04-7.04 7.04H28.97z"></path>
  </symbol>
  <symbol xmlns="http://www.w3.org/2000/svg" aria-hidden="true" data-prefix="fas" data-icon="folder-open" shape-rendering="geometricPrecision" text-rendering="geometricPrecision" image-rendering="optimizeQuality" fill-rule="evenodd" clip-rule="evenodd" viewBox="0 0 222.43 148.29" id="folder-open">
    <path d="M221.16 88.08l-27.97 47.94a24.724 24.724 0 01-21.35 12.26H17.39c-7.15 0-11.61-7.76-8.01-13.94L37.35 86.4A24.724 24.724 0 0158.7 74.14h154.45c7.15 0 11.61 7.76 8.01 13.94zM58.7 61.79h126.66V43.25c0-10.24-8.3-18.54-18.54-18.54h-61.79L80.32 0H18.53C8.29 0-.01 8.3-.01 18.54v107.37l26.68-45.73c6.62-11.35 18.89-18.39 32.02-18.39z" fill-rule="nonzero"></path>
  </symbol>
  <symbol xmlns="http://www.w3.org/2000/svg" shape-rendering="geometricPrecision" text-rendering="geometricPrecision" image-rendering="optimizeQuality" fill-rule="evenodd" clip-rule="evenodd" viewBox="0 0 220.63 147.4" id="folder-open2">
    <path d="M47.04 85.54c8.54-14.3 16.13-11.68 35.15-11.68h110.46c4.55 0 11-.96 13.84 1.77 4.03 3.87.82 7.91-1.2 11.28l-17.72 29.5c-4 6.63-7.37 14.35-14.34 17.27-5.84 2.45-22.32 1.52-29.81 1.52-3.67 0-121.99.38-125.95-.13l29.56-49.53zM12.4 120.89c-.26-33.14.12-66.33-.02-99.45-.04-8.53 3.06-8.81 10.97-8.81h39.62c3.26 0 6.82-.14 10.04-.03 2.25.08 2.26.64 3.39 1.81l12.19 12.22c13.58 13.56 6.56 10.51 29.2 10.51h39.62c6.09 0 13.16-1.08 14.12 5.33.37 2.47.35 16.61-.01 19.1-4.79.55-70.8.09-81.75.09-17.7 0-33.82-3.04-45.68 8.95-4.24 4.29-7.62 10.69-10.95 16.25-3.36 5.61-6.82 11.37-10.2 17.01L12.9 120.4c-.05.06-.21.32-.25.24-.04-.07-.17.17-.26.24zm171.68-59.26c-1.9-9.62 4.91-27.79-10.9-35.13-5.38-2.5-15.21-1.66-21.76-1.66-8.49 0-40.51.47-46.01.02-2.1-.17-9.91-8.87-11.85-10.8-3.96-3.97-7.68-7.61-11.61-11.61C80.74 1.22 80.52.37 78.2.3 67.13-.03 49.52.33 38.15.33c-15.3 0-29.06-3.1-35.97 9.97C-.84 16 .14 24.1.14 31.05v91.65c0 8.86.1 12.92 4.61 18.6 4.03 5.07 10.26 6.12 16.59 6.11h138.08c13.53 0 23.65-1.42 32.07-13.86 4.44-6.56 12.68-21.03 17.31-28.7 2.94-4.87 5.87-9.63 8.71-14.5 3.3-5.66 4.26-11.11 1.43-17.98-5.87-14.24-23.01-10.26-34.88-10.74z"></path>
  </symbol>
  <symbol xmlns="http://www.w3.org/2000/svg" aria-hidden="true" data-prefix="fas" data-icon="home" shape-rendering="geometricPrecision" text-rendering="geometricPrecision" image-rendering="optimizeQuality" fill-rule="evenodd" clip-rule="evenodd" viewBox="0 0 105.51 82.05" id="home">
    <path d="M51.36 21.29L17.59 49.1v30.02c0 1.62 1.31 2.93 2.93 2.93L41.04 82a2.938 2.938 0 002.92-2.93V61.54c0-1.62 1.31-2.93 2.93-2.93h11.72c1.62 0 2.93 1.31 2.93 2.93v17.53c0 1.62 1.31 2.93 2.93 2.93l20.52.06c1.62 0 2.93-1.31 2.93-2.93V49.09L54.16 21.3c-.4-.32-.89-.5-1.4-.5-.51 0-1 .18-1.4.5zm53.34 18.9L89.39 27.57V2.2a2.2 2.2 0 00-2.2-2.2H76.93a2.2 2.2 0 00-2.2 2.2v13.3L58.33 2.01c-1.57-1.3-3.55-2-5.59-2s-4.01.71-5.59 2L.79 40.19c-.5.42-.8 1.04-.8 1.69 0 .51.18 1.01.51 1.4l4.67 5.68c.42.51 1.04.8 1.7.8.51 0 1.01-.18 1.4-.5l43.08-35.49c.4-.32.89-.49 1.4-.49.51 0 1 .18 1.4.49l43.08 35.49c.39.33.89.5 1.4.5.65 0 1.28-.29 1.69-.8l4.67-5.68c.32-.39.5-.89.5-1.4 0-.66-.3-1.29-.81-1.71z" fill-rule="nonzero"></path>
  </symbol>
  <symbol xmlns="http://www.w3.org/2000/svg" aria-hidden="true" data-prefix="fas" data-icon="hashtag" shape-rendering="geometricPrecision" text-rendering="geometricPrecision" image-rendering="optimizeQuality" fill-rule="evenodd" clip-rule="evenodd" viewBox="0 0 122.04 122.04" id="integer">
    <path d="M120.05 40.89l1.95-10.9c.36-2-1.18-3.84-3.22-3.84H98.4l3.98-22.31c.36-2-1.18-3.84-3.22-3.84H88.09a3.28 3.28 0 00-3.22 2.69l-4.19 23.46H53.81l3.98-22.31c.36-2-1.18-3.84-3.22-3.84H43.5a3.28 3.28 0 00-3.22 2.69l-4.19 23.46H14.54a3.28 3.28 0 00-3.22 2.69l-1.95 10.9c-.36 2 1.18 3.84 3.22 3.84h20.38l-6.23 34.87H5.19a3.28 3.28 0 00-3.22 2.69L.02 92.04c-.36 2 1.18 3.84 3.22 3.84h20.38l-3.98 22.31c-.36 2 1.18 3.84 3.22 3.84h11.07a3.28 3.28 0 003.22-2.7l4.19-23.46h26.87l-3.98 22.31c-.36 2 1.18 3.84 3.22 3.84h11.07a3.28 3.28 0 003.22-2.7l4.19-23.46h21.55a3.28 3.28 0 003.22-2.7l1.95-10.9c.36-2-1.18-3.84-3.22-3.84H89.05l6.23-34.87h21.55a3.28 3.28 0 003.22-2.69zm-48.7 37.56H44.48l6.23-34.87h26.87l-6.23 34.87z" fill-rule="nonzero"></path>
  </symbol>
  <symbol xmlns="http://www.w3.org/2000/svg" aria-hidden="true" data-prefix="fas" data-icon="map-marker-alt" shape-rendering="geometricPrecision" text-rendering="geometricPrecision" image-rendering="optimizeQuality" fill-rule="evenodd" clip-rule="evenodd" viewBox="0 0 73.67 98.23" id="locality-selection">
    <path d="M33.05 96.25C5.17 55.84 0 51.69 0 36.84 0 16.5 16.49 0 36.84 0c20.34 0 36.84 16.49 36.84 36.84 0 14.85-5.17 19-33.05 59.41-1.83 2.64-5.74 2.64-7.57 0zm3.79-44.06c8.48 0 15.35-6.87 15.35-15.35s-6.87-15.35-15.35-15.35-15.35 6.87-15.35 15.35 6.87 15.35 15.35 15.35z" fill-rule="nonzero"></path>
  </symbol>
  <symbol xmlns="http://www.w3.org/2000/svg" shape-rendering="geometricPrecision" text-rendering="geometricPrecision" image-rendering="optimizeQuality" fill-rule="evenodd" clip-rule="evenodd" viewBox="0 0 136.26 120.93" id="map-marked">
    <path d="M94.7 112.5l-.09-53.06 34.02-12.48.31 53.62L94.7 112.5zM49.24 54.16c.05.05.11.06.13.15.02.09.1.11.13.15l7.55 10.03c1.37 1.78 2.71 3.31 4.11 5.03 6.31 7.76 7.04 8.43 13.5.54 1.52-1.86 8.49-10.13 9.1-11.59.62.19 1.11.36 1.73.56 1.17.37 1.54.34 1.54 1.42 0 7.28.26 48.26-.08 52L49.26 99.17l-.02-44.99zM7.65 111.72l-.33-53.26c.21-.8 7.63-3.04 8.28-3.26 2.82-.99 5.73-1.96 8.63-2.98 2.9-1.02 5.87-1.98 8.62-2.98 2.63-.95 6.21-2.41 8.8-3v52.97l-34 12.52zm60.44-45.69c-.48-.7-.94-1.15-1.56-1.89-6.82-8.13-15.35-19.62-19.45-28.95-3.2-7.28-.69-14.71 3.31-19.54 4.23-5.11 11.06-8.13 17.87-8.11 14.84.05 26.77 14.17 20.86 27.82-3.6 8.32-13.29 21.87-19.6 29.05l-1.43 1.63zM40.28 38.45c-.78.67-25.45 9.01-30.03 10.65-3.81 1.36-6.89 1.83-8.87 4.7C-.57 56.64.11 62.31.11 66.1v47.66c0 2.14-.37 4.42.98 5.92 2.34 2.6 7.04-.12 9.93-1.18l29.77-10.97c5.92-2.14 4.09-1.95 10.07.17 6.77 2.4 13.44 4.69 20.27 7.14 3.27 1.17 6.67 2.34 10.03 3.54 10.47 3.73 10.51 3.23 21.42-.66 3.36-1.2 6.7-2.37 10.08-3.49 3.47-1.15 6.68-2.29 10.08-3.5 5.51-1.97 11.08-2.68 12.9-7.34.94-2.41.5-17.07.5-20.23l.01-40.75c-.03-6.56-5.36-4.25-7.66-3.45-6.67 2.33-13.14 4.91-19.82 7.34l-14.96 5.54c-3.37 1.25-1.96 1.09-5.28.31 1.35-3.03 4.54-6.75 7.29-13.12 3.54-8.19 3.59-16.1-1.17-24.14-13.51-22.86-48.6-18.36-55.63 6.62-2.04 7.24-.83 10.57 1.35 16.96z"></path>
    <path d="M66.67 24.73c-7.03 1.8-4.47 12.83 2.98 10.92 2.56-.66 4.84-3.59 3.95-6.97-.67-2.55-3.52-4.81-6.92-3.94z"></path>
  </symbol>
  <symbol xmlns="http://www.w3.org/2000/svg" shape-rendering="geometricPrecision" text-rendering="geometricPrecision" image-rendering="optimizeQuality" fill-rule="evenodd" clip-rule="evenodd" viewBox="0 0 134.66 119.76" id="number"><text x="-2.94" y="117.86" font-style="italic" font-weight="900" font-size="163.09" font-family="Roboto Black">.0</text></symbol>
  <symbol xmlns="http://www.w3.org/2000/svg" shape-rendering="geometricPrecision" text-rendering="geometricPrecision" image-rendering="optimizeQuality" fill-rule="evenodd" clip-rule="evenodd" viewBox="0 0 102.18 112.12" id="offices">
    <path d="M12.62 17.25h7.79c-.14.34-.28.69-.41 1.04-.18.49-.36.98-.52 1.47-.16.48-.31.97-.44 1.45-.12.45-.24.91-.35 1.37-.05.21-.1.41-.14.62h-4.87v83.02h26.27V92.09c0-1.3 1.07-2.37 2.37-2.37h17.55c1.3 0 2.37 1.07 2.37 2.37v14.13h26.27V23.2h-4.24l-.16-.73c-.03-.12-.05-.25-.08-.37l-1.21-4.85h6.75c2.91 0 5.3 2.38 5.3 5.3v83.67h4.78c1.4 0 2.54 1.14 2.54 2.54v3.36H.01v-3.36c0-1.4 1.14-2.54 2.54-2.54h4.78V22.55c0-2.91 2.38-5.3 5.3-5.3zm40.79-14L72.91.01l-5.82 8.13-19.51 3.25 5.83-8.14zm5.58 53.11c.35-.1.83-.25 1.18-.37.35-.11.58-.2.82-.28.24-.09.48-.18.71-.28.23-.09.43-.18.64-.27.21-.09.42-.19.64-.29.22-.1.46-.22.69-.33.23-.11.44-.22.65-.34.21-.11.41-.22.63-.35.22-.13.46-.27.71-.42.25-.15.52-.32.78-.5.26-.17.53-.35.78-.54.25-.18.5-.37.76-.57.26-.2.54-.42.79-.63.25-.21.47-.4.72-.62.24-.22.51-.46.74-.69.23-.23.44-.43.63-.63s.38-.39.59-.63c.22-.24.47-.53.73-.83a29.584 29.584 0 001.42-1.83c.2-.28.37-.53.54-.79.17-.26.34-.53.5-.78.15-.25.29-.49.43-.73s.27-.48.39-.71c.12-.23.23-.44.34-.66.11-.22.21-.43.31-.65.1-.21.19-.43.29-.66.1-.24.21-.49.3-.73.1-.24.18-.46.27-.7.09-.24.18-.5.27-.78.09-.29.19-.61.3-.97.1-.36.21-.77.3-1.15.09-.38.17-.75.24-1.09a24.992 24.992 0 00.35-2.23c.04-.36.07-.64.09-.93l.06-.94c.01-.32.02-.65.02-.99 0-.34-.01-.71-.02-1.1-.02-.4-.04-.83-.07-1.21-.03-.38-.06-.7-.1-1.01-.04-.31-.08-.62-.13-.95-.05-.33-.12-.69-.2-1.1-.08-.4-.18-.85-.23-1.07l-.05-.22-.95 1.33c-.95 1.33-2.86 3.99-3.81 5.32l-.95 1.33-.01.13c-.01.13-.04.39-.07.67-.03.29-.07.6-.11.84-.03.24-.06.4-.09.58-.03.18-.07.37-.11.56-.04.2-.09.4-.14.62-.05.21-.11.43-.18.67-.07.24-.15.5-.23.75-.08.26-.17.51-.26.76-.09.24-.18.48-.28.73-.1.25-.22.52-.33.77-.11.25-.22.47-.36.75-.14.27-.31.59-.46.87a20.086 20.086 0 01-.85 1.39c-.14.2-.25.37-.41.59a22.222 22.222 0 01-1.15 1.44c-.2.23-.41.46-.59.65-.18.2-.34.36-.55.55-.2.2-.45.43-.64.6-.19.17-.32.29-.47.41-.15.13-.32.26-.49.4-.17.14-.36.28-.61.46s-.58.41-1 .68c-.42.27-.93.57-1.34.8-.41.23-.72.39-1.04.54-.32.15-.66.3-.99.44-.33.14-.67.26-.96.37-.3.11-.57.2-.82.27-.25.08-.47.14-.75.21-.28.07-.6.15-.77.19l-.16.04.18 1.06c.19 1.06.56 3.19.74 4.25l.19 1.06.2-.05c.2-.05.61-.14.93-.22.31-.08.54-.14.89-.24zm-20.44-2.21c.24.13.54.29.82.42.27.14.51.25.77.37s.54.24.85.37c.31.13.64.26.96.38.32.12.61.23.88.32s.51.17.75.24c.24.07.47.14.72.21.25.07.53.14.9.23l1.13.25c.32.06.53.1.76.14.23.04.48.07.71.11.22.03.42.06.6.08.18.02.35.04.51.05.17.02.33.03.49.04a131.426 131.426 0 001.05.06c.21.01.43.01.64.01h.58c.19 0 .39-.01.68-.02.28-.01.65-.03.83-.04l.18-.01-.19-1.07c-.19-1.07-.56-3.21-.75-4.28l-.19-1.07h-.11c-.11 0-.34.01-.57.01-.23 0-.45 0-.67-.01-.22-.01-.42-.01-.62-.03-.2-.01-.39-.02-.61-.04-.22-.02-.46-.04-.68-.07-.22-.03-.41-.05-.63-.09-.22-.03-.47-.08-.74-.13s-.56-.11-.8-.17c-.24-.05-.43-.1-.67-.17-.24-.07-.52-.15-.78-.23-.26-.08-.48-.15-.72-.24-.24-.08-.48-.17-.72-.27-.23-.09-.45-.18-.69-.29-.24-.1-.49-.22-.72-.33a17.875 17.875 0 01-1.13-.59c-.15-.08-.28-.16-.34-.19l-.06-.04-.63.88c-.63.88-1.89 2.64-2.52 3.51l-.63.88.13.07c.13.08.38.23.59.35.21.12.38.22.62.35zm-12.5-14.38c.08.22.21.54.31.79.1.26.19.46.28.66.09.21.19.42.29.63.1.21.19.4.3.62a26.263 26.263 0 00.83 1.53c.17.29.36.59.5.83.15.24.26.41.37.57.11.16.21.31.33.48.12.17.25.35.38.52.13.17.25.34.4.53.15.19.31.39.47.58.15.19.3.36.43.52.14.16.26.3.43.48a25.545 25.545 0 001.18 1.22c.21.21.44.42.68.63.24.21.49.44.66.58.17.14.24.21.28.24l.04.03.63-.88 2.52-3.52.63-.88-.15-.13c-.15-.13-.44-.4-.69-.64-.25-.24-.45-.44-.66-.67-.21-.22-.43-.46-.63-.7-.2-.23-.39-.46-.58-.7-.19-.24-.38-.49-.57-.75-.19-.26-.37-.53-.54-.8-.18-.27-.34-.54-.49-.79-.15-.25-.28-.49-.4-.71-.12-.22-.21-.41-.33-.65-.12-.24-.26-.54-.39-.85-.13-.31-.27-.64-.37-.9-.1-.27-.18-.47-.25-.7-.08-.23-.16-.49-.21-.67a3.55 3.55 0 01-.1-.33l-.01-.05-1.07.18-4.27.72-1.07.18.04.16c.04.16.13.49.21.77.08.28.16.52.23.75.07.22.14.43.2.59.06.17.1.29.19.52zm9.41-31.36c-.16.12-.38.28-.59.45a22.814 22.814 0 00-1.32 1.09c-.24.21-.48.43-.72.66-.24.23-.49.47-.73.72s-.49.51-.7.74c-.21.23-.39.43-.57.64-.18.21-.36.43-.53.64-.17.22-.34.43-.51.66-.18.23-.36.49-.54.74-.18.25-.35.51-.52.77-.17.26-.33.52-.5.8-.17.28-.34.58-.5.86-.16.28-.3.55-.43.81-.14.27-.27.54-.4.81s-.25.55-.38.85c-.13.31-.27.64-.41 1.03-.15.38-.3.81-.43 1.21-.13.4-.24.76-.35 1.15-.11.39-.22.83-.3 1.15-.08.32-.12.53-.18.84-.06.31-.13.73-.19 1.08-.06.35-.09.62-.13.92a22.168 22.168 0 00-.16 1.86c-.02.28-.02.51-.03.82 0 .31-.01.71.01 1.18a32.06 32.06 0 00.15 2.37l.02.16 1.06-.18 4.26-.72 1.06-.18-.01-.1c-.01-.1-.03-.3-.04-.54-.02-.24-.03-.52-.04-.78-.01-.26-.01-.49-.01-.69 0-.2 0-.35.01-.59s.02-.56.05-.86c.02-.3.05-.58.08-.87.03-.29.07-.59.12-.89.05-.3.1-.6.18-.97.08-.37.18-.79.27-1.12.09-.33.15-.56.23-.81.08-.25.17-.53.26-.79s.19-.5.29-.76c.1-.26.22-.53.36-.82.14-.3.29-.62.44-.9.15-.29.28-.54.44-.81.16-.27.33-.56.5-.83a19.512 19.512 0 01.99-1.42c.17-.22.34-.44.52-.66.18-.22.38-.44.56-.65.18-.21.36-.39.55-.59.19-.2.4-.4.6-.59.19-.19.37-.35.55-.51.18-.16.36-.31.55-.47.19-.16.4-.32.66-.51.25-.19.55-.41.9-.63.34-.23.73-.47 1.12-.7.4-.23.8-.45 1.13-.62.32-.17.56-.28.68-.33l.12-.06.97-1.36c.97-1.36 2.92-4.08 3.89-5.44l.97-1.36-.07.01c-.07.01-.21.02-.38.04s-.38.05-.59.08c-.21.03-.43.06-.61.09-.19.03-.35.06-.51.09l-.48.09c-.16.03-.33.07-.48.1-.15.03-.3.07-.44.1s-.27.07-.53.13c-.26.07-.66.18-.99.28-.34.1-.62.19-.88.28-.26.09-.51.17-.79.28-.28.1-.59.23-.89.35-.3.12-.59.25-.85.37-.27.12-.51.24-.81.38-.29.15-.63.32-.94.49-.31.17-.61.33-.88.5-.27.16-.53.32-.84.52-.31.2-.67.44-.89.6-.23.15-.32.22-.48.34zm32.29 22.96l-3.24-19.5-5.81 8.14 3.25 19.51 5.81-8.15zm8.42-11.87L72.93 0l-5.81 8.14 3.25 19.51 5.81-8.15zM45 15.12l19.5-3.24-5.82 8.14-19.51 3.25L45 15.13z"></path>
  </symbol>
  <symbol xmlns="http://www.w3.org/2000/svg" shape-rendering="geometricPrecision" text-rendering="geometricPrecision" image-rendering="optimizeQuality" fill-rule="evenodd" clip-rule="evenodd" viewBox="0 0 526.06 557.02" id="open-pmo">
    <path d="M281.88 31.49L471 .02l-56.41 78.9-189.26 31.49 56.56-78.92zm54.11 515.13c3.4-1.02 8.03-2.46 11.45-3.58s5.62-1.91 7.92-2.77c2.29-.86 4.68-1.79 6.87-2.68 2.2-.89 4.21-1.74 6.23-2.62 2.02-.88 4.05-1.8 6.22-2.82 2.17-1.02 4.47-2.14 6.67-3.24 2.19-1.1 4.26-2.18 6.28-3.26 2.02-1.09 3.97-2.17 6.1-3.39 2.13-1.22 4.43-2.58 6.87-4.09 2.43-1.5 5.01-3.15 7.57-4.84 2.56-1.69 5.1-3.45 7.57-5.21 2.47-1.76 4.87-3.54 7.4-5.49 2.53-1.95 5.2-4.08 7.62-6.08s4.59-3.87 6.97-5.99c2.37-2.12 4.94-4.49 7.22-6.67 2.28-2.18 4.28-4.16 6.16-6.09 1.88-1.92 3.65-3.78 5.76-6.12 2.12-2.34 4.6-5.14 7.06-8.07 2.46-2.93 4.92-5.98 7.25-8.99s4.52-5.98 6.45-8.69c1.93-2.71 3.6-5.17 5.27-7.7 1.66-2.54 3.32-5.16 4.82-7.61a250.1 250.1 0 004.15-7.05c1.32-2.32 2.61-4.69 3.79-6.91 1.18-2.22 2.24-4.3 3.27-6.39 1.03-2.09 2.04-4.19 3.01-6.28.96-2.09 1.89-4.16 2.86-6.44.97-2.28 2-4.77 2.93-7.09a247.478 247.478 0 005.2-14.4c.91-2.79 1.88-5.89 2.87-9.4 1-3.51 2.04-7.42 2.94-11.14.9-3.72 1.68-7.26 2.35-10.6.67-3.35 1.23-6.51 1.8-10.23.57-3.72 1.14-8.01 1.55-11.49.41-3.48.66-6.16.88-9.06.22-2.9.4-6.02.53-9.16.13-3.14.2-6.29.21-9.62.01-3.33-.04-6.84-.19-10.71-.15-3.87-.4-8.09-.68-11.75-.29-3.66-.6-6.77-.96-9.81-.36-3.04-.76-6.01-1.27-9.25-.51-3.23-1.12-6.73-1.9-10.64-.78-3.91-1.74-8.23-2.21-10.39l-.48-2.16-9.24 12.9c-9.24 12.9-27.72 38.72-36.96 51.62l-9.24 12.91-.11 1.25c-.11 1.25-.33 3.74-.65 6.51-.31 2.77-.71 5.81-1.04 8.14-.33 2.33-.6 3.93-.92 5.65-.31 1.72-.67 3.57-1.08 5.48-.4 1.91-.85 3.9-1.36 5.97a198.778 198.778 0 01-3.92 13.85c-.79 2.49-1.64 4.95-2.5 7.33-.87 2.38-1.75 4.67-2.74 7.11-1 2.44-2.12 5.03-3.2 7.42-1.08 2.39-2.13 4.59-3.49 7.25-1.36 2.65-3.02 5.77-4.49 8.39-1.47 2.63-2.73 4.76-4.11 6.97-1.38 2.21-2.86 4.51-4.18 6.48-1.32 1.97-2.46 3.6-4.01 5.71-1.54 2.1-3.49 4.67-5.4 7.08-1.91 2.41-3.79 4.67-5.74 6.9-1.95 2.23-3.96 4.45-5.74 6.34a147.45 147.45 0 01-5.29 5.36c-1.97 1.91-4.37 4.15-6.21 5.83-1.84 1.68-3.12 2.79-4.56 4-1.45 1.22-3.06 2.54-4.74 3.88-1.69 1.33-3.44 2.68-5.9 4.46-2.46 1.78-5.64 4-9.71 6.58a312.7 312.7 0 01-12.99 7.76c-3.97 2.22-6.95 3.73-10.06 5.2-3.12 1.47-6.37 2.91-9.61 4.24-3.23 1.32-6.45 2.55-9.35 3.58-2.91 1.03-5.52 1.89-7.92 2.63-2.39.74-4.57 1.37-7.26 2.06-2.68.7-5.87 1.47-7.46 1.85l-1.59.39 1.8 10.3c1.8 10.3 5.39 30.9 7.19 41.21l1.8 10.3 1.98-.45c1.98-.46 5.94-1.37 8.99-2.12 3.06-.74 5.22-1.32 8.62-2.34zM137.7 525.19c2.31 1.24 5.28 2.79 7.92 4.12 2.64 1.33 4.96 2.44 7.49 3.6 2.53 1.17 5.28 2.38 8.28 3.63 3 1.25 6.25 2.55 9.33 3.71 3.07 1.16 5.96 2.19 8.58 3.08 2.62.88 4.96 1.63 7.25 2.34 2.28.69 4.52 1.34 6.98 2.02 2.47.67 5.18 1.37 8.7 2.19 3.52.81 7.84 1.74 10.99 2.38 3.15.64 5.11.98 7.33 1.34 2.22.36 4.7.73 6.88 1.03 2.17.3 4.04.53 5.79.73 1.74.2 3.35.37 4.97.52 1.61.15 3.21.29 4.77.41 1.56.12 3.08.22 4.74.31 1.66.09 3.45.18 5.44.25 1.99.07 4.19.13 6.17.15 1.98.03 3.76.03 5.63.01 1.87-.02 3.83-.06 6.59-.16 2.76-.11 6.31-.29 8.09-.38l1.78-.09-1.81-10.36-7.24-41.47-1.81-10.37-1.11.03c-1.1.02-3.32.07-5.52.08-2.21.01-4.41-.01-6.51-.07-2.1-.05-4.09-.14-6.02-.25-1.92-.11-3.79-.24-5.9-.43-2.11-.19-4.47-.44-6.56-.68-2.1-.25-3.94-.5-6.07-.83-2.13-.33-4.54-.74-7.15-1.24-2.62-.5-5.44-1.1-7.77-1.62-2.33-.53-4.17-.99-6.47-1.61-2.31-.63-5.08-1.43-7.57-2.19s-4.69-1.49-6.98-2.3c-2.29-.81-4.68-1.69-6.95-2.58-2.26-.88-4.4-1.77-6.71-2.78-2.31-1.01-4.78-2.14-7-3.21-2.22-1.06-4.19-2.05-6.02-3.01-1.83-.95-3.52-1.87-4.98-2.68-1.46-.81-2.68-1.52-3.3-1.87l-.61-.36-6.1 8.52c-6.1 8.52-18.3 25.57-24.41 34.09l-6.1 8.52 1.23.73c1.23.73 3.68 2.19 5.73 3.38 2.05 1.2 3.71 2.13 6.02 3.36zM16.48 385.72c.81 2.15 2 5.2 3 7.69s1.82 4.42 2.71 6.43c.88 2.01 1.83 4.11 2.77 6.11s1.86 3.9 2.92 5.99c1.05 2.09 2.24 4.38 3.59 6.86 1.35 2.49 2.86 5.18 4.51 7.99 1.65 2.81 3.43 5.72 4.87 8.02s2.54 3.98 3.59 5.55c1.05 1.57 2.05 3.03 3.19 4.65 1.14 1.61 2.41 3.37 3.66 5.06 1.25 1.69 2.47 3.31 3.89 5.13 1.42 1.81 3.01 3.81 4.51 5.64 1.49 1.83 2.88 3.47 4.2 5 1.32 1.53 2.57 2.93 4.15 4.67 1.58 1.73 3.5 3.79 5.45 5.81 1.95 2.02 3.93 4.02 6 6.03 2.07 2.01 4.24 4.05 6.55 6.15 2.31 2.1 4.78 4.26 6.38 5.65 1.6 1.39 2.34 2 2.71 2.31l.37.31 6.1-8.52 24.41-34.09 6.1-8.52-1.42-1.3c-1.42-1.3-4.27-3.9-6.69-6.21-2.41-2.3-4.39-4.29-6.43-6.45-2.05-2.16-4.15-4.49-6.13-6.77-1.97-2.27-3.81-4.5-5.65-6.83-1.84-2.34-3.69-4.78-5.5-7.3-1.81-2.52-3.58-5.11-5.28-7.72-1.7-2.61-3.32-5.24-4.77-7.7-1.46-2.46-2.74-4.76-3.86-6.84-1.12-2.09-2.09-3.97-3.24-6.35-1.15-2.38-2.48-5.25-3.79-8.26s-2.58-6.17-3.58-8.74c-1-2.57-1.71-4.57-2.46-6.82-.75-2.24-1.54-4.73-2.07-6.45-.54-1.73-.81-2.7-.95-3.18l-.14-.49-10.35 1.75c-10.35 1.75-31.05 5.25-41.4 6.99l-10.34 1.75.43 1.58c.43 1.57 1.29 4.72 2.08 7.46s1.51 5.08 2.2 7.24c.69 2.16 1.35 4.14 1.91 5.75.56 1.61 1.01 2.86 1.82 5zm91.27-304.17a332.36 332.36 0 00-5.71 4.32c-2.05 1.58-3.99 3.14-6.11 4.9a260.035 260.035 0 00-13.66 12.1c-2.35 2.23-4.75 4.59-7.12 7.02-2.37 2.42-4.72 4.92-6.76 7.16-2.05 2.23-3.78 4.21-5.52 6.26-1.74 2.05-3.49 4.17-5.17 6.26a233.52 233.52 0 00-4.98 6.43 281.6 281.6 0 00-5.2 7.18c-1.72 2.46-3.39 4.92-5.02 7.44-1.63 2.51-3.23 5.06-4.87 7.78-1.62 2.71-3.28 5.57-4.79 8.29-1.51 2.72-2.88 5.3-4.2 7.89-1.32 2.6-2.6 5.21-3.84 7.85-1.24 2.64-2.43 5.3-3.7 8.27-1.26 2.97-2.58 6.23-3.98 9.95-1.4 3.72-2.87 7.88-4.14 11.72a226.77 226.77 0 00-3.39 11.19c-1.06 3.84-2.12 8-2.86 11.12-.75 3.1-1.19 5.15-1.76 8.2-.58 3.04-1.3 7.07-1.84 10.43-.54 3.36-.91 6.04-1.25 8.9-.34 2.86-.66 5.88-.92 9.01-.27 3.12-.49 6.34-.64 9.05-.15 2.71-.23 4.92-.28 7.94-.04 3.02-.05 6.87.08 11.45.13 4.58.4 9.89.69 14.11.29 4.22.6 7.35.75 8.92l.15 1.57 10.32-1.75c10.32-1.74 30.97-5.23 41.29-6.97l10.33-1.74-.09-.98c-.08-.98-.25-2.93-.4-5.27-.15-2.33-.29-5.03-.37-7.53-.08-2.49-.11-4.77-.12-6.68 0-1.91.02-3.44.11-5.75s.24-5.41.45-8.32c.21-2.92.47-5.66.8-8.46.33-2.81.72-5.68 1.19-8.58.47-2.91 1.01-5.84 1.77-9.39.77-3.54 1.77-7.7 2.59-10.88.82-3.19 1.47-5.4 2.25-7.85.78-2.44 1.68-5.12 2.57-7.63.9-2.51 1.8-4.87 2.8-7.36 1.02-2.49 2.13-5.12 3.45-7.99 1.32-2.88 2.84-6 4.25-8.78 1.42-2.78 2.74-5.21 4.25-7.84 1.52-2.63 3.23-5.46 4.89-8.08 1.66-2.63 3.28-5.05 4.86-7.31 1.58-2.27 3.12-4.38 4.74-6.5 1.61-2.13 3.31-4.25 5.09-6.4 1.78-2.15 3.64-4.31 5.43-6.3 1.78-1.99 3.49-3.81 5.36-5.73 1.87-1.91 3.92-3.93 5.8-5.73 1.89-1.8 3.62-3.37 5.35-4.91 1.74-1.53 3.48-3.01 5.36-4.55 1.88-1.54 3.9-3.14 6.36-4.98 2.47-1.84 5.37-3.93 8.7-6.15 3.32-2.22 7.04-4.57 10.89-6.81 3.84-2.24 7.8-4.38 10.93-6 3.13-1.61 5.43-2.71 6.58-3.25l1.15-.54 9.44-13.19c9.44-13.19 28.32-39.56 37.76-52.74l9.45-13.19-.67.07c-.66.07-2 .22-3.68.42-1.68.2-3.7.45-5.75.73a285.405 285.405 0 00-10.92 1.73c-1.57.29-3.13.58-4.7.89-1.58.31-3.16.64-4.66.97-1.5.33-2.92.65-4.26.96-1.35.32-2.64.63-5.19 1.31-2.55.68-6.37 1.73-9.65 2.69-3.28.96-6.01 1.83-8.56 2.68-2.55.85-4.92 1.68-7.62 2.69s-5.73 2.18-8.63 3.37c-2.9 1.19-5.68 2.38-8.27 3.55s-5.01 2.3-7.85 3.71c-2.85 1.41-6.12 3.1-9.17 4.75-3.05 1.64-5.87 3.24-8.51 4.8-2.65 1.56-5.13 3.08-8.12 5.02-2.99 1.94-6.47 4.28-8.68 5.79-2.21 1.51-3.13 2.17-4.67 3.31zm313.16 222.72l-31.47-189.11-56.38 78.92 31.49 189.27 56.36-79.07zm81.67-115.14L471.12.01l-56.38 78.92 31.49 189.26 56.36-79.07zm-302.36-42.49l189.12-31.46-56.41 78.9-189.27 31.49 56.56-78.93z"></path>
  </symbol>
  <symbol xmlns="http://www.w3.org/2000/svg" shape-rendering="geometricPrecision" text-rendering="geometricPrecision" image-rendering="optimizeQuality" fill-rule="evenodd" clip-rule="evenodd" viewBox="0 0 419.01 335.81" id="permission">
    <path d="M318.76 241.91c26.19-7.6 38.18 31.97 11.7 39.95-26.58 8.01-38.29-32.23-11.7-39.95zm-14.96-53.24c-.67-5.14-.21-38.77-.23-47.03-.02-9.41.46-13.06 5.12-19.03 6.87-8.79 22.47-10.91 32.36.91 3.96 4.73 4.41 11.07 4.39 18.8-.03 14.2 1.03 32.63-.15 46.34h-41.5zm-31.74-.1c-23.93 1.54-41.74-6.06-41.73 29.68.01 23.48 0 46.97 0 70.45 0 21.18-5.06 46.47 24.21 46.51h140.92c5.99-.04 9.93-.83 14.08-3.7 3.03-2.1 6.15-5.37 7.79-9.99 2.73-7.69 1.37-92.07 1.37-103.95.02-32.66-16.65-28.89-41.65-28.89-2.77-22.98 4.29-53.45-4.76-73.82-18.86-42.42-78.91-39.79-95.65.29-8.46 20.25-2.65 50.27-4.57 73.42zM215.02 335.2c-6.78-16.84-5.64-13.69-5.64-34.19v-38.99c0-17.21-2.89-60.74 5.13-72.15-4.73-1.44-12.99-1.48-18.15-1.21-3.61.19-10.04 3.35-13.97 4.64-10.4 3.42-20.1 5.34-31.79 5.7-11.98.38-22.61-.89-33.72-3.84-17.91-4.75-11.62-7-30.6-6.42-42.74 1.3-74.45 30.38-83.3 65.89C-.05 266.82.11 276.42.11 289.39c0 13.37-1.23 21.6 5.18 31.74 12.11 19.16 38.2 14.08 60.47 14.08h149.27zM63.4 93.07c5.2 42.7 42.98 79.41 92.22 74.07 42.71-4.62 79.35-43.31 74.15-92.37-1.25-11.85-4.97-23.51-10.36-32.09-4.66-7.43-7.79-12.06-13.53-17.93C190.79 9.31 164.86-2.77 137.36.55 92.08 6.03 57.75 46.84 63.39 93.07z"></path>
  </symbol>
  <symbol xmlns="http://www.w3.org/2000/svg" shape-rendering="geometricPrecision" text-rendering="geometricPrecision" image-rendering="optimizeQuality" fill-rule="evenodd" clip-rule="evenodd" viewBox="0 0 256.54 205.43" id="permission2">
    <path d="M153.82 186.72c-.39-3.43-.07-32.04-.07-38.09 0-21.5-1.9-20.41 17.92-20.41 3.95 0 64.71-.35 67.08.22 7.09 1.7 4.66 14.55 4.66 23.95v19.25c0 22.03 1.86 20.72-18.17 20.72h-57.76c-6.04 0-12.93.74-13.66-5.65zm63.85-71.26l-38.24-.01c-.45-6.65-.66-21.76 1.54-27.01 6.38-15.18 28.57-15.13 35.15-.2 2.1 4.78 2.25 21.15 1.55 27.21zm-51.19-.06c-8.58.56-11.24-.83-17.9 3.86-3.48 2.45-7.19 7.6-7.58 14.28-.52 8.72-.05 32.68-.05 43.13 0 7.25-.46 13.5 2.75 19.18 6.72 11.88 21.5 9.28 33.83 9.28 9.55 0 58.6.66 63.89-.57 5.8-1.36 10.05-5.03 12.4-9.37 3.16-5.84 2.4-11.83 2.4-18.93v-21.77c0-16.39 2.78-26.46-7.79-35.31-4.58-3.83-10.69-3.72-17.7-3.72-1.72-14.51 2.97-24.04-5.23-36.56-13.33-20.35-41.94-18.98-53.93.14-7.71 12.29-3.86 21.72-5.09 36.36zm-37.93 13.01c.6-.96 1.6-4.89 2.24-6.43.98-2.36 2.23-3.75 2.98-5.8-8.5-1.03-12.74-1.2-20.7 1.48-31.52 10.63-44.73-2.09-59.03-2.29-26.61-.37-46.93 18.92-52.3 40.39-1.91 7.64-1.7 13.68-1.7 21.74 0 8.41-.72 13.2 3.5 19.52 7.21 10.79 23.24 8.11 38.35 8.11h92.63c-1.14-2.07-2.34-3.56-3.46-5.88-1.13-2.35-1.41-4.4-2.41-6.79-5.58-.57-85.05-.09-96.39-.09-4.99 0-14.72 1.14-17.58-1.88-3.65-3.85-2.02-27.85.47-34.69 7.08-19.45 27.48-32.01 47.45-25.8 37.73 11.73 47.83-1.66 65.93-1.58zm-.81-71.87c-2.67 19.3-20.46 35.97-43.21 32.78-21.23-2.98-35.89-22.13-32.84-43.44 2.75-19.26 20.67-35.79 43.41-32.55 19.22 2.74 35.79 20.47 32.65 43.21zm-89.01 0c2.48 26.24 26.5 48.65 56.11 45.8 26.42-2.55 48.57-26.35 45.81-56.21C138.22 19.92 114.05-2.84 84.42.3c-26.4 2.81-48.5 26.37-45.68 56.24z"></path>
    <path d="M196.24 147.79c-17.47 3.76-11.03 28.9 5.33 24.87 16.29-4.01 10.33-28.24-5.33-24.87z"></path>
  </symbol>
  <symbol xmlns="http://www.w3.org/2000/svg" shape-rendering="geometricPrecision" text-rendering="geometricPrecision" image-rendering="optimizeQuality" fill-rule="evenodd" clip-rule="evenodd" viewBox="0 0 145.94 165.19" id="plan">
    <path d="M15.24 36.92v40.14h10.42v-9.2c0-2.05 1.68-3.73 3.73-3.73h112.83c2.05 0 3.73 1.68 3.73 3.73v29.47c0 2.05-1.68 3.73-3.73 3.73H29.39c-2.05 0-3.73-1.68-3.73-3.73V85.58H15.24v55.61h36.37v-9.2c0-2.05 1.68-3.73 3.73-3.73h86.88c2.05 0 3.73 1.68 3.73 3.73v29.47c0 2.05-1.68 3.73-3.73 3.73H55.34c-2.05 0-3.73-1.68-3.73-3.73v-11.75H13.75c-.38.2-.82.31-1.28.31H9.49c-1.53 0-2.77-1.25-2.77-2.77V36.91H3.74c-2.05 0-3.73-1.68-3.73-3.73V3.71c0-2.05 1.68-3.73 3.73-3.73H85.4c2.05 0 3.73 1.68 3.73 3.73v29.47c0 2.05-1.68 3.73-3.73 3.73H15.25zm29.62-26.15h32.32c2.05 0 3.73 1.68 3.73 3.73v6.88c0 2.05-1.68 3.73-3.73 3.73H44.86c-2.05 0-3.73-1.68-3.73-3.73V14.5c0-2.05 1.68-3.73 3.73-3.73zm61.25 128.95h27.59c2.05 0 3.73 1.68 3.73 3.73V150c0 2.05-1.68 3.73-3.73 3.73h-27.59c-2.05 0-3.73-1.68-3.73-3.73v-6.55c0-2.05 1.68-3.73 3.73-3.73zm-4.74-64.46h32.32c2.05 0 3.73 1.68 3.73 3.73v6.88c0 2.05-1.68 3.73-3.73 3.73h-32.32c-2.05 0-3.73-1.68-3.73-3.73v-6.88c0-2.05 1.68-3.73 3.73-3.73z"></path>
  </symbol>
  <symbol xmlns="http://www.w3.org/2000/svg" aria-hidden="true" data-prefix="fas" data-icon="plus" shape-rendering="geometricPrecision" text-rendering="geometricPrecision" image-rendering="optimizeQuality" fill-rule="evenodd" clip-rule="evenodd" viewBox="0 0 354.45 354.45" id="plus">
    <path d="M329.13 139.25H215.2V25.32C215.2 11.34 203.86 0 189.88 0h-25.32c-13.98 0-25.32 11.34-25.32 25.32v113.93H25.31c-13.98 0-25.32 11.34-25.32 25.32v25.32c0 13.98 11.34 25.32 25.32 25.32h113.93v113.93c0 13.98 11.34 25.32 25.32 25.32h25.32c13.98 0 25.32-11.34 25.32-25.32V215.21h113.93c13.98 0 25.32-11.34 25.32-25.32v-25.32c0-13.98-11.34-25.32-25.32-25.32z" fill-rule="nonzero"></path>
  </symbol>
  <symbol xmlns="http://www.w3.org/2000/svg" aria-hidden="true" data-prefix="fas" data-icon="briefcase" shape-rendering="geometricPrecision" text-rendering="geometricPrecision" image-rendering="optimizeQuality" fill-rule="evenodd" clip-rule="evenodd" viewBox="0 0 164.78 144.18" id="portfolio">
    <path d="M102.99 97.84c0 2.84-2.3 5.15-5.15 5.15h-30.9a5.15 5.15 0 01-5.15-5.15V82.39H0v46.34c0 8.24 7.21 15.45 15.45 15.45h133.89c8.24 0 15.45-7.21 15.45-15.45V82.39H103v15.45zm46.35-66.94h-25.75V15.45c0-8.24-7.21-15.45-15.45-15.45H56.65C48.41 0 41.2 7.21 41.2 15.45V30.9H15.45C7.21 30.9 0 38.11 0 46.35V72.1h164.78V46.35c0-8.24-7.21-15.45-15.45-15.45zm-46.35 0H61.8V20.6h41.19v10.3z" fill-rule="nonzero"></path>
  </symbol>
  <symbol xmlns="http://www.w3.org/2000/svg" shape-rendering="geometricPrecision" text-rendering="geometricPrecision" image-rendering="optimizeQuality" fill-rule="evenodd" clip-rule="evenodd" viewBox="0 0 402.08 326.32" id="selection">
    <path d="M400.64 305.06c2.57-6.91 1.61-32.25-2.17-37.15-5.67-7.35-24.86-4.65-36.03-4.65H159.63c-12.3 0-29.05-2.92-32.79 7.89-2.61 7.56-2.31 33.05 2.36 38.01 6.73 7.16 25.19 4.2 36.16 4.2h202.81c12.66 0 28.41 2.67 32.48-8.29zm.11-126.04c2.4-7.38 1.52-32.26-2.61-36.87-5.83-6.5-25.61-4.07-35.71-4.07H158.47c-10.75 0-28.24-3.39-31.76 8.03-2.34 7.59-2.32 33.07 2.55 38.06 6.35 6.52 25.87 4 36.09 4h203.96c12.89 0 27.55 2.82 31.44-9.14zM125.83 28.91c0 19.54-3.29 33.79 15.45 33.79h244.07c19.33 0 16.02-13.6 16.02-33.79 0-11.52-4.12-16.31-16.02-16.31H141.28c-10.97 0-15.45 5.13-15.45 16.31zM75.22 315.37c1.35-5.57.43-29.03.44-36.67.01-32.68-1.38-28.03-47.81-28.06C-5.33 250.62.39 254 .37 298.18c0 12.74-1.93 24.81 10.46 27.29 7.78 1.55 28.52.47 37.65.48 12.7.01 23.69 1.98 26.75-10.58zM.37 16.31v43.54c0 10.88 5.08 15.45 16.02 15.45h43.54c10.74 0 15.73-5.2 15.73-15.45V16.31C75.66 5.54 71.31 0 59.93 0H16.39C4.93 0 .37 4.99.37 16.31zm74.76 174.17c1.41-5.27.53-29.24.53-36.67.01-33.03-.9-28.32-46.67-28.33-33.68-.01-28.61 1.63-28.62 46.66 0 11.96-1.81 25.25 9.92 27.91 6.21 1.41 28.97.43 37.04.43 13.21 0 24.51 2.35 27.8-10z"></path>
  </symbol>
  <symbol xmlns="http://www.w3.org/2000/svg" aria-hidden="true" data-prefix="fas" data-icon="sign-out-alt" shape-rendering="geometricPrecision" text-rendering="geometricPrecision" image-rendering="optimizeQuality" fill-rule="evenodd" clip-rule="evenodd" viewBox="0 0 105.96 80.75" id="sign-out-alt">
    <path d="M104.49 43.94L69.17 79.26c-3.15 3.15-8.62.95-8.62-3.57V55.51H31.96c-2.8 0-5.05-2.25-5.05-5.05V30.28c0-2.8 2.25-5.05 5.05-5.05h28.59V5.05c0-4.5 5.44-6.73 8.62-3.57l35.32 35.32a5.1 5.1 0 010 7.15zM40.37 78.21V69.8c0-1.39-1.13-2.52-2.52-2.52H20.19c-3.72 0-6.73-3.01-6.73-6.73V20.18c0-3.72 3.01-6.73 6.73-6.73h17.66c1.39 0 2.52-1.14 2.52-2.52V2.52c0-1.39-1.13-2.52-2.52-2.52H20.19C9.05 0 .01 9.04.01 20.18v40.37c0 11.14 9.04 20.18 20.18 20.18h17.66c1.39 0 2.52-1.13 2.52-2.52z" fill-rule="nonzero"></path>
  </symbol>
  <symbol xmlns="http://www.w3.org/2000/svg" aria-hidden="true" data-prefix="fas" data-icon="sort" shape-rendering="geometricPrecision" text-rendering="geometricPrecision" image-rendering="optimizeQuality" fill-rule="evenodd" clip-rule="evenodd" viewBox="0 0 36.76 51.14" id="sort">
    <path d="M3.09 29.68h30.57c2.75 0 4.12 3.33 2.18 5.27L20.55 50.24c-1.21 1.21-3.16 1.21-4.35 0L.9 34.95c-1.94-1.94-.57-5.27 2.18-5.27zm32.76-13.49L20.56.9C19.35-.31 17.4-.31 16.21.9L.91 16.19c-1.94 1.94-.57 5.27 2.18 5.27h30.57c2.75 0 4.12-3.33 2.18-5.27z" fill-rule="nonzero"></path>
  </symbol>
  <symbol xmlns="http://www.w3.org/2000/svg" aria-hidden="true" data-prefix="fas" data-icon="sort-down" shape-rendering="geometricPrecision" text-rendering="geometricPrecision" image-rendering="optimizeQuality" fill-rule="evenodd" clip-rule="evenodd" viewBox="0 0 125.88 73.49" id="sort-down">
    <path d="M10.59 0h104.7c9.41 0 14.12 11.39 7.48 18.04L70.42 70.39c-4.14 4.14-10.82 4.14-14.91 0L3.11 18.04C-3.53 11.4 1.17 0 10.59 0z" fill-rule="nonzero"></path>
  </symbol>
  <symbol xmlns="http://www.w3.org/2000/svg" aria-hidden="true" data-prefix="fas" data-icon="sort-up" shape-rendering="geometricPrecision" text-rendering="geometricPrecision" image-rendering="optimizeQuality" fill-rule="evenodd" clip-rule="evenodd" viewBox="0 0 559.72 326.81" id="sort-up">
    <path d="M512.7 326.81H47.09c-41.86 0-62.8-50.67-33.26-80.21L246.64 13.79c18.39-18.39 48.13-18.39 66.32 0L545.77 246.6c29.73 29.54 8.81 80.21-33.06 80.21z" fill-rule="nonzero"></path>
  </symbol>
  <symbol xmlns="http://www.w3.org/2000/svg" shape-rendering="geometricPrecision" text-rendering="geometricPrecision" image-rendering="optimizeQuality" fill-rule="evenodd" clip-rule="evenodd" viewBox="0 0 492.54 492.35" id="text">
    <path d="M70.9 88.39h131.74l.01 333.3c-46.85 0-61.71-6.67-61.58 26.03.21 52.97-7.6 44.07 104.78 44.07h58.41c49.54 0 47.42 1.67 47.51-41.78.07-34.23-10.22-28.32-61.57-28.32V88.39h132c-.81 54.33-2.7 52.57 41.23 52.68 10.26.03 19.52.33 25.16-7.16 5.87-7.8 3.44-46.86 3.44-59.53 0-10.83 1.25-56.24-1.31-62.85C484.54-4.4 455.44.82 438.23.82L24.81.8C-6.78.71.79 19.73.79 72.09c0 51.84-7.94 69.12 26.32 68.99 48.29-.18 43.79.64 43.79-52.69z"></path>
  </symbol>
  <symbol xmlns="http://www.w3.org/2000/svg" aria-hidden="true" data-prefix="fas" data-icon="text-width" shape-rendering="geometricPrecision" text-rendering="geometricPrecision" image-rendering="optimizeQuality" fill-rule="evenodd" clip-rule="evenodd" viewBox="0 0 188.39 188.4" id="text-area">
    <path d="M181.67 0H6.73C3.02 0 0 3.01 0 6.73v33.64c0 3.72 3.01 6.73 6.73 6.73h13.46c3.72 0 6.73-3.01 6.73-6.73v-6.73h50.46v47.1H67.29c-3.71 0-6.73 3.01-6.73 6.73v13.46c0 3.71 3.01 6.73 6.73 6.73h53.83c3.71 0 6.73-3.01 6.73-6.73V87.47c0-3.71-3.01-6.73-6.73-6.73h-10.09v-47.1h50.46v6.73c0 3.72 3.01 6.73 6.73 6.73h13.46c3.71 0 6.73-3.01 6.73-6.73V6.73c0-3.71-3.01-6.73-6.73-6.73zm-22.16 116.35c-10.64-10.65-18.21-8.55-18.21-1.97v20.19H47.1v-20.19c0-6.02-7.28-8.96-11.48-4.76L1.98 143.26a6.728 6.728 0 00-1.97 4.76c0 1.78.71 3.49 1.97 4.76l33.64 33.64c3.92 3.92 11.48 1.82 11.48-4.76v-20.18h94.2v20.18c0 6.02 7.28 8.97 11.48 4.76l33.64-33.64a6.728 6.728 0 001.97-4.76c0-1.78-.71-3.5-1.97-4.76l-26.91-26.91z" fill-rule="nonzero"></path>
  </symbol>
  <symbol xmlns="http://www.w3.org/2000/svg" aria-hidden="true" data-prefix="fas" data-icon="toggle-off" shape-rendering="geometricPrecision" text-rendering="geometricPrecision" image-rendering="optimizeQuality" fill-rule="evenodd" clip-rule="evenodd" viewBox="0 0 150.38 100.26" id="toggle-off">
    <path d="M100.25 0H50.12C22.43 0-.01 22.44-.01 50.13s22.44 50.13 50.13 50.13h50.13c27.69 0 50.13-22.44 50.13-50.13S127.94 0 100.25 0zM16.7 50.13c0-18.47 14.95-33.42 33.42-33.42 18.47 0 33.42 14.95 33.42 33.42 0 18.47-14.95 33.42-33.42 33.42-18.47 0-33.42-14.95-33.42-33.42zm83.55 33.42H87.48c17.03-19.02 17.03-47.81 0-66.84h12.77c18.47 0 33.42 14.95 33.42 33.42 0 18.47-14.95 33.42-33.42 33.42z" fill-rule="nonzero"></path>
  </symbol>
  <symbol xmlns="http://www.w3.org/2000/svg" aria-hidden="true" data-prefix="fas" data-icon="toggle-on" shape-rendering="geometricPrecision" text-rendering="geometricPrecision" image-rendering="optimizeQuality" fill-rule="evenodd" clip-rule="evenodd" viewBox="0 0 129.35 86.23" id="toggle-on">
    <path d="M86.23 0H43.12C19.32 0 0 19.31 0 43.12c0 23.8 19.31 43.12 43.12 43.12h43.11c23.8 0 43.12-19.31 43.12-43.12C129.35 19.32 110.04 0 86.23 0zm0 71.86c-15.9 0-28.74-12.87-28.74-28.74 0-15.9 12.87-28.74 28.74-28.74 15.9 0 28.74 12.87 28.74 28.74 0 15.9-12.87 28.74-28.74 28.74z" fill-rule="nonzero"></path>
  </symbol>
  <symbol xmlns="http://www.w3.org/2000/svg" shape-rendering="geometricPrecision" text-rendering="geometricPrecision" image-rendering="optimizeQuality" fill-rule="evenodd" clip-rule="evenodd" viewBox="0 0 77.05 88.06" id="trash">
    <path d="M74.3 5.5H53.66l-1.62-3.22c-.7-1.4-2.13-2.29-3.69-2.29H28.67c-1.56 0-2.98.89-3.67 2.29L23.38 5.5H2.74C1.22 5.5-.01 6.73-.01 8.25v5.5c0 1.52 1.23 2.75 2.75 2.75h71.54c1.52 0 2.75-1.23 2.75-2.75v-5.5c0-1.52-1.23-2.75-2.75-2.75zM5.51 79.8c0 4.56 3.7 8.26 8.26 8.26H63.3c4.56 0 8.25-3.7 8.25-8.26V22.01H5.51V79.8zm47.33-44.03c0-1.52 1.23-2.75 2.75-2.75s2.75 1.23 2.75 2.75v38.52c0 1.52-1.23 2.75-2.75 2.75s-2.75-1.23-2.75-2.75V35.77zm-17.45 0c0-1.52 1.23-2.75 2.75-2.75s2.75 1.23 2.75 2.75v38.52c0 1.52-1.23 2.75-2.75 2.75s-2.75-1.23-2.75-2.75V35.77zm-17.45 0c0-1.52 1.23-2.75 2.75-2.75s2.75 1.23 2.75 2.75v38.52c0 1.52-1.23 2.75-2.75 2.75s-2.75-1.23-2.75-2.75V35.77z" fill-rule="nonzero"></path>
  </symbol>
  <symbol xmlns="http://www.w3.org/2000/svg" aria-hidden="true" data-prefix="far" data-icon="trash-alt" shape-rendering="geometricPrecision" text-rendering="geometricPrecision" image-rendering="optimizeQuality" fill-rule="evenodd" clip-rule="evenodd" viewBox="0 0 131.83 150.66" id="trash-alt">
    <path d="M78.86 122.41h7.06a3.53 3.53 0 003.53-3.53V55.32a3.53 3.53 0 00-3.53-3.53h-7.06a3.53 3.53 0 00-3.53 3.53v63.56a3.53 3.53 0 003.53 3.53zm48.26-98.87h-24.25l-10-16.68A14.132 14.132 0 0080.76 0H51.08c-4.96 0-9.56 2.6-12.11 6.86L28.96 23.54H4.71c-2.6 0-4.71 2.11-4.71 4.71v4.71c0 2.6 2.11 4.71 4.71 4.71h4.71v98.87c0 7.8 6.33 14.12 14.12 14.12h84.75c7.8 0 14.12-6.32 14.12-14.12V37.67h4.71c2.6 0 4.71-2.11 4.71-4.71v-4.71c0-2.6-2.11-4.71-4.71-4.71zm-76.55-8.56c.32-.53.89-.86 1.51-.86h27.66c.62 0 1.19.33 1.51.86l5.14 8.56H45.42l5.13-8.56zm57.72 121.55H23.54V37.66h84.75v98.87zm-62.38-14.12h7.06a3.53 3.53 0 003.53-3.53V55.32a3.53 3.53 0 00-3.53-3.53h-7.06a3.53 3.53 0 00-3.53 3.53v63.56a3.53 3.53 0 003.53 3.53z" fill-rule="nonzero"></path>
  </symbol>
  <symbol xmlns="http://www.w3.org/2000/svg" aria-hidden="true" data-prefix="fas" data-icon="ruler-horizontal" shape-rendering="geometricPrecision" text-rendering="geometricPrecision" image-rendering="optimizeQuality" fill-rule="evenodd" clip-rule="evenodd" viewBox="0 0 271.2 120.53" id="unit-selection">
    <path d="M256.14 0h-22.6v41.43c0 2.08-1.69 3.77-3.77 3.77h-7.53c-2.08 0-3.77-1.69-3.77-3.77V0h-30.13v41.43c0 2.08-1.69 3.77-3.77 3.77h-7.53c-2.08 0-3.77-1.69-3.77-3.77V0h-30.13v41.43c0 2.08-1.69 3.77-3.77 3.77h-7.53c-2.08 0-3.77-1.69-3.77-3.77V0H97.94v41.43c0 2.08-1.69 3.77-3.77 3.77h-7.53c-2.08 0-3.77-1.69-3.77-3.77V0H52.74v41.43c0 2.08-1.69 3.77-3.77 3.77h-7.53c-2.08 0-3.77-1.69-3.77-3.77V0h-22.6C6.75 0 0 6.75 0 15.07v90.4c0 8.32 6.75 15.07 15.07 15.07h241.07c8.32 0 15.07-6.75 15.07-15.07v-90.4c0-8.32-6.75-15.07-15.07-15.07z"></path>
  </symbol>
  <symbol xmlns="http://www.w3.org/2000/svg" aria-hidden="true" data-prefix="far" data-icon="user-circle" shape-rendering="geometricPrecision" text-rendering="geometricPrecision" image-rendering="optimizeQuality" fill-rule="evenodd" clip-rule="evenodd" viewBox="0 0 326.86 326.86" id="user-circle">
    <path d="M163.43 63.26c-34.93 0-63.26 28.33-63.26 63.26s28.34 63.26 63.26 63.26c34.93 0 63.26-28.33 63.26-63.26s-28.34-63.26-63.26-63.26zm0 94.89c-17.46 0-31.63-14.17-31.63-31.63s14.17-31.63 31.63-31.63 31.63 14.17 31.63 31.63-14.17 31.63-31.63 31.63zm0-158.16C73.15-.01 0 73.14 0 163.42s73.15 163.43 163.43 163.43 163.43-73.15 163.43-163.43S253.71-.01 163.43-.01zm0 295.23c-32.75 0-62.67-12.06-85.74-31.9 9.82-15.16 26.62-25.44 45.86-26.03 13.71 4.22 26.76 6.33 39.87 6.33 13.11 0 26.16-2.04 39.87-6.33 19.24.66 36.05 10.88 45.87 26.03-23.07 19.84-52.98 31.9-85.74 31.9zm107.22-55.42c-16.08-20.69-40.92-34.2-69.26-34.2-6.72 0-17.13 6.32-37.96 6.32-20.76 0-31.24-6.32-37.96-6.32-28.27 0-53.11 13.51-69.26 34.2-15.42-21.55-24.58-47.91-24.58-76.38 0-72.69 59.11-131.8 131.8-131.8 72.69 0 131.8 59.11 131.8 131.8 0 28.47-9.16 54.83-24.58 76.38z" fill-rule="nonzero"></path>
  </symbol>
  <symbol xmlns="http://www.w3.org/2000/svg" shape-rendering="geometricPrecision" text-rendering="geometricPrecision" image-rendering="optimizeQuality" fill-rule="evenodd" clip-rule="evenodd" viewBox="0 0 130.68 91.68" id="users">
    <path d="M32.71 82.26c-.28-1.93-.16-9.75.08-11.77.39-3.42 1.92-6.41 3.57-8.44 3.53-4.34 9.86-6.98 17.8-4.9 18.64 4.89 21.4-2.64 31.64-.27 3.44.8 6.14 2.52 7.82 4.34C98.5 66.5 97.99 72.3 98 80.77c0 5.05-3.24 4.21-7.69 4.21H42.06c-3.67 0-8.83.94-9.35-2.72zm65.94-33.92c1.46 1.34 4.13 3.09 4.86 4.51 1.23-.04 1.87-.54 3.24-.54h8.75c4.09 0 7.55 3.46 8.4 7.65.31 1.52-.15 4.7 2.81 5.31 8.08 1.66 3.67-19.52-12.07-19.52-8.33 0-9.62-.8-16 2.58zm-71.48 4.52c.81-1.55 3.28-3.13 4.83-4.52-2.64-1.47-4.93-2.58-8.73-2.58-4.67 0-9.72-.5-14 1.37-2.59 1.13-4.8 3.22-6.4 5.56-.55.81-1.04 1.6-1.45 2.61-4.72 11.5 3.65 11.66 4.91 7.9.26-.78.23-2.35.46-3.41.8-3.69 4.12-7.47 8.31-7.47h8.81c1.4 0 2.02.51 3.26.55zm82.04-39.58c5.68-1.23 10.61 3.01 11.46 7.67 1.09 5.97-2.95 10.66-7.77 11.53-12.66 2.3-16.46-16.44-3.7-19.21zm.23-6.61c-5.01.55-8.42 2.89-10.81 5.57-4.93 5.51-5.34 14.59-.21 20.92.85 1.05.86 1.23 1.95 2.11 12.04 9.72 28.46.15 26.88-14.28-.9-8.24-8.45-15.34-17.81-14.32zM9.86 23.77c-.37-5.65 3.72-10.37 8.92-10.67 13.19-.76 14.25 18.39 1.66 19.53-5.58.51-10.25-3.77-10.58-8.87zm8.36-17.14C1.1 8.17-2.54 31.72 13.95 38.2c6.03 2.37 14.02.43 17.98-4.7 2.83-3.67 4.4-7.07 3.9-12.28-.79-8.36-8.33-15.42-17.61-14.58zm44.13.19c6.8-1.18 13.49 2.03 16.73 7.24 6.38 10.26.13 22.78-10.77 24.86-9.78 1.87-17.59-5.14-19.03-13-1.63-8.88 4.21-17.58 13.07-19.11zm.52-6.68C50.91 1.43 41.21 12.01 42.61 25.39c.56 5.36 2.77 9.81 6.39 13.41 2 1.99.52.82 3.05 2.71 4.16 3.09 10.41 4.71 15.7 4.11 5.33-.61 9.84-2.83 13.44-6.39.48-.47 1.13-.97 1.54-1.45.35-.41.79-1.07 1.18-1.6 3.24-4.41 4.67-10.16 4.12-15.72-.68-6.9-4.38-12.04-7.87-14.95C75.42 1.55 69.42-.56 62.87.15zM26.32 83.76c.79 3.89 3.84 6.76 7.69 7.58 2.99.63 11.52.21 15.08.21h30.32c5.05 0 10.35.16 15.37-.01 4.53-.15 7.69-2.88 9.03-6.22 1.02-2.57.85-11.42.61-14.59-.57-7.72-5.18-15.17-12.12-18.43-11.34-5.34-17.87-.3-25.92 0-8.97.33-16.04-5.21-26.72-.58-7.2 3.12-11.9 9.1-13.22 17.1-.4 2.4-.58 12.68-.12 14.95z"></path>
  </symbol>
  <view xmlns="http://www.w3.org/2000/svg" id="chess-knight-view" viewBox="0 0 35 35"/>
  <view xmlns="http://www.w3.org/2000/svg" id="number-view" viewBox="0 36 35 35"/>
  <view xmlns="http://www.w3.org/2000/svg" id="text-view" viewBox="0 71 35 35"/>

  <!-- <use xmlns="http://www.w3.org/2000/svg" xmlns:xlink="http://www.w3.org/1999/xlink" xlink:href="#angle-down" id="angle-down"/>
  <use xmlns="http://www.w3.org/2000/svg" xmlns:xlink="http://www.w3.org/1999/xlink" xlink:href="#angle-left" id="angle-left"/>
  <use xmlns="http://www.w3.org/2000/svg" xmlns:xlink="http://www.w3.org/1999/xlink" xlink:href="#angle-right" id="angle-right"/>
  <use xmlns="http://www.w3.org/2000/svg" xmlns:xlink="http://www.w3.org/1999/xlink" xlink:href="#angle-up" id="angle-up"/>
  <use xmlns="http://www.w3.org/2000/svg" xmlns:xlink="http://www.w3.org/1999/xlink" xlink:href="#arrow-left" id="arrow-left"/>
  <use xmlns="http://www.w3.org/2000/svg" xmlns:xlink="http://www.w3.org/1999/xlink" xlink:href="#boxes" id="boxes"/>
  <use xmlns="http://www.w3.org/2000/svg" xmlns:xlink="http://www.w3.org/1999/xlink" xlink:href="#briefcase" id="briefcase"/>
  <use xmlns="http://www.w3.org/2000/svg" xmlns:xlink="http://www.w3.org/1999/xlink" xlink:href="#briefcase" id="briefcase"/>
  <use xmlns="http://www.w3.org/2000/svg" xmlns:xlink="http://www.w3.org/1999/xlink" xlink:href="#building" id="building"/>
  <use xmlns="http://www.w3.org/2000/svg" xmlns:xlink="http://www.w3.org/1999/xlink" xlink:href="#ccb-view" id="ccb-view"/> -->
  <use xmlns="http://www.w3.org/2000/svg" xmlns:xlink="http://www.w3.org/1999/xlink" xlink:href="#chess-knight" width="35" height="35" x="0" y="0" id="chess-knighte"/>
  <!-- <use xmlns="http://www.w3.org/2000/svg" xmlns:xlink="http://www.w3.org/1999/xlink" xlink:href="#cog" id="cog"/>
  <use xmlns="http://www.w3.org/2000/svg" xmlns:xlink="http://www.w3.org/1999/xlink" xlink:href="#cogs" id="cogs"/>
  <use xmlns="http://www.w3.org/2000/svg" xmlns:xlink="http://www.w3.org/1999/xlink" xlink:href="#cogs2" id="cogs2"/>
  <use xmlns="http://www.w3.org/2000/svg" xmlns:xlink="http://www.w3.org/1999/xlink" xlink:href="#currency" id="currency"/>
  <use xmlns="http://www.w3.org/2000/svg" xmlns:xlink="http://www.w3.org/1999/xlink" xlink:href="#date" id="date"/>
  <use xmlns="http://www.w3.org/2000/svg" xmlns:xlink="http://www.w3.org/1999/xlink" xlink:href="#ellipsis-v" id="ellipsis-v"/>
  <use xmlns="http://www.w3.org/2000/svg" xmlns:xlink="http://www.w3.org/1999/xlink" xlink:href="#flag" id="flag"/>
  <use xmlns="http://www.w3.org/2000/svg" xmlns:xlink="http://www.w3.org/1999/xlink" xlink:href="#flag-check" id="flag-check"/>
  <use xmlns="http://www.w3.org/2000/svg" xmlns:xlink="http://www.w3.org/1999/xlink" xlink:href="#folder-open" id="folder-open"/>
  <use xmlns="http://www.w3.org/2000/svg" xmlns:xlink="http://www.w3.org/1999/xlink" xlink:href="#folder-open2" id="folder-open2"/>
  <use xmlns="http://www.w3.org/2000/svg" xmlns:xlink="http://www.w3.org/1999/xlink" xlink:href="#home" id="home"/>
  <use xmlns="http://www.w3.org/2000/svg" xmlns:xlink="http://www.w3.org/1999/xlink" xlink:href="#integer" id="integer"/>
  <use xmlns="http://www.w3.org/2000/svg" xmlns:xlink="http://www.w3.org/1999/xlink" xlink:href="#locality-selection" id="locality-selection"/>
  <use xmlns="http://www.w3.org/2000/svg" xmlns:xlink="http://www.w3.org/1999/xlink" xlink:href="#map-marked" id="map-marked"/> -->
  <use xmlns="http://www.w3.org/2000/svg" xmlns:xlink="http://www.w3.org/1999/xlink" xlink:href="#number" width="35" height="35" x="0" y="36" id="number"/>
  <!-- <use xmlns="http://www.w3.org/2000/svg" xmlns:xlink="http://www.w3.org/1999/xlink" xlink:href="#offices" id="offices"/>
  <use xmlns="http://www.w3.org/2000/svg" xmlns:xlink="http://www.w3.org/1999/xlink" xlink:href="#open-pmo" id="open-pmo"/>
  <use xmlns="http://www.w3.org/2000/svg" xmlns:xlink="http://www.w3.org/1999/xlink" xlink:href="#permission" id="permission"/>
  <use xmlns="http://www.w3.org/2000/svg" xmlns:xlink="http://www.w3.org/1999/xlink" xlink:href="#permission2" id="permission2"/>
  <use xmlns="http://www.w3.org/2000/svg" xmlns:xlink="http://www.w3.org/1999/xlink" xlink:href="#plan" id="plan"/>
  <use xmlns="http://www.w3.org/2000/svg" xmlns:xlink="http://www.w3.org/1999/xlink" xlink:href="#plus" id="plus"/>
  <use xmlns="http://www.w3.org/2000/svg" xmlns:xlink="http://www.w3.org/1999/xlink" xlink:href="#portfolio" id="portfolio"/>
  <use xmlns="http://www.w3.org/2000/svg" xmlns:xlink="http://www.w3.org/1999/xlink" xlink:href="#selection" id="selection"/>
  <use xmlns="http://www.w3.org/2000/svg" xmlns:xlink="http://www.w3.org/1999/xlink" xlink:href="#sign-out-alt" id="sign-out-alt"/>
  <use xmlns="http://www.w3.org/2000/svg" xmlns:xlink="http://www.w3.org/1999/xlink" xlink:href="#sort" id="sort"/>
  <use xmlns="http://www.w3.org/2000/svg" xmlns:xlink="http://www.w3.org/1999/xlink" xlink:href="#sort-down" id="sort-down"/>
  <use xmlns="http://www.w3.org/2000/svg" xmlns:xlink="http://www.w3.org/1999/xlink" xlink:href="#sort-up" id="sort-up"/> -->
  <use xmlns="http://www.w3.org/2000/svg" xmlns:xlink="http://www.w3.org/1999/xlink" xlink:href="#text" width="35" height="35" x="0" y="71" id="text"/>
  <!-- <use xmlns="http://www.w3.org/2000/svg" xmlns:xlink="http://www.w3.org/1999/xlink" xlink:href="#text-area" id="text-area"/>
  <use xmlns="http://www.w3.org/2000/svg" xmlns:xlink="http://www.w3.org/1999/xlink" xlink:href="#toggle-off" id="toggle-off"/>
  <use xmlns="http://www.w3.org/2000/svg" xmlns:xlink="http://www.w3.org/1999/xlink" xlink:href="#toggle-on" id="toggle-on"/>
  <use xmlns="http://www.w3.org/2000/svg" xmlns:xlink="http://www.w3.org/1999/xlink" xlink:href="#trash" id="trash"/>
  <use xmlns="http://www.w3.org/2000/svg" xmlns:xlink="http://www.w3.org/1999/xlink" xlink:href="#trash-alt" id="trash-alt"/>
  <use xmlns="http://www.w3.org/2000/svg" xmlns:xlink="http://www.w3.org/1999/xlink" xlink:href="#unit-selection" id="unit-selection"/>
  <use xmlns="http://www.w3.org/2000/svg" xmlns:xlink="http://www.w3.org/1999/xlink" xlink:href="#user-circle" id="user-circle"/>
  <use xmlns="http://www.w3.org/2000/svg" xmlns:xlink="http://www.w3.org/1999/xlink" xlink:href="#users" id="users"/> -->
</svg>
