<?xml version="1.0" encoding="UTF-8" standalone="no"?>
<svg
   xmlns:dc="http://purl.org/dc/elements/1.1/"
   xmlns:cc="http://creativecommons.org/ns#"
   xmlns:rdf="http://www.w3.org/1999/02/22-rdf-syntax-ns#"
   xmlns:svg="http://www.w3.org/2000/svg"
   xmlns="http://www.w3.org/2000/svg"
   xmlns:sodipodi="http://sodipodi.sourceforge.net/DTD/sodipodi-0.dtd"
   xmlns:inkscape="http://www.inkscape.org/namespaces/inkscape"
   width="128.0px"
   height="128.0px"
   viewBox="0 0 128.0 128.0"
   version="1.1"
   id="SVGRoot"
   sodipodi:docname="LogoWhite.svg"
   inkscape:version="1.0.1 (0767f8302a, 2020-10-17)">
  <defs
     id="defs470" />
  <sodipodi:namedview
     id="base"
     pagecolor="#ffffff"
     bordercolor="#666666"
     borderopacity="1.0"
     inkscape:pageopacity="0.0"
     inkscape:pageshadow="2"
     inkscape:zoom="3.959798"
     inkscape:cx="7.0084522"
     inkscape:cy="59.264157"
     inkscape:document-units="px"
     inkscape:current-layer="layer1"
     inkscape:document-rotation="0"
     showgrid="true"
     inkscape:window-width="1448"
     inkscape:window-height="1015"
     inkscape:window-x="0"
     inkscape:window-y="0"
     inkscape:window-maximized="0">
    <inkscape:grid
       type="xygrid"
       id="grid479" />
  </sodipodi:namedview>
  <metadata
     id="metadata473">
    <rdf:RDF>
      <cc:Work
         rdf:about="">
        <dc:format>image/svg+xml</dc:format>
        <dc:type
           rdf:resource="http://purl.org/dc/dcmitype/StillImage" />
        <dc:title></dc:title>
      </cc:Work>
    </rdf:RDF>
  </metadata>
  <g
     inkscape:label="Layer 1"
     inkscape:groupmode="layer"
     id="layer1">
    <path
       d="M 68.965144,8.4513594 109.7463,1.3777024 97.581741,19.114916 56.768567,26.194165 Z"
       style="fill:#ffffff;fill-rule:evenodd;stroke-width:1.03129"
       id="path32" />
    <path
       d="M 51.35444,34.336081 92.135572,27.262414 79.971035,44.999681 39.157774,52.07893 Z"
       style="fill:#ffffff;fill-rule:evenodd;stroke-width:1.03129"
       id="path36" />
    <path
       d="M 116.55463,43.887936 109.76926,1.373697 97.610721,19.115232 104.40141,61.662982 Z"
       style="fill:#ffffff;fill-rule:evenodd;stroke-width:1.03129"
       id="path40" />
    <path
       d="M 98.943908,69.772666 92.15863,27.258428 80,45 86.790694,87.547791 Z"
       style="fill:#ffffff;fill-rule:evenodd;stroke-width:1.03129"
       id="path44" />
    <path
       d="m 31.545865,19.598338 c -1.382144,1.082813 -2.013577,1.608655 -2.575593,2.090286 -0.561848,0.481705 -1.054773,0.918915 -1.550364,1.374959 -0.495259,0.456034 -0.993764,0.930743 -1.501257,1.432907 -0.506911,0.502168 -1.023728,1.031778 -1.535134,1.577246 -0.511073,0.545477 -1.017901,1.106566 -1.457972,1.609131 -0.440322,0.50243 -0.814056,0.946424 -1.18962,1.406561 -0.375397,0.46018 -0.753291,0.936643 -1.114539,1.40732 -0.361246,0.470588 -0.707509,0.935559 -1.072502,1.444244 -0.365411,0.508693 -0.749963,1.061077 -1.121114,1.614344 -0.371237,0.553239 -0.729987,1.107203 -1.082077,1.671564 -0.352092,0.56453 -0.697524,1.139442 -1.0487,1.748994 -0.351257,0.609514 -0.708343,1.253688 -1.033966,1.865338 -0.326287,0.611721 -0.621777,1.19094 -0.906862,1.774167 -0.285502,0.58332 -0.561015,1.170792 -0.828205,1.764139 -0.266358,0.593375 -0.525224,1.192613 -0.797407,1.859456 -0.272185,0.666764 -0.557685,1.40111 -0.85942,2.236421 -0.302147,0.835329 -0.61928,1.77161 -0.892796,2.634231 -0.273847,0.862582 -0.501916,1.65147 -0.730817,2.514407 -0.228068,0.862848 -0.456137,1.799634 -0.617617,2.498353 -0.161485,0.698783 -0.256368,1.159536 -0.38039,1.843021 -0.124859,0.683436 -0.278843,1.589461 -0.3962059,2.344265 -0.1173612,0.754619 -0.1964397,1.358011 -0.2705197,2.000218 -0.074913,0.64224 -0.1423406,1.323584 -0.1997694,2.025691 -0.058269,0.702223 -0.1048864,1.425306 -0.1365062,2.034681 -0.033298,0.609517 -0.049942,1.105175 -0.058269,1.785431 -0.00834,0.68017 -0.00834,1.544706 0.016665,2.573782 0.02496,1.029048 0.085741,2.222493 0.1481547,3.171458 0.066596,0.948922 0.1290257,1.653269 0.1623184,2.005465 0.033298,0.352216 0.033298,0.352216 0.033298,0.352216 0,0 0,0 2.2259141,-0.392086 2.225914,-0.392082 6.677745,-1.175968 8.903658,-1.567892 2.225831,-0.392084 2.225831,-0.392084 2.225831,-0.392084 0,0 0,0 -0.01666,-0.220082 -0.01666,-0.220081 -0.05827,-0.660235 -0.0874,-1.183932 -0.0333,-0.523781 -0.0666,-1.13093 -0.08323,-1.691404 -0.01667,-0.560294 -0.02496,-1.074131 -0.02496,-1.502893 -6.67e-4,-0.428778 0,-0.772523 0.02496,-1.292102 0.01666,-0.519808 0.04994,-1.21546 0.09738,-1.871365 0.04164,-0.655913 0.101551,-1.272203 0.170634,-1.902951 0.0666,-0.630685 0.155653,-1.275986 0.256368,-1.928698 0.101552,-0.652738 0.217247,-1.312966 0.382889,-2.11018 0.165633,-0.797219 0.381223,-1.731384 0.55935,-2.447315 0.178132,-0.715895 0.317964,-1.213527 0.48527,-1.762983 0.166468,-0.549447 0.360414,-1.150707 0.554355,-1.716346 0.193943,-0.5655 0.387884,-1.095534 0.60513,-1.655405 0.218082,-0.559857 0.4603,-1.149631 0.744137,-1.795497 0.284668,-0.645948 0.610958,-1.347984 0.917018,-1.972054 0.306311,-0.624158 0.590979,-1.170402 0.917683,-1.761545 0.327121,-0.59108 0.695859,-1.227121 1.054442,-1.817117 0.358752,-0.589933 0.708343,-1.134024 1.049032,-1.643479 0.341271,-0.509487 0.673386,-0.9843 1.022563,-1.461514 0.348761,-0.477116 0.713337,-0.956534 1.097058,-1.439118 0.383721,-0.482585 0.785754,-0.968311 1.170308,-1.415833 0.384553,-0.447389 0.751628,-0.85685 1.155741,-1.287957 0.403697,-0.431248 0.844187,-0.884177 1.250798,-1.288242 0.407026,-0.404078 0.779926,-0.75894 1.153993,-1.103185 0.374563,-0.344276 0.749962,-0.677702 1.155657,-1.023707 0.405363,-0.345862 0.84044,-0.704426 1.372073,-1.118588 0.531881,-0.414224 1.159402,-0.884064 1.875071,-1.382958 0.715836,-0.498814 1.518902,-1.026652 2.347439,-1.531014 0.828206,-0.504196 1.682214,-0.985185 2.356931,-1.347817 0.675049,-0.362531 1.170555,-0.60731 1.418434,-0.729742 0.248046,-0.122178 0.248046,-0.122178 0.248046,-0.122178 0,0 0,0 2.035803,-2.964118 2.035718,-2.964224 6.107155,-8.892574 8.142874,-11.856797 2.035802,-2.9642319 2.035802,-2.9642319 2.035802,-2.9642319 0,0 0,0 -0.144006,0.015873 -0.143172,0.015873 -0.431167,0.047637 -0.793245,0.092707 -0.362081,0.044984 -0.799074,0.1022329 -1.241392,0.1660062 -0.44282,0.064389 -0.890799,0.134076 -1.284175,0.1989965 -0.39371,0.065276 -0.73165,0.1257828 -1.06909,0.189029 -0.337943,0.064389 -0.675051,0.1301062 -1.014407,0.2005852 -0.339605,0.07057 -0.68254,0.144836 -1.005998,0.218049 -0.32379,0.07409 -0.627605,0.145278 -0.918517,0.216197 -0.290495,0.07145 -0.566841,0.140866 -1.117451,0.294084 -0.550194,0.153216 -1.374154,0.389173 -2.080501,0.604664 -0.70668,0.215316 -1.295244,0.410167 -1.84544,0.601136 -0.550194,0.191059 -1.061598,0.3785 -1.64359,0.604401 -0.581824,0.226075 -1.234565,0.490435 -1.860007,0.757088 -0.625106,0.266651 -1.223494,0.535331 -1.782761,0.797221 -0.559351,0.261889 -1.079414,0.516986 -1.692701,0.83427 -0.613455,0.317635 -1.319717,0.696929 -1.976621,1.06645 -0.656737,0.369325 -1.264698,0.728595 -1.970129,1.165629 -0.705014,0.436983 -1.508581,0.95179 -3.765043,2.533586"
       style="fill:#ffffff;fill-rule:evenodd;stroke-width:1.03129"
       id="path48" />
    <path
       d="m 11.654219,87.880026 c 0.765777,2.057191 1.03072,2.707811 1.265864,3.268831 0.234727,0.561001 0.440322,1.032542 0.642586,1.481739 0.202265,0.449334 0.401202,0.876525 0.628438,1.346791 0.227234,0.470231 0.482772,0.983544 0.773268,1.543019 0.290495,0.559331 0.615952,1.164789 0.971537,1.795426 0.355422,0.630687 0.739975,1.286614 1.05053,1.803297 0.310474,0.516811 0.547698,0.894211 0.774934,1.247491 0.226403,0.35309 0.443651,0.6821 0.688367,1.04483 0.244715,0.36254 0.519396,0.75902 0.788251,1.13933 0.268855,0.38008 0.533546,0.7442 0.838443,1.15141 0.304646,0.40716 0.650078,0.85755 0.972538,1.26746 0.322125,0.41008 0.621775,0.77958 0.905947,1.12302 0.283837,0.34349 0.553522,0.66041 0.894793,1.05001 0.34127,0.38961 0.754958,0.85173 1.175801,1.30663 0.420345,0.45481 0.847765,0.90229 1.294579,1.35487 0.446982,0.45252 0.913192,0.91 1.41236,1.3816 0.49942,0.47165 1.030971,0.95749 1.376818,1.26991 0.346265,0.31235 0.505246,0.45135 0.585984,0.52086 0.08323,0.0696 0.08323,0.0696 0.08323,0.0696 0,0 0,0 1.315888,-1.91608 1.315971,-1.9161 3.947915,-5.7484 5.263803,-7.66452 1.315971,-1.91608 1.315971,-1.91608 1.315971,-1.91608 0,0 0,0 -0.307143,-0.29259 -0.307142,-0.2924 -0.921763,-0.87758 -1.442076,-1.394434 -0.520228,-0.516624 -0.946399,-0.965046 -1.387138,-1.451005 -0.440322,-0.485942 -0.896043,-1.009594 -1.321882,-1.521099 -0.426171,-0.511599 -0.822377,-1.010864 -1.219501,-1.53559 -0.397037,-0.524838 -0.795741,-1.074965 -1.186121,-1.641366 -0.39038,-0.566469 -0.772436,-1.14911 -1.138927,-1.736239 -0.366238,-0.587024 -0.716662,-1.178368 -1.029716,-1.73183 -0.313803,-0.553415 -0.590148,-1.068954 -0.832366,-1.538405 -0.242218,-0.469265 -0.451143,-0.892373 -0.698356,-1.426859 -0.248045,-0.534451 -0.535211,-1.180192 -0.816553,-1.857543 -0.281339,-0.677433 -0.556851,-1.386581 -0.771602,-1.965399 -0.21475,-0.578997 -0.36874,-1.027489 -0.530219,-1.531334 -0.162319,-0.503931 -0.332945,-1.062982 -0.447812,-1.451633 -0.114859,-0.388822 -0.175633,-0.606871 -0.205595,-0.715983 -0.0333,-0.109112 -0.0333,-0.109112 -0.0333,-0.109112 0,0 0,0 -2.231577,0.392879 -2.231574,0.392875 -6.69489,1.178869 -8.926547,1.571959 -2.231574,0.392788 -2.231574,0.392788 -2.231574,0.392788 0,0 0,0 0.0924,0.354155 0.0924,0.353802 0.277179,1.062233 0.486934,1.809944 0.208926,0.747738 0.441155,1.534949 0.871654,2.869163"
       style="fill:#ffffff;fill-rule:evenodd;stroke-width:1.03129"
       id="path52" />
    <path
       d="m 37.732844,119.3673 c 1.920769,1.04508 2.670482,1.42006 3.341536,1.74393 0.670887,0.3239 1.263533,0.59638 1.910615,0.8782 0.646749,0.28173 1.348433,0.57264 2.01108,0.83357 0.662563,0.261 1.286423,0.49175 1.850766,0.69127 0.564344,0.19944 1.069009,0.36774 1.562102,0.52476 0.492762,0.15674 0.974369,0.30246 1.507084,0.45356 0.532714,0.15128 1.116537,0.30881 1.874738,0.49149 0.758286,0.18267 1.690704,0.3912 2.368833,0.53464 0.677546,0.14325 1.101638,0.22088 1.580914,0.30167 0.479443,0.0811 1.013988,0.16397 1.482611,0.23206 0.468621,0.0679 0.87132,0.11977 1.246884,0.16477 0.375398,0.0451 0.724159,0.082 1.071256,0.11663 0.347096,0.0353 0.693362,0.0644 1.029886,0.0916 0.336277,0.0282 0.665063,0.0485 1.021731,0.0705 0.357086,0.0202 0.743302,0.0397 1.172972,0.0556 0.430332,0.0158 0.903782,0.0282 1.331952,0.0352 0.427836,0.009 0.810724,0.009 1.213341,0.003 0.402865,-0.004 0.825709,-0.0116 1.421099,-0.0353 0.595143,-0.0237 1.362342,-0.0653 1.745887,-0.0856 0.383727,-0.0202 0.383727,-0.0202 0.383727,-0.0202 0,0 0,0 -0.390393,-2.33032 -0.390374,-2.33033 -1.170299,-6.99111 -1.560428,-9.32144 -0.390381,-2.33034 -0.390381,-2.33034 -0.390381,-2.33034 0,0 0,0 -0.23889,0.004 -0.238889,0.004 -0.715833,0.0158 -1.191616,0.0202 -0.476113,0.003 -0.951477,-0.002 -1.403785,-0.0157 -0.452807,-0.0115 -0.881893,-0.0309 -1.297742,-0.0556 -0.416183,-0.0238 -0.818216,-0.0547 -1.272856,-0.097 -0.454472,-0.0423 -0.962549,-0.0976 -1.415189,-0.15321 -0.452807,-0.0556 -0.850261,-0.11229 -1.308646,-0.18665 -0.458635,-0.0732 -0.977947,-0.16599 -1.542043,-0.27866 -0.563511,-0.11299 -1.17247,-0.24671 -1.675137,-0.36534 -0.50275,-0.11856 -0.899039,-0.22125 -1.396377,-0.36255 -0.496922,-0.14128 -1.095147,-0.32037 -1.631606,-0.49202 -0.536876,-0.17147 -1.011576,-0.3351 -1.506417,-0.51654 -0.494427,-0.18145 -1.00941,-0.38088 -1.497676,-0.58014 -0.4886,-0.19978 -0.950147,-0.39879 -1.447821,-0.62583 -0.497752,-0.22688 -1.030967,-0.48197 -1.509746,-0.72084 -0.47861,-0.23878 -0.903117,-0.4616 -1.297658,-0.6762 -0.394541,-0.21453 -0.759118,-0.42111 -1.073753,-0.60352 -0.314634,-0.18266 -0.579325,-0.34154 -0.711672,-0.42058 -0.132342,-0.0794 -0.132342,-0.0794 -0.132342,-0.0794 0,0 0,0 -1.315803,1.9159 -1.315806,1.91588 -3.947416,5.74767 -5.263304,7.66355 -1.315722,1.91614 -1.315722,1.91614 -1.315722,1.91614 0,0 0,0 1.587158,0.98674"
       style="fill:#ffffff;fill-rule:evenodd;stroke-width:1.03129"
       id="path56" />
    <path
       d="m 80.366989,124.35083 c 2.997519,-0.97561 3.710937,-1.24176 4.324313,-1.47924 0.613449,-0.23764 1.127016,-0.44625 1.600715,-0.64603 0.473626,-0.1998 0.907945,-0.39041 1.344112,-0.58905 0.436166,-0.19867 0.874235,-0.40506 1.342028,-0.63396 0.467793,-0.22926 0.964878,-0.48055 1.437165,-0.72788 0.47194,-0.24708 0.919759,-0.49009 1.354597,-0.73363 0.434487,-0.24363 0.85692,-0.48753 1.315965,-0.76265 0.459459,-0.27502 0.955309,-0.58146 1.481106,-0.91903 0.526064,-0.3375 1.080915,-0.70655 1.632683,-1.08775 0.551864,-0.38079 1.100156,-0.77446 1.633108,-1.17086 0.532706,-0.39641 1.050286,-0.79591 1.596317,-1.23497 0.54603,-0.43883 1.120452,-0.91733 1.642002,-1.36632 0.52191,-0.44906 0.99012,-0.86885 1.50151,-1.34573 0.51108,-0.47684 1.06552,-1.01084 1.55761,-1.50047 0.49194,-0.48956 0.92201,-0.93492 1.32738,-1.36696 0.40535,-0.43213 0.78575,-0.85104 1.2429,-1.37592 0.45695,-0.52492 0.99034,-1.15584 1.5223,-1.81397 0.53187,-0.6582 1.06259,-1.3436 1.5641,-2.02004 0.50192,-0.67648 0.97421,-1.34388 1.39088,-1.95357 0.41619,-0.60969 0.77744,-1.16165 1.13627,-1.732024 0.35875,-0.570445 0.71583,-1.159099 1.03871,-1.70961 0.32295,-0.550417 0.61094,-1.062357 0.89529,-1.584508 0.28384,-0.522192 0.56352,-1.054553 0.81739,-1.553963 0.2547,-0.499436 0.48277,-0.966008 0.70584,-1.435983 0.22224,-0.469882 0.43948,-0.943235 0.64758,-1.412638 0.20809,-0.469441 0.40703,-0.934957 0.61761,-1.447436 0.2106,-0.512399 0.432,-1.071901 0.63094,-1.593967 0.19894,-0.522103 0.3754,-1.006866 0.55685,-1.528623 0.18146,-0.521661 0.36791,-1.080458 0.56518,-1.708534 0.19728,-0.628128 0.40454,-1.325497 0.62011,-2.113961 0.21559,-0.788314 0.43951,-1.667797 0.63426,-2.504819 0.19479,-0.837003 0.36208,-1.631685 0.50609,-2.384011 0.14401,-0.75241 0.26471,-1.462272 0.38704,-2.299101 0.12245,-0.836916 0.24556,-1.800541 0.33378,-2.58357 0.089,-0.783109 0.14239,-1.385506 0.18896,-2.037388 0.0417,-0.651767 0.0873,-1.353074 0.11411,-2.057926 0.025,-0.704957 0.0417,-1.41352 0.0417,-2.162705 0,-0.749237 -0.01,-1.538925 -0.0417,-2.408266 -0.0333,-0.869376 -0.0872,-1.818263 -0.14818,-2.64199 -0.0584,-0.823773 -0.12896,-1.522291 -0.20641,-2.206007 -0.0749,-0.683787 -0.16558,-1.352757 -0.27468,-2.080338 -0.10905,-0.727627 -0.24056,-1.513849 -0.4087,-2.392777 -0.16809,-0.879079 -0.37374,-1.85082 -0.47613,-2.336661 -0.1024,-0.485848 -0.1024,-0.485848 -0.1024,-0.485848 0,0 0,0 -1.99252,2.90127 -1.99252,2.901277 -5.97738,8.703657 -7.96982,11.604927 -1.99269,2.901295 -1.99269,2.901295 -1.99269,2.901295 0,0 0,0 -0.025,0.280148 -0.025,0.280149 -0.0749,0.840796 -0.13819,1.463033 -0.0667,0.622217 -0.15325,1.30611 -0.22559,1.828493 -0.0749,0.522367 -0.1306,0.883226 -0.19811,1.270688 -0.0666,0.387673 -0.14472,0.801984 -0.23222,1.232403 -0.0872,0.430455 -0.18394,0.877226 -0.29216,1.342576 -0.10905,0.465384 -0.22975,0.949372 -0.36958,1.471942 -0.14075,0.52263 -0.30214,1.083913 -0.4736,1.641989 -0.17155,0.55809 -0.35377,1.112898 -0.53939,1.64758 -0.18644,0.534715 -0.37623,1.049425 -0.59179,1.597469 -0.2156,0.548124 -0.45615,1.129547 -0.68921,1.667524 -0.23391,0.537891 -0.46115,1.032421 -0.75413,1.629659 -0.29299,0.597253 -0.65259,1.297482 -0.96788,1.886834 -0.31547,0.589494 -0.58848,1.068118 -0.88497,1.56576 -0.29633,0.497669 -0.61762,1.014349 -0.90112,1.4565 -0.28382,0.442195 -0.53022,0.810012 -0.863172,1.282589 -0.33293,0.472791 -0.75329,1.050254 -1.165396,1.592406 -0.412014,0.542126 -0.817373,1.048795 -1.236967,1.551344 -0.420348,0.502525 -0.855431,1.001082 -1.239325,1.426405 -0.383704,0.425426 -0.716655,0.777643 -1.14116,1.20617 -0.425356,0.42851 -0.941999,0.93336 -1.338364,1.31052 -0.396206,0.37736 -0.671729,0.62673 -0.983524,0.9002 -0.311307,0.27334 -0.660067,0.57095 -1.022402,0.87095 -0.362919,0.30008 -0.739979,0.60212 -1.271856,1.00241 -0.531882,0.40029 -1.216915,0.89863 -2.094394,1.47936 -0.877658,0.58067 -1.947325,1.24363 -2.802993,1.74412 -0.855759,0.50031 -1.497356,0.83824 -2.169312,1.1688 -0.671721,0.33078 -1.374326,0.65363 -2.071677,0.95233 -0.697533,0.29849 -1.389307,0.57264 -2.016738,0.80578 -0.627614,0.23278 -1.189872,0.42525 -1.706356,0.59143 -0.516067,0.16638 -0.986687,0.3068 -1.565102,0.46363 -0.578487,0.15673 -1.264609,0.33034 -1.607887,0.41696 -0.342934,0.0865 -0.342934,0.0865 -0.342934,0.0865 0,0 0,0 0.387892,2.31581 0.387875,2.31581 1.1629,6.94743 1.550611,9.26312 0.387876,2.31582 0.387876,2.31582 0.387876,2.31582 0,0 0,0 2.559541,-0.61516"
       style="fill:#ffffff;fill-rule:evenodd;stroke-width:1.03129"
       id="path60" />
  </g>
</svg>
